<?xml version="1.0" encoding="UTF-8"?><svg xmlns="http://www.w3.org/2000/svg" xmlns:xlink="http://www.w3.org/1999/xlink" fill-opacity="1" color-rendering="auto" color-interpolation="auto" text-rendering="auto" stroke="black" stroke-linecap="square" width="326" stroke-miterlimit="10" shape-rendering="auto" stroke-opacity="1" fill="black" stroke-dasharray="none" font-weight="normal" stroke-width="1" height="216" font-family="'Dialog'" font-style="normal" stroke-linejoin="miter" font-size="12px" stroke-dashoffset="0" image-rendering="auto">
  <!--Generated by ySVG 2.5-->
  <defs id="genericDefs"/>
  <g>
    <defs id="defs1">
      <clipPath clipPathUnits="userSpaceOnUse" id="clipPath1">
        <path d="M0 0 L326 0 L326 216 L0 216 L0 0 Z"/>
      </clipPath>
      <clipPath clipPathUnits="userSpaceOnUse" id="clipPath2">
        <path d="M179 103 L505 103 L505 319 L179 319 L179 103 Z"/>
      </clipPath>
    </defs>
    <g fill="rgb(153,204,0)" text-rendering="geometricPrecision" shape-rendering="geometricPrecision" transform="matrix(1,0,0,1,-179,-103)" stroke="rgb(153,204,0)">
      <rect x="294" width="57" height="30" y="118" clip-path="url(#clipPath2)" stroke="none"/>
    </g>
    <g text-rendering="geometricPrecision" stroke-miterlimit="1.45" shape-rendering="geometricPrecision" font-family="sans-serif" transform="matrix(1,0,0,1,-179,-103)" stroke-linecap="butt">
      <text x="298.7695" xml:space="preserve" y="137.1543" clip-path="url(#clipPath2)" stroke="none">&lt;stmt&gt;</text>
    </g>
    <g fill="rgb(153,204,0)" text-rendering="geometricPrecision" shape-rendering="geometricPrecision" transform="matrix(1,0,0,1,-179,-103)" stroke="rgb(153,204,0)">
      <rect x="255.5" width="57" height="30" y="170" clip-path="url(#clipPath2)" stroke="none"/>
    </g>
    <g text-rendering="geometricPrecision" stroke-miterlimit="1.45" shape-rendering="geometricPrecision" font-family="sans-serif" transform="matrix(1,0,0,1,-179,-103)" stroke-linecap="butt">
      <text x="260.4277" xml:space="preserve" y="189.1543" clip-path="url(#clipPath2)" stroke="none">&lt;expr&gt;</text>
    </g>
    <g fill="rgb(255,204,0)" text-rendering="geometricPrecision" shape-rendering="geometricPrecision" transform="matrix(1,0,0,1,-179,-103)" stroke="rgb(255,204,0)">
      <rect x="203" width="30" height="30" y="222" clip-path="url(#clipPath2)" stroke="none"/>
    </g>
    <g text-rendering="geometricPrecision" stroke-miterlimit="1.45" shape-rendering="geometricPrecision" font-family="sans-serif" transform="matrix(1,0,0,1,-179,-103)" stroke-linecap="butt">
      <text x="216.333" xml:space="preserve" y="241.1543" clip-path="url(#clipPath2)" stroke="none">i</text>
    </g>
    <g fill="rgb(255,204,0)" text-rendering="geometricPrecision" shape-rendering="geometricPrecision" transform="matrix(1,0,0,1,-179,-103)" stroke="rgb(255,204,0)">
      <rect x="247" width="30" height="30" y="222" clip-path="url(#clipPath2)" stroke="none"/>
    </g>
    <g text-rendering="geometricPrecision" stroke-miterlimit="1.45" shape-rendering="geometricPrecision" font-family="sans-serif" transform="matrix(1,0,0,1,-179,-103)" stroke-linecap="butt">
      <text x="256.9727" xml:space="preserve" y="241.1543" clip-path="url(#clipPath2)" stroke="none">&gt;</text>
    </g>
    <g fill="rgb(255,204,0)" text-rendering="geometricPrecision" shape-rendering="geometricPrecision" transform="matrix(1,0,0,1,-179,-103)" stroke="rgb(255,204,0)">
      <rect x="291" width="30" height="30" y="222" clip-path="url(#clipPath2)" stroke="none"/>
    </g>
    <g text-rendering="geometricPrecision" stroke-miterlimit="1.45" shape-rendering="geometricPrecision" font-family="sans-serif" transform="matrix(1,0,0,1,-179,-103)" stroke-linecap="butt">
      <text x="302.1826" xml:space="preserve" y="241.1543" clip-path="url(#clipPath2)" stroke="none">0</text>
    </g>
    <g fill="rgb(153,204,0)" text-rendering="geometricPrecision" shape-rendering="geometricPrecision" transform="matrix(1,0,0,1,-179,-103)" stroke="rgb(153,204,0)">
      <rect x="371.5" width="57" height="30" y="170" clip-path="url(#clipPath2)" stroke="none"/>
    </g>
    <g text-rendering="geometricPrecision" stroke-miterlimit="1.45" shape-rendering="geometricPrecision" font-family="sans-serif" transform="matrix(1,0,0,1,-179,-103)" stroke-linecap="butt">
      <text x="376.2695" xml:space="preserve" y="189.1543" clip-path="url(#clipPath2)" stroke="none">&lt;stmt&gt;</text>
    </g>
    <g fill="rgb(255,204,0)" text-rendering="geometricPrecision" shape-rendering="geometricPrecision" transform="matrix(1,0,0,1,-179,-103)" stroke="rgb(255,204,0)">
      <rect x="327" width="30" height="30" y="170" clip-path="url(#clipPath2)" stroke="none"/>
    </g>
    <g text-rendering="geometricPrecision" stroke-miterlimit="1.45" shape-rendering="geometricPrecision" font-family="sans-serif" transform="matrix(1,0,0,1,-179,-103)" stroke-linecap="butt">
      <text x="338.1826" xml:space="preserve" y="189.1543" clip-path="url(#clipPath2)" stroke="none">{</text>
    </g>
    <g fill="rgb(255,204,0)" text-rendering="geometricPrecision" shape-rendering="geometricPrecision" transform="matrix(1,0,0,1,-179,-103)" stroke="rgb(255,204,0)">
      <rect x="443" width="30" height="30" y="170" clip-path="url(#clipPath2)" stroke="none"/>
    </g>
    <g text-rendering="geometricPrecision" stroke-miterlimit="1.45" shape-rendering="geometricPrecision" font-family="sans-serif" transform="matrix(1,0,0,1,-179,-103)" stroke-linecap="butt">
      <text x="454.1826" xml:space="preserve" y="189.1543" clip-path="url(#clipPath2)" stroke="none">}</text>
    </g>
    <g fill="rgb(255,204,0)" text-rendering="geometricPrecision" shape-rendering="geometricPrecision" transform="matrix(1,0,0,1,-179,-103)" stroke="rgb(255,204,0)">
      <rect x="335" width="30" height="30" y="222" clip-path="url(#clipPath2)" stroke="none"/>
    </g>
    <g text-rendering="geometricPrecision" stroke-miterlimit="1.45" shape-rendering="geometricPrecision" font-family="sans-serif" transform="matrix(1,0,0,1,-179,-103)" stroke-linecap="butt">
      <text x="348.333" xml:space="preserve" y="241.1543" clip-path="url(#clipPath2)" stroke="none">i</text>
    </g>
    <g fill="rgb(255,204,0)" text-rendering="geometricPrecision" shape-rendering="geometricPrecision" transform="matrix(1,0,0,1,-179,-103)" stroke="rgb(255,204,0)">
      <rect x="379.5" width="30" height="30" y="222" clip-path="url(#clipPath2)" stroke="none"/>
    </g>
    <g text-rendering="geometricPrecision" stroke-miterlimit="1.45" shape-rendering="geometricPrecision" font-family="sans-serif" transform="matrix(1,0,0,1,-179,-103)" stroke-linecap="butt">
      <text x="389.4727" xml:space="preserve" y="241.1543" clip-path="url(#clipPath2)" stroke="none">=</text>
    </g>
    <g fill="rgb(153,204,0)" text-rendering="geometricPrecision" shape-rendering="geometricPrecision" transform="matrix(1,0,0,1,-179,-103)" stroke="rgb(153,204,0)">
      <rect x="424" width="57" height="30" y="222" clip-path="url(#clipPath2)" stroke="none"/>
    </g>
    <g text-rendering="geometricPrecision" stroke-miterlimit="1.45" shape-rendering="geometricPrecision" font-family="sans-serif" transform="matrix(1,0,0,1,-179,-103)" stroke-linecap="butt">
      <text x="428.9277" xml:space="preserve" y="241.1543" clip-path="url(#clipPath2)" stroke="none">&lt;expr&gt;</text>
    </g>
    <g fill="rgb(255,204,0)" text-rendering="geometricPrecision" shape-rendering="geometricPrecision" transform="matrix(1,0,0,1,-179,-103)" stroke="rgb(255,204,0)">
      <rect x="371.5" width="30" height="30" y="274" clip-path="url(#clipPath2)" stroke="none"/>
    </g>
    <g text-rendering="geometricPrecision" stroke-miterlimit="1.45" shape-rendering="geometricPrecision" font-family="sans-serif" transform="matrix(1,0,0,1,-179,-103)" stroke-linecap="butt">
      <text x="384.833" xml:space="preserve" y="293.1543" clip-path="url(#clipPath2)" stroke="none">i</text>
    </g>
    <g fill="rgb(255,204,0)" text-rendering="geometricPrecision" shape-rendering="geometricPrecision" transform="matrix(1,0,0,1,-179,-103)" stroke="rgb(255,204,0)">
      <rect x="415.5" width="30" height="30" y="274" clip-path="url(#clipPath2)" stroke="none"/>
    </g>
    <g text-rendering="geometricPrecision" stroke-miterlimit="1.45" shape-rendering="geometricPrecision" font-family="sans-serif" transform="matrix(1,0,0,1,-179,-103)" stroke-linecap="butt">
      <text x="428.335" xml:space="preserve" y="293.1543" clip-path="url(#clipPath2)" stroke="none">-</text>
    </g>
    <g fill="rgb(255,204,0)" text-rendering="geometricPrecision" shape-rendering="geometricPrecision" transform="matrix(1,0,0,1,-179,-103)" stroke="rgb(255,204,0)">
      <rect x="459.5" width="30" height="30" y="274" clip-path="url(#clipPath2)" stroke="none"/>
    </g>
    <g text-rendering="geometricPrecision" stroke-miterlimit="1.45" shape-rendering="geometricPrecision" font-family="sans-serif" transform="matrix(1,0,0,1,-179,-103)" stroke-linecap="butt">
      <text x="470.6826" xml:space="preserve" y="293.1543" clip-path="url(#clipPath2)" stroke="none">1</text>
    </g>
    <g fill="rgb(255,204,0)" text-rendering="geometricPrecision" shape-rendering="geometricPrecision" transform="matrix(1,0,0,1,-179,-103)" stroke="rgb(255,204,0)">
      <rect x="194.5" width="47" height="30" y="170" clip-path="url(#clipPath2)" stroke="none"/>
    </g>
    <g text-rendering="geometricPrecision" stroke-miterlimit="1.45" shape-rendering="geometricPrecision" font-family="sans-serif" transform="matrix(1,0,0,1,-179,-103)" stroke-linecap="butt">
      <text x="202.2646" xml:space="preserve" y="189.1543" clip-path="url(#clipPath2)" stroke="none">while</text>
      <path fill="none" d="M311.3942 148 L299.8661 163.5704" clip-path="url(#clipPath2)"/>
      <path d="M295.1058 170 L306.2648 163.3309 L300.4612 162.7668 L298.2278 157.3805 Z" clip-path="url(#clipPath2)" stroke="none"/>
      <path fill="none" d="M264.9615 200 L239.2839 220.2308" clip-path="url(#clipPath2)"/>
      <path d="M233 225.1818 L245.5203 221.6828 L240.0694 219.612 L239.3315 213.8279 Z" clip-path="url(#clipPath2)" stroke="none"/>
      <path fill="none" d="M277.6538 200 L271.4633 214.6323" clip-path="url(#clipPath2)"/>
      <path d="M268.3462 222 L277.6267 212.8966 L271.8529 213.7113 L268.417 209.0002 Z" clip-path="url(#clipPath2)" stroke="none"/>
      <path fill="none" d="M290.3462 200 L296.5367 214.6323" clip-path="url(#clipPath2)"/>
      <path d="M299.6538 222 L299.583 209.0002 L296.1471 213.7113 L290.3733 212.8966 Z" clip-path="url(#clipPath2)" stroke="none"/>
      <path fill="none" d="M344.8558 148 L371.001 165.5426" clip-path="url(#clipPath2)"/>
      <path d="M377.6442 170 L370.4653 159.162 L370.1707 164.9855 L364.8936 167.4659 Z" clip-path="url(#clipPath2)" stroke="none"/>
      <path fill="none" d="M328.125 148 L333.566 162.5094" clip-path="url(#clipPath2)"/>
      <path d="M336.375 170 L336.8432 157.0084 L333.2149 161.573 L327.4799 160.5197 Z" clip-path="url(#clipPath2)" stroke="none"/>
      <path fill="none" d="M351 136.8944 L403 144 L436.586 169.0369" clip-path="url(#clipPath2)"/>
      <path d="M443 173.8182 L436.3674 162.6375 L435.7843 168.4392 L430.3907 170.6549 Z" clip-path="url(#clipPath2)" stroke="none"/>
      <path fill="none" d="M380.2148 199.9868 L367.3039 215.8027" clip-path="url(#clipPath2)"/>
      <path d="M362.2449 222 L373.7067 215.8659 L367.9363 215.028 L365.9601 209.5422 Z" clip-path="url(#clipPath2)" stroke="none"/>
      <path fill="none" d="M398.4135 200 L396.928 214.0444" clip-path="url(#clipPath2)"/>
      <path d="M396.0865 222 L402.321 210.5925 L397.0332 213.0499 L392.3765 209.5406 Z" clip-path="url(#clipPath2)" stroke="none"/>
      <path fill="none" d="M415.1442 200 L431.6719 216.3703" clip-path="url(#clipPath2)"/>
      <path d="M437.3558 222 L432.3486 210.003 L430.9614 215.6665 L425.3114 217.1078 Z" clip-path="url(#clipPath2)" stroke="none"/>
      <path fill="none" d="M433.4615 252 L407.7839 272.2308" clip-path="url(#clipPath2)"/>
      <path d="M401.5 277.1818 L414.0203 273.6828 L408.5694 271.612 L407.8315 265.8279 Z" clip-path="url(#clipPath2)" stroke="none"/>
      <path fill="none" d="M446.1538 252 L439.9633 266.6323" clip-path="url(#clipPath2)"/>
      <path d="M436.8462 274 L446.1267 264.8966 L440.3529 265.7113 L436.917 261.0002 Z" clip-path="url(#clipPath2)" stroke="none"/>
      <path fill="none" d="M458.8462 252 L465.0367 266.6323" clip-path="url(#clipPath2)"/>
      <path d="M468.1538 274 L468.083 261.0002 L464.6471 265.7113 L458.8733 264.8966 Z" clip-path="url(#clipPath2)" stroke="none"/>
      <path fill="none" d="M294 147.1818 L248.6623 169.7422" clip-path="url(#clipPath2)"/>
      <path d="M241.5 173.3062 L254.4709 172.4366 L249.5575 169.2967 L250.0159 163.4838 Z" clip-path="url(#clipPath2)" stroke="none"/>
    </g>
  </g>
</svg>
