<?xml version="1.0" encoding="UTF-8"?><svg xmlns="http://www.w3.org/2000/svg" xmlns:xlink="http://www.w3.org/1999/xlink" fill-opacity="1" color-rendering="auto" color-interpolation="auto" text-rendering="auto" stroke="black" stroke-linecap="square" width="634" stroke-miterlimit="10" shape-rendering="auto" stroke-opacity="1" fill="black" stroke-dasharray="none" font-weight="normal" stroke-width="1" height="255" font-family="'Dialog'" font-style="normal" stroke-linejoin="miter" font-size="12px" stroke-dashoffset="0" image-rendering="auto">
  <!--Generated by ySVG 2.5-->
  <defs id="genericDefs"/>
  <g>
    <defs id="defs1">
      <clipPath clipPathUnits="userSpaceOnUse" id="clipPath1">
        <path d="M0 0 L634 0 L634 255 L0 255 L0 0 Z"/>
      </clipPath>
      <clipPath clipPathUnits="userSpaceOnUse" id="clipPath2">
        <path d="M358 104 L992 104 L992 359 L358 359 L358 104 Z"/>
      </clipPath>
    </defs>
    <g fill="rgb(255,204,0)" text-rendering="geometricPrecision" shape-rendering="geometricPrecision" transform="matrix(1,0,0,1,-358,-104)" stroke="rgb(255,204,0)">
      <rect x="414" width="30" height="30" y="149" clip-path="url(#clipPath2)" stroke="none"/>
    </g>
    <g font-size="22px" stroke-linecap="butt" transform="matrix(1,0,0,1,-358,-104)" text-rendering="geometricPrecision" font-family="'Fira Mono'" shape-rendering="geometricPrecision" font-weight="bold" stroke-miterlimit="1.45">
      <text x="389.4218" xml:space="preserve" y="127.366" clip-path="url(#clipPath2)" stroke="none">Rank 0</text>
    </g>
    <g fill="rgb(255,204,0)" text-rendering="geometricPrecision" shape-rendering="geometricPrecision" transform="matrix(1,0,0,1,-358,-104)" stroke="rgb(255,204,0)">
      <rect x="555" width="30" height="30" y="149" clip-path="url(#clipPath2)" stroke="none"/>
    </g>
    <g font-size="22px" stroke-linecap="butt" transform="matrix(1,0,0,1,-358,-104)" text-rendering="geometricPrecision" font-family="'Fira Mono'" shape-rendering="geometricPrecision" font-weight="bold" stroke-miterlimit="1.45">
      <text x="530.4218" xml:space="preserve" y="127.366" clip-path="url(#clipPath2)" stroke="none">Rank 1</text>
    </g>
    <g fill="rgb(255,204,0)" text-rendering="geometricPrecision" shape-rendering="geometricPrecision" transform="matrix(1,0,0,1,-358,-104)" stroke="rgb(255,204,0)">
      <rect x="555" width="30" height="30" y="209" clip-path="url(#clipPath2)" stroke="none"/>
      <rect x="714.75" width="30" height="30" y="149" clip-path="url(#clipPath2)" stroke="none"/>
    </g>
    <g font-size="22px" stroke-linecap="butt" transform="matrix(1,0,0,1,-358,-104)" text-rendering="geometricPrecision" font-family="'Fira Mono'" shape-rendering="geometricPrecision" font-weight="bold" stroke-miterlimit="1.45">
      <text x="660.1718" xml:space="preserve" y="127.366" clip-path="url(#clipPath2)" stroke="none">Rank 2</text>
    </g>
    <g fill="rgb(255,204,0)" text-rendering="geometricPrecision" shape-rendering="geometricPrecision" transform="matrix(1,0,0,1,-358,-104)" stroke="rgb(255,204,0)">
      <rect x="714.75" width="30" height="30" y="209" clip-path="url(#clipPath2)" stroke="none"/>
      <rect x="654.75" width="30" height="30" y="209" clip-path="url(#clipPath2)" stroke="none"/>
      <rect x="654.75" width="30" height="30" y="269" clip-path="url(#clipPath2)" stroke="none"/>
      <rect x="842" width="30" height="30" y="209" clip-path="url(#clipPath2)" stroke="none"/>
    </g>
    <g font-size="22px" stroke-linecap="butt" transform="matrix(1,0,0,1,-358,-104)" text-rendering="geometricPrecision" font-family="'Fira Mono'" shape-rendering="geometricPrecision" font-weight="bold" stroke-miterlimit="1.45">
      <text x="841.4218" xml:space="preserve" y="127.366" clip-path="url(#clipPath2)" stroke="none">Rank 3</text>
    </g>
    <g fill="rgb(255,204,0)" text-rendering="geometricPrecision" shape-rendering="geometricPrecision" transform="matrix(1,0,0,1,-358,-104)" stroke="rgb(255,204,0)">
      <rect x="842" width="30" height="30" y="269" clip-path="url(#clipPath2)" stroke="none"/>
      <rect x="782" width="30" height="30" y="269" clip-path="url(#clipPath2)" stroke="none"/>
      <rect x="782" width="30" height="30" y="329" clip-path="url(#clipPath2)" stroke="none"/>
      <rect x="962" width="30" height="30" y="149" clip-path="url(#clipPath2)" stroke="none"/>
      <rect x="962" width="30" height="30" y="209" clip-path="url(#clipPath2)" stroke="none"/>
      <rect x="902" width="30" height="30" y="209" clip-path="url(#clipPath2)" stroke="none"/>
      <rect x="902" width="30" height="30" y="269" clip-path="url(#clipPath2)" stroke="none"/>
    </g>
    <g text-rendering="geometricPrecision" stroke-miterlimit="1.45" shape-rendering="geometricPrecision" transform="matrix(1,0,0,1,-358,-104)" stroke-linecap="butt">
      <path fill="none" d="M570 179 L570 201" clip-path="url(#clipPath2)"/>
      <path d="M570 209 L575 197 L570 200 L565 197 Z" clip-path="url(#clipPath2)" stroke="none"/>
      <path fill="none" d="M729.75 179 L729.75 201" clip-path="url(#clipPath2)"/>
      <path d="M729.75 209 L734.75 197 L729.75 200 L724.75 197 Z" clip-path="url(#clipPath2)" stroke="none"/>
      <path fill="none" d="M714.75 179 L690.4069 203.3431" clip-path="url(#clipPath2)"/>
      <path d="M684.75 209 L696.7708 204.0502 L691.114 202.636 L689.6998 196.9792 Z" clip-path="url(#clipPath2)" stroke="none"/>
      <path fill="none" d="M669.75 239 L669.75 261" clip-path="url(#clipPath2)"/>
      <path d="M669.75 269 L674.75 257 L669.75 260 L664.75 257 Z" clip-path="url(#clipPath2)" stroke="none"/>
      <path fill="none" d="M857 239 L857 261" clip-path="url(#clipPath2)"/>
      <path d="M857 269 L862 257 L857 260 L852 257 Z" clip-path="url(#clipPath2)" stroke="none"/>
      <path fill="none" d="M842 239 L817.6569 263.3431" clip-path="url(#clipPath2)"/>
      <path d="M812 269 L824.0208 264.0503 L818.364 262.636 L816.9498 256.9792 Z" clip-path="url(#clipPath2)" stroke="none"/>
      <path fill="none" d="M797 299 L797 321" clip-path="url(#clipPath2)"/>
      <path d="M797 329 L802 317 L797 320 L792 317 Z" clip-path="url(#clipPath2)" stroke="none"/>
      <path fill="none" d="M962 171.5 L879.1554 212.9223" clip-path="url(#clipPath2)"/>
      <path d="M872 216.5 L884.9692 215.6056 L880.0499 212.4751 L880.4971 206.6613 Z" clip-path="url(#clipPath2)" stroke="none"/>
      <path fill="none" d="M977 179 L977 201" clip-path="url(#clipPath2)"/>
      <path d="M977 209 L982 197 L977 200 L972 197 Z" clip-path="url(#clipPath2)" stroke="none"/>
      <path fill="none" d="M962 179 L937.6569 203.3431" clip-path="url(#clipPath2)"/>
      <path d="M932 209 L944.0208 204.0502 L938.364 202.636 L936.9498 196.9792 Z" clip-path="url(#clipPath2)" stroke="none"/>
      <path fill="none" d="M917 239 L917 261" clip-path="url(#clipPath2)"/>
      <path d="M917 269 L922 257 L917 260 L912 257 Z" clip-path="url(#clipPath2)" stroke="none"/>
    </g>
  </g>
</svg>
