<?xml version="1.0" encoding="UTF-8"?><svg xmlns="http://www.w3.org/2000/svg" xmlns:xlink="http://www.w3.org/1999/xlink" fill-opacity="1" color-rendering="auto" color-interpolation="auto" text-rendering="auto" stroke="black" stroke-linecap="square" width="550" stroke-miterlimit="10" shape-rendering="auto" stroke-opacity="1" fill="black" stroke-dasharray="none" font-weight="normal" stroke-width="1" height="203" font-family="'Dialog'" font-style="normal" stroke-linejoin="miter" font-size="12px" stroke-dashoffset="0" image-rendering="auto">
  <!--Generated by ySVG 2.5-->
  <defs id="genericDefs"/>
  <g>
    <defs id="defs1">
      <clipPath clipPathUnits="userSpaceOnUse" id="clipPath1">
        <path d="M0 0 L550 0 L550 203 L0 203 L0 0 Z"/>
      </clipPath>
      <clipPath clipPathUnits="userSpaceOnUse" id="clipPath2">
        <path d="M495 203 L1045 203 L1045 406 L495 406 L495 203 Z"/>
      </clipPath>
    </defs>
    <g text-rendering="geometricPrecision" stroke-miterlimit="1.45" font-size="24px" shape-rendering="geometricPrecision" transform="matrix(1,0,0,1,-495,-203)" stroke-linecap="butt">
      <text x="535.957" xml:space="preserve" y="248.3086" clip-path="url(#clipPath2)" stroke="none">:</text>
    </g>
    <g text-rendering="geometricPrecision" stroke-miterlimit="1.45" font-size="24px" shape-rendering="geometricPrecision" transform="matrix(1,0,0,1,-495,-203)" stroke-linecap="butt">
      <text x="565.957" xml:space="preserve" y="278.3086" clip-path="url(#clipPath2)" stroke="none">:</text>
      <text x="595.957" xml:space="preserve" y="308.3086" clip-path="url(#clipPath2)" stroke="none">:</text>
      <text x="625.957" xml:space="preserve" y="338.3086" clip-path="url(#clipPath2)" stroke="none">:</text>
      <text x="655.957" xml:space="preserve" y="368.3086" clip-path="url(#clipPath2)" stroke="none">:</text>
      <text x="680.6367" xml:space="preserve" y="398.3086" clip-path="url(#clipPath2)" stroke="none">[]</text>
      <text x="502.3652" xml:space="preserve" y="278.3086" clip-path="url(#clipPath2)" stroke="none">1</text>
      <text x="532.3652" xml:space="preserve" y="308.3086" clip-path="url(#clipPath2)" stroke="none">2</text>
      <text x="562.3652" xml:space="preserve" y="338.3086" clip-path="url(#clipPath2)" stroke="none">3</text>
      <text x="592.3652" xml:space="preserve" y="368.3086" clip-path="url(#clipPath2)" stroke="none">4</text>
      <text x="622.3652" xml:space="preserve" y="398.3086" clip-path="url(#clipPath2)" stroke="none">5</text>
      <text x="675.5749" xml:space="preserve" y="227.9806" clip-path="url(#clipPath2)" stroke="none">foldr f z</text>
      <text x="875.1462" xml:space="preserve" y="248.3086" clip-path="url(#clipPath2)" stroke="none">f</text>
      <circle fill="none" r="15" clip-path="url(#clipPath2)" cx="879.3709" cy="240"/>
      <text x="905.1462" xml:space="preserve" y="278.3086" clip-path="url(#clipPath2)" stroke="none">f</text>
      <circle fill="none" r="15" clip-path="url(#clipPath2)" cx="909.3709" cy="270"/>
      <text x="935.1462" xml:space="preserve" y="308.3086" clip-path="url(#clipPath2)" stroke="none">f</text>
      <circle fill="none" r="15" clip-path="url(#clipPath2)" cx="939.3709" cy="300"/>
      <text x="965.1462" xml:space="preserve" y="338.3086" clip-path="url(#clipPath2)" stroke="none">f</text>
      <circle fill="none" r="15" clip-path="url(#clipPath2)" cx="969.3709" cy="330"/>
      <text x="995.1462" xml:space="preserve" y="368.3086" clip-path="url(#clipPath2)" stroke="none">f</text>
      <circle fill="none" r="15" clip-path="url(#clipPath2)" cx="999.3709" cy="360"/>
      <text x="1023.072" xml:space="preserve" y="398.3086" clip-path="url(#clipPath2)" stroke="none">z</text>
      <text x="841.7361" xml:space="preserve" y="278.3086" clip-path="url(#clipPath2)" stroke="none">1</text>
      <text x="871.7361" xml:space="preserve" y="308.3086" clip-path="url(#clipPath2)" stroke="none">2</text>
      <text x="901.7361" xml:space="preserve" y="338.3086" clip-path="url(#clipPath2)" stroke="none">3</text>
      <text x="931.7361" xml:space="preserve" y="368.3086" clip-path="url(#clipPath2)" stroke="none">4</text>
      <text x="961.7361" xml:space="preserve" y="398.3086" clip-path="url(#clipPath2)" stroke="none">5</text>
      <path fill="none" d="M555.0378 237.4232 L555.0825 237.4175 L557.8125 237.1875 L560.3863 237.1137 L562.7778 237.2222 L564.9609 237.5391 L566.9097 238.0903 L568.5981 238.9019 L570 240 L571.0981 241.4019 L571.9097 243.0903 L572.4609 245.0391 L572.7403 246.9639 L572.7377 247.0639" clip-path="url(#clipPath2)"/>
      <path d="M572.5748 255.0622 L577.8181 243.1665 L572.7581 246.0641 L567.8202 242.9629 Z" clip-path="url(#clipPath2)" stroke="none"/>
      <path fill="none" d="M585.0378 267.4232 L585.0825 267.4175 L587.8125 267.1875 L590.3863 267.1137 L592.7778 267.2222 L594.9609 267.5391 L596.9097 268.0903 L598.5981 268.9019 L600 270 L601.0981 271.4019 L601.9097 273.0903 L602.4609 275.0391 L602.7403 276.9639 L602.7377 277.0639" clip-path="url(#clipPath2)"/>
      <path d="M602.5748 285.0622 L607.8181 273.1665 L602.7581 276.0641 L597.8202 272.9629 Z" clip-path="url(#clipPath2)" stroke="none"/>
      <path fill="none" d="M615.0378 297.4232 L615.0825 297.4175 L617.8125 297.1875 L620.3863 297.1137 L622.7778 297.2222 L624.9609 297.5391 L626.9097 298.0903 L628.5981 298.9019 L630 300 L631.0981 301.4019 L631.9097 303.0903 L632.4609 305.0391 L632.7403 306.9639 L632.7377 307.0639" clip-path="url(#clipPath2)"/>
      <path d="M632.5748 315.0622 L637.8181 303.1665 L632.7581 306.0641 L627.8202 302.9629 Z" clip-path="url(#clipPath2)" stroke="none"/>
      <path fill="none" d="M645.0378 327.4232 L645.0825 327.4175 L647.8125 327.1875 L650.3863 327.1137 L652.7778 327.2222 L654.9609 327.5391 L656.9097 328.0903 L658.5981 328.9019 L660 330 L661.0981 331.4019 L661.9097 333.0903 L662.4609 335.0391 L662.7403 336.9639 L662.7377 337.0639" clip-path="url(#clipPath2)"/>
      <path d="M662.5748 345.0622 L667.8181 333.1665 L662.7581 336.0641 L657.8202 332.9629 Z" clip-path="url(#clipPath2)" stroke="none"/>
      <path fill="none" d="M675.0378 357.4232 L675.0825 357.4175 L677.8125 357.1875 L680.3863 357.1137 L682.7778 357.2222 L684.9609 357.5391 L686.9097 358.0903 L688.5981 358.9019 L690 360 L691.0981 361.4019 L691.9097 363.0903 L692.4609 365.0391 L692.7403 366.9639 L692.7377 367.0639" clip-path="url(#clipPath2)"/>
      <path d="M692.5748 375.0622 L697.8181 363.1665 L692.7581 366.0641 L687.8202 362.9629 Z" clip-path="url(#clipPath2)" stroke="none"/>
      <path fill="none" d="M524.9622 237.4232 L524.9175 237.4175 L522.1875 237.1875 L519.6137 237.1137 L517.2222 237.2222 L515.0391 237.5391 L513.0903 238.0903 L511.4019 238.9019 L510 240 L508.9019 241.4019 L508.0903 243.0903 L507.5391 245.0391 L507.2597 246.9639 L507.2623 247.0639" clip-path="url(#clipPath2)"/>
      <path d="M507.4252 255.0622 L512.1798 242.9629 L507.2419 246.0641 L502.1819 243.1665 Z" clip-path="url(#clipPath2)" stroke="none"/>
      <path fill="none" d="M554.9622 267.4232 L554.9175 267.4175 L552.1875 267.1875 L549.6137 267.1137 L547.2222 267.2222 L545.0391 267.5391 L543.0903 268.0903 L541.4019 268.9019 L540 270 L538.9019 271.4019 L538.0903 273.0903 L537.5391 275.0391 L537.2597 276.9639 L537.2623 277.0639" clip-path="url(#clipPath2)"/>
      <path d="M537.4252 285.0622 L542.1798 272.9629 L537.2419 276.0641 L532.1819 273.1665 Z" clip-path="url(#clipPath2)" stroke="none"/>
      <path fill="none" d="M584.9622 297.4232 L584.9175 297.4175 L582.1875 297.1875 L579.6137 297.1137 L577.2222 297.2222 L575.0391 297.5391 L573.0903 298.0903 L571.4019 298.9019 L570 300 L568.9019 301.4019 L568.0903 303.0903 L567.5391 305.0391 L567.2597 306.9639 L567.2623 307.0639" clip-path="url(#clipPath2)"/>
      <path d="M567.4252 315.0622 L572.1798 302.9629 L567.2419 306.0641 L562.1819 303.1665 Z" clip-path="url(#clipPath2)" stroke="none"/>
      <path fill="none" d="M614.9622 327.4232 L614.9175 327.4175 L612.1875 327.1875 L609.6137 327.1137 L607.2222 327.2222 L605.0391 327.5391 L603.0903 328.0903 L601.4019 328.9019 L600 330 L598.9019 331.4019 L598.0903 333.0903 L597.5391 335.0391 L597.2597 336.9639 L597.2623 337.0639" clip-path="url(#clipPath2)"/>
      <path d="M597.4252 345.0622 L602.1798 332.9629 L597.2419 336.0641 L592.1819 333.1665 Z" clip-path="url(#clipPath2)" stroke="none"/>
      <path fill="none" d="M644.974 357.1911 L644.9375 357.1875 L642.7167 357.1137 L640.6296 357.2222 L638.6953 357.5391 L636.9329 358.0903 L635.3614 358.9019 L634 360 L632.8614 361.4019 L631.9329 363.0903 L631.1953 365.0391 L630.6835 367.0143 L630.6725 367.1137" clip-path="url(#clipPath2)"/>
      <path d="M629.7604 375.0616 L636.096 363.7099 L630.7866 366.1202 L626.1612 362.5697 Z" clip-path="url(#clipPath2)" stroke="none"/>
      <path fill="none" d="M631.56 240 L826.3708 240" clip-path="url(#clipPath2)"/>
      <path d="M834.3708 240 L822.3708 235 L825.3708 240 L822.3708 245 Z" clip-path="url(#clipPath2)" stroke="none"/>
      <path fill="none" d="M901.9371 237.027 L902.0371 237.0278 L903.9609 237.3711 L905.9097 237.9873 L907.5981 238.8552 L909 240 L910.0981 241.4385 L910.9097 243.1539 L911.4609 245.1211 L911.7778 247.3148 L911.8863 249.7099 L911.8125 252.2812 L911.5825 255.0036 L911.5656 255.1371" clip-path="url(#clipPath2)"/>
      <path d="M893.9378 236.9231 L905.8718 242.0786 L902.9371 237.04 L906.0017 232.0794 Z" clip-path="url(#clipPath2)" stroke="none"/>
      <path fill="none" d="M932.0239 267.275 L932.1238 267.2725 L933.9609 267.5391 L935.9097 268.0903 L937.5981 268.9019 L939 270 L940.0981 271.4019 L940.9097 273.0903 L941.4609 275.0391 L941.7778 277.2222 L941.8863 279.6137 L941.8125 282.1875 L941.5825 284.9175 L941.5543 285.141" clip-path="url(#clipPath2)"/>
      <path d="M924.0251 267.4157 L936.1112 272.2038 L933.0237 267.2574 L935.9352 262.2054 Z" clip-path="url(#clipPath2)" stroke="none"/>
      <path fill="none" d="M962.0239 297.275 L962.1238 297.2725 L963.9609 297.5391 L965.9097 298.0903 L967.5981 298.9019 L969 300 L970.0981 301.4019 L970.9097 303.0903 L971.4609 305.0391 L971.7778 307.2222 L971.8863 309.6137 L971.8125 312.1875 L971.5825 314.9175 L971.5543 315.141" clip-path="url(#clipPath2)"/>
      <path d="M954.0251 297.4157 L966.1112 302.2038 L963.0237 297.2574 L965.9352 292.2054 Z" clip-path="url(#clipPath2)" stroke="none"/>
      <path fill="none" d="M992.0239 327.275 L992.1238 327.2725 L993.9609 327.5391 L995.9097 328.0903 L997.5981 328.9019 L999 330 L1000.0981 331.4019 L1000.9097 333.0903 L1001.4609 335.0391 L1001.7778 337.2222 L1001.8863 339.6137 L1001.8125 342.1875 L1001.5825 344.9175 L1001.5543 345.141" clip-path="url(#clipPath2)"/>
      <path d="M984.0251 327.4157 L996.1112 332.2038 L993.0237 327.2574 L995.9352 322.2054 Z" clip-path="url(#clipPath2)" stroke="none"/>
      <path fill="none" d="M1022.0239 357.275 L1022.1238 357.2725 L1023.9609 357.5391 L1025.9097 358.0903 L1027.5981 358.9019 L1029 360 L1030.0981 361.4019 L1030.9097 363.0903 L1031.4609 365.0391 L1031.7778 367.2222 L1031.8862 369.6137 L1031.8125 372.1875 L1031.5825 374.9175 L1031.5769 374.9622" clip-path="url(#clipPath2)"/>
      <path d="M1014.0251 357.4157 L1026.1112 362.2038 L1023.0237 357.2574 L1025.9353 352.2054 Z" clip-path="url(#clipPath2)" stroke="none"/>
      <path fill="none" d="M856.7774 236.9489 L856.6774 236.9456 L856.2222 236.9815 L854.0391 237.3711 L852.0903 237.9873 L850.4019 238.8552 L849 240 L847.9019 241.4385 L847.0903 243.1539 L846.5391 245.1211 L846.2222 247.3148 L846.1137 249.7099 L846.1875 252.2812 L846.4139 254.9611" clip-path="url(#clipPath2)"/>
      <path d="M864.7773 236.9912 L852.8039 231.9278 L855.7774 236.9436 L852.751 241.9277 Z" clip-path="url(#clipPath2)" stroke="none"/>
      <path fill="none" d="M886.6932 267.2119 L886.5934 267.2054 L886.2222 267.2222 L884.0391 267.5391 L882.0903 268.0903 L880.4019 268.9019 L879 270 L877.9019 271.4019 L877.0903 273.0903 L876.5391 275.0391 L876.2222 277.2222 L876.1137 279.6137 L876.1875 282.1875 L876.4175 284.9175 L876.4232 284.9622" clip-path="url(#clipPath2)"/>
      <path d="M894.6878 267.5056 L882.8795 262.0684 L885.6938 267.1751 L882.5123 272.0616 Z" clip-path="url(#clipPath2)" stroke="none"/>
      <path fill="none" d="M916.6932 297.2119 L916.5934 297.2054 L916.2222 297.2222 L914.0391 297.5391 L912.0903 298.0903 L910.4019 298.9019 L909 300 L907.9019 301.4019 L907.0903 303.0903 L906.5391 305.0391 L906.2222 307.2222 L906.1137 309.6137 L906.1875 312.1875 L906.4175 314.9175 L906.4232 314.9622" clip-path="url(#clipPath2)"/>
      <path d="M924.6878 297.5056 L912.8795 292.0684 L915.6938 297.1751 L912.5123 302.0616 Z" clip-path="url(#clipPath2)" stroke="none"/>
      <path fill="none" d="M946.6932 327.2119 L946.5934 327.2054 L946.2222 327.2222 L944.0391 327.5391 L942.0903 328.0903 L940.4019 328.9019 L939 330 L937.9019 331.4019 L937.0903 333.0903 L936.5391 335.0391 L936.2222 337.2222 L936.1137 339.6137 L936.1875 342.1875 L936.4175 344.9175 L936.4232 344.9622" clip-path="url(#clipPath2)"/>
      <path d="M954.6878 327.5056 L942.8795 322.0684 L945.6938 327.1751 L942.5123 332.0616 Z" clip-path="url(#clipPath2)" stroke="none"/>
      <path fill="none" d="M976.7539 357.8607 L976.654 357.8647 L975.9329 358.0903 L974.3614 358.9019 L973 360 L971.8614 361.4019 L970.9329 363.0903 L970.1953 365.0391 L969.6296 367.2222 L969.2167 369.6137 L968.9375 372.1875 L968.7729 374.9175 L968.7718 374.9622" clip-path="url(#clipPath2)"/>
      <path d="M984.7304 357.2481 L972.3828 353.1816 L975.7568 357.9372 L973.1484 363.1522 Z" clip-path="url(#clipPath2)" stroke="none"/>
    </g>
  </g>
</svg>
