<?xml version="1.0" encoding="UTF-8"?><svg xmlns="http://www.w3.org/2000/svg" xmlns:xlink="http://www.w3.org/1999/xlink" fill-opacity="1" color-rendering="auto" color-interpolation="auto" text-rendering="auto" stroke="black" stroke-linecap="square" width="510" stroke-miterlimit="10" shape-rendering="auto" stroke-opacity="1" fill="black" stroke-dasharray="none" font-weight="normal" stroke-width="1" height="203" font-family="'Dialog'" font-style="normal" stroke-linejoin="miter" font-size="12px" stroke-dashoffset="0" image-rendering="auto">
  <!--Generated by ySVG 2.5-->
  <defs id="genericDefs"/>
  <g>
    <defs id="defs1">
      <clipPath clipPathUnits="userSpaceOnUse" id="clipPath1">
        <path d="M0 0 L510 0 L510 203 L0 203 L0 0 Z"/>
      </clipPath>
      <clipPath clipPathUnits="userSpaceOnUse" id="clipPath2">
        <path d="M525 248 L1035 248 L1035 451 L525 451 L525 248 Z"/>
      </clipPath>
    </defs>
    <g text-rendering="geometricPrecision" stroke-miterlimit="1.45" font-size="24px" shape-rendering="geometricPrecision" transform="matrix(1,0,0,1,-525,-248)" stroke-linecap="butt">
      <text x="565.957" xml:space="preserve" y="292.9806" clip-path="url(#clipPath2)" stroke="none">:</text>
    </g>
    <g text-rendering="geometricPrecision" stroke-miterlimit="1.45" font-size="24px" shape-rendering="geometricPrecision" transform="matrix(1,0,0,1,-525,-248)" stroke-linecap="butt">
      <text x="595.957" xml:space="preserve" y="322.9806" clip-path="url(#clipPath2)" stroke="none">:</text>
      <text x="625.957" xml:space="preserve" y="352.9806" clip-path="url(#clipPath2)" stroke="none">:</text>
      <text x="655.957" xml:space="preserve" y="382.9806" clip-path="url(#clipPath2)" stroke="none">:</text>
      <text x="685.957" xml:space="preserve" y="412.9806" clip-path="url(#clipPath2)" stroke="none">:</text>
      <text x="710.6367" xml:space="preserve" y="442.9806" clip-path="url(#clipPath2)" stroke="none">[]</text>
      <text x="532.3652" xml:space="preserve" y="322.9806" clip-path="url(#clipPath2)" stroke="none">1</text>
      <text x="562.3652" xml:space="preserve" y="352.9806" clip-path="url(#clipPath2)" stroke="none">2</text>
      <text x="592.3652" xml:space="preserve" y="382.9806" clip-path="url(#clipPath2)" stroke="none">3</text>
      <text x="622.3652" xml:space="preserve" y="412.9806" clip-path="url(#clipPath2)" stroke="none">4</text>
      <text x="652.3652" xml:space="preserve" y="442.9806" clip-path="url(#clipPath2)" stroke="none">5</text>
      <text x="707.6389" xml:space="preserve" y="272.6526" clip-path="url(#clipPath2)" stroke="none">foldl f z</text>
      <text x="990.4608" xml:space="preserve" y="292.9806" clip-path="url(#clipPath2)" stroke="none">f</text>
      <circle fill="none" r="15" clip-path="url(#clipPath2)" cx="994.6854" cy="284.672"/>
      <text x="960.4608" xml:space="preserve" y="322.9806" clip-path="url(#clipPath2)" stroke="none">f</text>
      <circle fill="none" r="15" clip-path="url(#clipPath2)" cx="964.6854" cy="314.672"/>
      <text x="930.4608" xml:space="preserve" y="352.9806" clip-path="url(#clipPath2)" stroke="none">f</text>
      <circle fill="none" r="15" clip-path="url(#clipPath2)" cx="934.6854" cy="344.672"/>
      <text x="900.4608" xml:space="preserve" y="382.9806" clip-path="url(#clipPath2)" stroke="none">f</text>
      <circle fill="none" r="15" clip-path="url(#clipPath2)" cx="904.6854" cy="374.672"/>
      <text x="870.4608" xml:space="preserve" y="412.9806" clip-path="url(#clipPath2)" stroke="none">f</text>
      <circle fill="none" r="15" clip-path="url(#clipPath2)" cx="874.6854" cy="404.672"/>
      <text x="897.0507" xml:space="preserve" y="442.9806" clip-path="url(#clipPath2)" stroke="none">1</text>
      <text x="1012.3652" xml:space="preserve" y="322.9806" clip-path="url(#clipPath2)" stroke="none">5</text>
      <text x="982.3652" xml:space="preserve" y="352.9806" clip-path="url(#clipPath2)" stroke="none">4</text>
      <text x="952.3652" xml:space="preserve" y="382.9806" clip-path="url(#clipPath2)" stroke="none">3</text>
      <text x="927.0507" xml:space="preserve" y="412.9806" clip-path="url(#clipPath2)" stroke="none">2</text>
      <text x="838.3866" xml:space="preserve" y="442.9806" clip-path="url(#clipPath2)" stroke="none">z</text>
      <path fill="none" d="M585.0378 281.4232 L585.0825 281.4175 L587.8125 281.1875 L590.3863 281.1137 L592.7778 281.2222 L594.9609 281.5391 L596.9097 282.0903 L598.5981 282.9019 L600 284 L601.0981 285.4019 L601.9097 287.0903 L602.4609 289.0391 L602.7778 291.2222 L602.7987 291.6833 L602.7921 291.7831" clip-path="url(#clipPath2)"/>
      <path d="M602.4829 299.7772 L607.943 287.9794 L602.8308 290.7839 L597.9505 287.5929 Z" clip-path="url(#clipPath2)" stroke="none"/>
      <path fill="none" d="M615.0378 311.4232 L615.0825 311.4175 L617.8125 311.1875 L620.3863 311.1137 L622.7778 311.2222 L624.9609 311.5391 L626.9097 312.0903 L628.5981 312.9019 L630 314 L631.0981 315.4019 L631.9097 317.0903 L632.4609 319.0391 L632.7778 321.2222 L632.7987 321.6833 L632.7921 321.7831" clip-path="url(#clipPath2)"/>
      <path d="M632.4829 329.7772 L637.943 317.9794 L632.8308 320.7839 L627.9505 317.5929 Z" clip-path="url(#clipPath2)" stroke="none"/>
      <path fill="none" d="M645.0378 341.4232 L645.0825 341.4175 L647.8125 341.1875 L650.3863 341.1137 L652.7778 341.2222 L654.9609 341.5391 L656.9097 342.0903 L658.5981 342.9019 L660 344 L661.0981 345.4019 L661.9097 347.0903 L662.4609 349.0391 L662.7778 351.2222 L662.7987 351.6833 L662.7921 351.7831" clip-path="url(#clipPath2)"/>
      <path d="M662.4829 359.7772 L667.943 347.9794 L662.8308 350.7839 L657.9505 347.5929 Z" clip-path="url(#clipPath2)" stroke="none"/>
      <path fill="none" d="M675.0378 371.4232 L675.0825 371.4175 L677.8125 371.1875 L680.3863 371.1137 L682.7778 371.2222 L684.9609 371.5391 L686.9097 372.0903 L688.5981 372.9019 L690 374 L691.0981 375.4019 L691.9097 377.0903 L692.4609 379.0391 L692.7778 381.2222 L692.7987 381.6833 L692.7921 381.7831" clip-path="url(#clipPath2)"/>
      <path d="M692.4829 389.7772 L697.943 377.9794 L692.8308 380.7839 L687.9505 377.5929 Z" clip-path="url(#clipPath2)" stroke="none"/>
      <path fill="none" d="M705.0378 401.4232 L705.0825 401.4175 L707.8125 401.1875 L710.3863 401.1137 L712.7778 401.2222 L714.9609 401.5391 L716.9097 402.0903 L718.5981 402.9019 L720 404 L721.0981 405.4019 L721.9097 407.0903 L722.4609 409.0391 L722.7778 411.2222 L722.7987 411.6833 L722.7921 411.7831" clip-path="url(#clipPath2)"/>
      <path d="M722.4829 419.7772 L727.943 407.9794 L722.8308 410.7839 L717.9505 407.5929 Z" clip-path="url(#clipPath2)" stroke="none"/>
      <path fill="none" d="M554.9622 281.4232 L554.9175 281.4175 L552.1875 281.1875 L549.6137 281.1137 L547.2222 281.2222 L545.0391 281.5391 L543.0903 282.0903 L541.4019 282.9019 L540 284 L538.9019 285.4019 L538.0903 287.0903 L537.5391 289.0391 L537.2222 291.2222 L537.2013 291.6833 L537.2079 291.7831" clip-path="url(#clipPath2)"/>
      <path d="M537.5171 299.7772 L542.0495 287.5929 L537.1692 290.7839 L532.057 287.9794 Z" clip-path="url(#clipPath2)" stroke="none"/>
      <path fill="none" d="M584.9622 311.4232 L584.9175 311.4175 L582.1875 311.1875 L579.6137 311.1137 L577.2222 311.2222 L575.0391 311.5391 L573.0903 312.0903 L571.4019 312.9019 L570 314 L568.9019 315.4019 L568.0903 317.0903 L567.5391 319.0391 L567.2222 321.2222 L567.2013 321.6833 L567.2079 321.7831" clip-path="url(#clipPath2)"/>
      <path d="M567.5171 329.7772 L572.0495 317.5929 L567.1692 320.7839 L562.057 317.9794 Z" clip-path="url(#clipPath2)" stroke="none"/>
      <path fill="none" d="M614.9622 341.4232 L614.9175 341.4175 L612.1875 341.1875 L609.6137 341.1137 L607.2222 341.2222 L605.0391 341.5391 L603.0903 342.0903 L601.4019 342.9019 L600 344 L598.9019 345.4019 L598.0903 347.0903 L597.5391 349.0391 L597.2222 351.2222 L597.2013 351.6833 L597.2079 351.7831" clip-path="url(#clipPath2)"/>
      <path d="M597.5171 359.7772 L602.0495 347.5929 L597.1692 350.7839 L592.057 347.9794 Z" clip-path="url(#clipPath2)" stroke="none"/>
      <path fill="none" d="M644.9622 371.4232 L644.9175 371.4175 L642.1875 371.1875 L639.6137 371.1137 L637.2222 371.2222 L635.0391 371.5391 L633.0903 372.0903 L631.4019 372.9019 L630 374 L628.9019 375.4019 L628.0903 377.0903 L627.5391 379.0391 L627.2222 381.2222 L627.2013 381.6833 L627.2079 381.7831" clip-path="url(#clipPath2)"/>
      <path d="M627.5171 389.7772 L632.0495 377.5929 L627.1692 380.7839 L622.057 377.9794 Z" clip-path="url(#clipPath2)" stroke="none"/>
      <path fill="none" d="M674.974 401.1911 L674.9375 401.1875 L672.7167 401.1137 L670.6296 401.2222 L668.6953 401.5391 L666.9329 402.0903 L665.3614 402.9019 L664 404 L662.8614 405.4019 L661.9329 407.0903 L661.1953 409.0391 L660.6296 411.2222 L660.5443 411.7164 L660.5367 411.8161" clip-path="url(#clipPath2)"/>
      <path d="M659.7446 419.7768 L665.9081 408.3307 L660.6357 410.821 L655.9573 407.3407 Z" clip-path="url(#clipPath2)" stroke="none"/>
      <path fill="none" d="M661.56 284.672 L856.3708 284.672" clip-path="url(#clipPath2)"/>
      <path d="M864.3708 284.672 L852.3708 279.672 L855.3708 284.672 L852.3708 289.672 Z" clip-path="url(#clipPath2)" stroke="none"/>
      <path fill="none" d="M972.1432 281.1919 L972.0435 281.185 L971.2222 281.2222 L969.0391 281.5391 L967.0903 282.0903 L965.4019 282.9019 L964 284 L962.9019 285.4019 L962.0903 287.0903 L961.5391 289.0391 L961.2222 291.2222 L961.1137 293.6137 L961.1875 296.1875 L961.4175 298.9175 L961.5582 300.0348" clip-path="url(#clipPath2)"/>
      <path d="M980.1346 281.5629 L968.3795 276.0117 L971.1443 281.1455 L967.9156 286.001 Z" clip-path="url(#clipPath2)" stroke="none"/>
      <path fill="none" d="M942.1432 311.1919 L942.0435 311.185 L941.2222 311.2222 L939.0391 311.5391 L937.0903 312.0903 L935.4019 312.9019 L934 314 L932.9019 315.4019 L932.0903 317.0903 L931.5391 319.0391 L931.2222 321.2222 L931.1137 323.6137 L931.1875 326.1875 L931.4175 328.9175 L931.5582 330.0348" clip-path="url(#clipPath2)"/>
      <path d="M950.1346 311.5629 L938.3795 306.0117 L941.1443 311.1455 L937.9156 316.001 Z" clip-path="url(#clipPath2)" stroke="none"/>
      <path fill="none" d="M912.1432 341.1919 L912.0435 341.185 L911.2222 341.2222 L909.0391 341.5391 L907.0903 342.0903 L905.4019 342.9019 L904 344 L902.9019 345.4019 L902.0903 347.0903 L901.5391 349.0391 L901.2222 351.2222 L901.1137 353.6137 L901.1875 356.1875 L901.4175 358.9175 L901.5582 360.0348" clip-path="url(#clipPath2)"/>
      <path d="M920.1346 341.5629 L908.3795 336.0117 L911.1443 341.1455 L907.9156 346.001 Z" clip-path="url(#clipPath2)" stroke="none"/>
      <path fill="none" d="M882.1387 371.5003 L882.0388 371.4982 L881.7812 371.5391 L879.9722 372.0903 L878.3715 372.9019 L877 374 L875.8715 375.4019 L874.9722 377.0903 L874.2812 379.0391 L873.7778 381.2222 L873.441 383.6137 L873.25 386.1875 L873.184 388.9175 L873.1954 389.7667" clip-path="url(#clipPath2)"/>
      <path d="M890.1374 371.3546 L878.0483 366.574 L881.1389 371.5185 L878.2305 376.5724 Z" clip-path="url(#clipPath2)" stroke="none"/>
      <path fill="none" d="M897.1951 401.2997 L897.295 401.2973 L898.9609 401.5391 L900.9097 402.0903 L902.5981 402.9019 L904 404 L905.0981 405.4019 L905.9097 407.0903 L906.4609 409.0391 L906.7778 411.2222 L906.8863 413.6137 L906.8125 416.1875 L906.5825 418.9175 L906.4868 419.6773" clip-path="url(#clipPath2)"/>
      <path d="M889.1957 401.4008 L901.2579 406.2487 L898.1949 401.287 L901.1315 396.2495 Z" clip-path="url(#clipPath2)" stroke="none"/>
      <path fill="none" d="M1017.1882 281.2456 L1017.2881 281.243 L1019.2891 281.5391 L1021.1644 282.0903 L1022.7445 282.9019 L1024 284 L1024.9111 285.4019 L1025.4977 287.0903 L1025.7891 289.0391 L1025.8148 291.2222 L1025.6045 293.6137 L1025.1875 296.1875 L1024.5935 298.9175 L1024.3965 299.6773" clip-path="url(#clipPath2)"/>
      <path d="M1009.1904 281.4368 L1021.3065 286.1486 L1018.1879 281.2217 L1021.0675 276.1515 Z" clip-path="url(#clipPath2)" stroke="none"/>
      <path fill="none" d="M987.2375 311.5083 L987.3375 311.5066 L987.543 311.5391 L989.3067 312.0903 L990.8013 312.9019 L992 314 L992.8847 315.4019 L993.4734 317.0903 L993.793 319.0391 L993.8704 321.2222 L993.7325 323.6137 L993.4062 326.1875 L992.9185 328.9175 L992.7532 329.6773" clip-path="url(#clipPath2)"/>
      <path d="M979.2396 311.3254 L991.1221 316.5985 L988.2372 311.5312 L991.3508 306.6011 Z" clip-path="url(#clipPath2)" stroke="none"/>
      <path fill="none" d="M957.1998 341.7744 L957.2997 341.7782 L958.2824 342.0903 L959.7749 342.9019 L961 344 L961.9415 345.4019 L962.6157 347.0903 L963.0469 349.0391 L963.2593 351.2222 L963.2772 353.6137 L963.125 356.1875 L962.827 358.9175 L962.7155 359.6773" clip-path="url(#clipPath2)"/>
      <path d="M949.2166 341.2565 L960.8677 347.0228 L958.1977 341.8391 L961.515 337.0438 Z" clip-path="url(#clipPath2)" stroke="none"/>
      <path fill="none" d="M927.1951 371.2997 L927.295 371.2973 L928.9609 371.5391 L930.9097 372.0903 L932.5981 372.9019 L934 374 L935.0981 375.4019 L935.9097 377.0903 L936.4609 379.0391 L936.7778 381.2222 L936.8863 383.6137 L936.8125 386.1875 L936.5825 388.9175 L936.4868 389.6773" clip-path="url(#clipPath2)"/>
      <path d="M919.1957 371.4008 L931.2579 376.2487 L928.1949 371.287 L931.1315 366.2495 Z" clip-path="url(#clipPath2)" stroke="none"/>
      <path fill="none" d="M852.1432 401.1919 L852.0435 401.185 L851.2222 401.2222 L849.0391 401.5391 L847.0903 402.0903 L845.4019 402.9019 L844 404 L842.9019 405.4019 L842.0903 407.0903 L841.5391 409.0391 L841.2222 411.2222 L841.1137 413.6137 L841.1875 416.1875 L841.4175 418.9175 L841.5132 419.6773" clip-path="url(#clipPath2)"/>
      <path d="M860.1346 401.5629 L848.3795 396.0117 L851.1443 401.1455 L847.9156 406.001 Z" clip-path="url(#clipPath2)" stroke="none"/>
    </g>
  </g>
</svg>
