<?xml version="1.0" encoding="UTF-8"?><svg xmlns="http://www.w3.org/2000/svg" xmlns:xlink="http://www.w3.org/1999/xlink" fill-opacity="1" color-rendering="auto" color-interpolation="auto" text-rendering="auto" stroke="black" stroke-linecap="square" width="783" stroke-miterlimit="10" shape-rendering="auto" stroke-opacity="1" fill="black" stroke-dasharray="none" font-weight="normal" stroke-width="1" height="217" font-family="'Dialog'" font-style="normal" stroke-linejoin="miter" font-size="12px" stroke-dashoffset="0" image-rendering="auto">
  <!--Generated by ySVG 2.5-->
  <defs id="genericDefs"/>
  <g>
    <defs id="defs1">
      <clipPath clipPathUnits="userSpaceOnUse" id="clipPath1">
        <path d="M0 0 L783 0 L783 217 L0 217 L0 0 Z"/>
      </clipPath>
      <clipPath clipPathUnits="userSpaceOnUse" id="clipPath2">
        <path d="M146 230 L929 230 L929 447 L146 447 L146 230 Z"/>
      </clipPath>
      <clipPath clipPathUnits="userSpaceOnUse" id="clipPath3">
        <path d="M142 226 L925 226 L925 443 L142 443 L142 226 Z"/>
      </clipPath>
    </defs>
    <g fill="rgb(204,255,204)" text-rendering="geometricPrecision" shape-rendering="geometricPrecision" transform="matrix(1,0,0,1,-146,-230)" stroke="rgb(204,255,204)">
      <rect x="310.8" width="123" height="39" y="271.5" clip-path="url(#clipPath2)" stroke="none"/>
    </g>
    <g font-size="18px" stroke-linecap="butt" transform="matrix(1,0,0,1,-146,-230)" text-rendering="geometricPrecision" font-family="'Fira Sans'" shape-rendering="geometricPrecision" font-weight="bold" stroke-miterlimit="1.45">
      <text x="332.1371" xml:space="preserve" y="297.0267" clip-path="url(#clipPath2)" stroke="none">foo frame</text>
      <rect fill="none" x="310.8" width="123" height="39" y="271.5" clip-path="url(#clipPath2)"/>
    </g>
    <g fill="green" text-rendering="geometricPrecision" shape-rendering="geometricPrecision" transform="matrix(1,0,0,1,-146,-230)" stroke="green">
      <rect x="310.8" width="123" height="39" y="233.0057" clip-path="url(#clipPath2)" stroke="none"/>
    </g>
    <g font-size="18px" stroke-linecap="butt" transform="matrix(1,0,0,1,-146,-230)" text-rendering="geometricPrecision" font-family="'Fira Sans'" shape-rendering="geometricPrecision" font-weight="bold" stroke-miterlimit="1.45">
      <text x="332.1371" xml:space="preserve" y="258.5324" clip-path="url(#clipPath2)" stroke="none">foo frame</text>
      <rect fill="none" x="310.8" width="123" height="39" y="233.0057" clip-path="url(#clipPath2)"/>
    </g>
    <g fill="rgb(204,255,204)" text-rendering="geometricPrecision" shape-rendering="geometricPrecision" transform="matrix(1,0,0,1,-146,-230)" stroke="rgb(204,255,204)">
      <rect x="310.8" width="123" height="39" y="310.5" clip-path="url(#clipPath2)" stroke="none"/>
    </g>
    <g font-size="18px" stroke-linecap="butt" transform="matrix(1,0,0,1,-146,-230)" text-rendering="geometricPrecision" font-family="'Fira Sans'" shape-rendering="geometricPrecision" font-weight="bold" stroke-miterlimit="1.45">
      <text x="332.1371" xml:space="preserve" y="336.0267" clip-path="url(#clipPath2)" stroke="none">foo frame</text>
      <rect fill="none" x="310.8" width="123" height="39" y="310.5" clip-path="url(#clipPath2)"/>
    </g>
    <g fill="silver" text-rendering="geometricPrecision" shape-rendering="geometricPrecision" transform="matrix(1,0,0,1,-146,-230)" stroke="silver">
      <rect x="310.8" width="123" height="39" y="349.5" clip-path="url(#clipPath2)" stroke="none"/>
    </g>
    <g font-size="18px" stroke-linecap="butt" transform="matrix(1,0,0,1,-146,-230)" text-rendering="geometricPrecision" font-family="'Fira Sans'" shape-rendering="geometricPrecision" font-weight="bold" stroke-miterlimit="1.45">
      <text x="343.0031" xml:space="preserve" y="375.0267" clip-path="url(#clipPath2)" stroke="none">Stack...</text>
      <rect fill="none" x="310.8" width="123" height="39" y="349.5" clip-path="url(#clipPath2)"/>
    </g>
    <g fill="rgb(210,210,210)" text-rendering="geometricPrecision" shape-rendering="geometricPrecision" transform="matrix(1,0,0,1,-146,-230) translate(4,4)" stroke="rgb(210,210,210)">
      <rect x="487.9415" width="254.0585" height="211.5881" y="230.9119" clip-path="url(#clipPath3)" stroke="none"/>
    </g>
    <g fill="rgb(242,240,216)" text-rendering="geometricPrecision" shape-rendering="geometricPrecision" transform="matrix(1,0,0,1,-146,-230)" stroke="rgb(242,240,216)">
      <rect x="487.9415" width="254.0585" height="211.5881" y="230.9119" clip-path="url(#clipPath2)" stroke="none"/>
      <rect x="487.9415" y="230.9119" clip-path="url(#clipPath2)" fill="rgb(183,182,158)" width="254.0585" height="25.5881" stroke="none"/>
    </g>
    <g font-size="18px" stroke-linecap="butt" transform="matrix(1,0,0,1,-146,-230)" text-rendering="geometricPrecision" font-family="'Fira Sans'" shape-rendering="geometricPrecision" font-weight="bold" stroke-miterlimit="1.45">
      <text x="659.6741" xml:space="preserve" y="249.7326" clip-path="url(#clipPath2)" stroke="none">foo frame</text>
      <rect fill="none" x="487.9415" width="254.0585" height="211.5881" y="230.9119" clip-path="url(#clipPath2)"/>
    </g>
    <g fill="rgb(204,255,204)" text-rendering="geometricPrecision" shape-rendering="geometricPrecision" transform="matrix(1,0,0,1,-146,-230)" stroke="rgb(204,255,204)">
      <rect x="532" width="168" height="39" y="349.5" clip-path="url(#clipPath2)" stroke="none"/>
    </g>
    <g font-size="18px" stroke-linecap="butt" transform="matrix(1,0,0,1,-146,-230)" text-rendering="geometricPrecision" font-family="'Fira Sans'" shape-rendering="geometricPrecision" font-weight="bold" stroke-miterlimit="1.45">
      <text x="554.8606" xml:space="preserve" y="375.0267" clip-path="url(#clipPath2)" stroke="none">return address</text>
      <rect fill="none" x="532" width="168" height="39" y="349.5" clip-path="url(#clipPath2)"/>
    </g>
    <g fill="rgb(204,255,204)" text-rendering="geometricPrecision" shape-rendering="geometricPrecision" transform="matrix(1,0,0,1,-146,-230)" stroke="rgb(204,255,204)">
      <rect x="532" width="168" height="39" y="271.5" clip-path="url(#clipPath2)" stroke="none"/>
    </g>
    <g font-size="18px" stroke-linecap="butt" transform="matrix(1,0,0,1,-146,-230)" text-rendering="geometricPrecision" font-family="'Fira Sans'" shape-rendering="geometricPrecision" font-weight="bold" stroke-miterlimit="1.45">
      <text x="571.7713" xml:space="preserve" y="297.0267" clip-path="url(#clipPath2)" stroke="none">arguments</text>
      <rect fill="none" x="532" width="168" height="39" y="271.5" clip-path="url(#clipPath2)"/>
    </g>
    <g fill="rgb(204,255,204)" text-rendering="geometricPrecision" shape-rendering="geometricPrecision" transform="matrix(1,0,0,1,-146,-230)" stroke="rgb(204,255,204)">
      <rect x="532" width="168" height="39" y="310.5" clip-path="url(#clipPath2)" stroke="none"/>
    </g>
    <g font-size="18px" stroke-linecap="butt" transform="matrix(1,0,0,1,-146,-230)" text-rendering="geometricPrecision" font-family="'Fira Sans'" shape-rendering="geometricPrecision" font-weight="bold" stroke-miterlimit="1.45">
      <text x="591.8213" xml:space="preserve" y="336.0267" clip-path="url(#clipPath2)" stroke="none">locals</text>
      <rect fill="none" x="532" width="168" height="39" y="310.5" clip-path="url(#clipPath2)"/>
    </g>
    <g fill="rgb(204,255,204)" text-rendering="geometricPrecision" shape-rendering="geometricPrecision" transform="matrix(1,0,0,1,-146,-230)" stroke="rgb(204,255,204)">
      <rect x="532" width="168" height="39" y="388.5" clip-path="url(#clipPath2)" stroke="none"/>
    </g>
    <g font-size="18px" stroke-linecap="butt" transform="matrix(1,0,0,1,-146,-230)" text-rendering="geometricPrecision" font-family="'Fira Sans'" shape-rendering="geometricPrecision" font-weight="bold" stroke-miterlimit="1.45">
      <text x="591.7763" xml:space="preserve" y="414.0267" clip-path="url(#clipPath2)" stroke="none">result</text>
      <rect fill="none" x="532" width="168" height="39" y="388.5" clip-path="url(#clipPath2)"/>
    </g>
    <g text-rendering="geometricPrecision" stroke-miterlimit="1.45" stroke-width="7" shape-rendering="geometricPrecision" transform="matrix(1,0,0,1,-146,-230)" stroke-linecap="butt">
      <path fill="none" d="M433.8 298.3712 L461.8997 301.7392" clip-path="url(#clipPath2)"/>
      <path fill="white" d="M487.9631 304.8631 L461.4117 291.1056 L458.9126 311.9563 Z" clip-path="url(#clipPath2)" stroke="none"/>
      <path fill="none" d="M487.9631 304.8631 L461.4117 291.1056 L458.9126 311.9563 Z" stroke-width="1" clip-path="url(#clipPath2)"/>
    </g>
  </g>
</svg>
