<?xml version="1.0" encoding="UTF-8"?><svg xmlns="http://www.w3.org/2000/svg" xmlns:xlink="http://www.w3.org/1999/xlink" fill-opacity="1" color-rendering="auto" color-interpolation="auto" text-rendering="auto" stroke="black" stroke-linecap="square" width="664" stroke-miterlimit="10" shape-rendering="auto" stroke-opacity="1" fill="black" stroke-dasharray="none" font-weight="normal" stroke-width="1" height="188" font-family="'Dialog'" font-style="normal" stroke-linejoin="miter" font-size="12px" stroke-dashoffset="0" image-rendering="auto">
  <!--Generated by ySVG 2.5-->
  <defs id="genericDefs"/>
  <g>
    <defs id="defs1">
      <clipPath clipPathUnits="userSpaceOnUse" id="clipPath1">
        <path d="M0 0 L664 0 L664 188 L0 188 L0 0 Z"/>
      </clipPath>
      <clipPath clipPathUnits="userSpaceOnUse" id="clipPath2">
        <path d="M319 181 L983 181 L983 369 L319 369 L319 181 Z"/>
      </clipPath>
    </defs>
    <g fill="rgb(255,204,0)" text-rendering="geometricPrecision" shape-rendering="geometricPrecision" transform="matrix(1,0,0,1,-319,-181)" stroke="rgb(255,204,0)">
      <rect x="558" width="19" height="30" y="202" clip-path="url(#clipPath2)" stroke="none"/>
    </g>
    <g text-rendering="geometricPrecision" stroke-miterlimit="1.45" shape-rendering="geometricPrecision" transform="matrix(1,0,0,1,-319,-181)" stroke-linecap="butt">
      <rect fill="none" x="558" width="19" height="30" y="202" clip-path="url(#clipPath2)"/>
    </g>
    <g fill="rgb(0,204,255)" text-rendering="geometricPrecision" shape-rendering="geometricPrecision" transform="matrix(1,0,0,1,-319,-181)" stroke="rgb(0,204,255)">
      <rect x="577" width="19" height="30" y="202" clip-path="url(#clipPath2)" stroke="none"/>
    </g>
    <g text-rendering="geometricPrecision" stroke-miterlimit="1.45" shape-rendering="geometricPrecision" transform="matrix(1,0,0,1,-319,-181)" stroke-linecap="butt">
      <rect fill="none" x="577" width="19" height="30" y="202" clip-path="url(#clipPath2)"/>
    </g>
    <g fill="rgb(0,204,255)" text-rendering="geometricPrecision" shape-rendering="geometricPrecision" transform="matrix(1,0,0,1,-319,-181)" stroke="rgb(0,204,255)">
      <rect x="596" width="19" height="30" y="202" clip-path="url(#clipPath2)" stroke="none"/>
    </g>
    <g text-rendering="geometricPrecision" stroke-miterlimit="1.45" shape-rendering="geometricPrecision" transform="matrix(1,0,0,1,-319,-181)" stroke-linecap="butt">
      <rect fill="none" x="596" width="19" height="30" y="202" clip-path="url(#clipPath2)"/>
    </g>
    <g fill="rgb(0,204,255)" text-rendering="geometricPrecision" shape-rendering="geometricPrecision" transform="matrix(1,0,0,1,-319,-181)" stroke="rgb(0,204,255)">
      <rect x="615" width="19" height="30" y="202" clip-path="url(#clipPath2)" stroke="none"/>
    </g>
    <g text-rendering="geometricPrecision" stroke-miterlimit="1.45" shape-rendering="geometricPrecision" transform="matrix(1,0,0,1,-319,-181)" stroke-linecap="butt">
      <rect fill="none" x="615" width="19" height="30" y="202" clip-path="url(#clipPath2)"/>
    </g>
    <g fill="rgb(255,204,0)" text-rendering="geometricPrecision" shape-rendering="geometricPrecision" transform="matrix(1,0,0,1,-319,-181)" stroke="rgb(255,204,0)">
      <rect x="634" width="19" height="30" y="202" clip-path="url(#clipPath2)" stroke="none"/>
    </g>
    <g text-rendering="geometricPrecision" stroke-miterlimit="1.45" shape-rendering="geometricPrecision" transform="matrix(1,0,0,1,-319,-181)" stroke-linecap="butt">
      <rect fill="none" x="634" width="19" height="30" y="202" clip-path="url(#clipPath2)"/>
    </g>
    <g fill="rgb(0,204,255)" text-rendering="geometricPrecision" shape-rendering="geometricPrecision" transform="matrix(1,0,0,1,-319,-181)" stroke="rgb(0,204,255)">
      <rect x="653" width="19" height="30" y="202" clip-path="url(#clipPath2)" stroke="none"/>
    </g>
    <g text-rendering="geometricPrecision" stroke-miterlimit="1.45" shape-rendering="geometricPrecision" transform="matrix(1,0,0,1,-319,-181)" stroke-linecap="butt">
      <rect fill="none" x="653" width="19" height="30" y="202" clip-path="url(#clipPath2)"/>
    </g>
    <g fill="rgb(0,204,255)" text-rendering="geometricPrecision" shape-rendering="geometricPrecision" transform="matrix(1,0,0,1,-319,-181)" stroke="rgb(0,204,255)">
      <rect x="672" width="19" height="30" y="202" clip-path="url(#clipPath2)" stroke="none"/>
    </g>
    <g text-rendering="geometricPrecision" stroke-miterlimit="1.45" shape-rendering="geometricPrecision" transform="matrix(1,0,0,1,-319,-181)" stroke-linecap="butt">
      <rect fill="none" x="672" width="19" height="30" y="202" clip-path="url(#clipPath2)"/>
    </g>
    <g fill="rgb(255,204,0)" text-rendering="geometricPrecision" shape-rendering="geometricPrecision" transform="matrix(1,0,0,1,-319,-181)" stroke="rgb(255,204,0)">
      <rect x="691" width="19" height="30" y="202" clip-path="url(#clipPath2)" stroke="none"/>
    </g>
    <g text-rendering="geometricPrecision" stroke-miterlimit="1.45" shape-rendering="geometricPrecision" transform="matrix(1,0,0,1,-319,-181)" stroke-linecap="butt">
      <rect fill="none" x="691" width="19" height="30" y="202" clip-path="url(#clipPath2)"/>
    </g>
    <g fill="rgb(0,204,255)" text-rendering="geometricPrecision" shape-rendering="geometricPrecision" transform="matrix(1,0,0,1,-319,-181)" stroke="rgb(0,204,255)">
      <rect x="425" width="19" height="30" y="270" clip-path="url(#clipPath2)" stroke="none"/>
    </g>
    <g text-rendering="geometricPrecision" stroke-miterlimit="1.45" shape-rendering="geometricPrecision" transform="matrix(1,0,0,1,-319,-181)" stroke-linecap="butt">
      <rect fill="none" x="425" width="19" height="30" y="270" clip-path="url(#clipPath2)"/>
    </g>
    <g fill="rgb(255,204,0)" text-rendering="geometricPrecision" shape-rendering="geometricPrecision" transform="matrix(1,0,0,1,-319,-181)" stroke="rgb(255,204,0)">
      <rect x="444" width="19" height="30" y="270" clip-path="url(#clipPath2)" stroke="none"/>
    </g>
    <g text-rendering="geometricPrecision" stroke-miterlimit="1.45" shape-rendering="geometricPrecision" transform="matrix(1,0,0,1,-319,-181)" stroke-linecap="butt">
      <rect fill="none" x="444" width="19" height="30" y="270" clip-path="url(#clipPath2)"/>
    </g>
    <g fill="rgb(0,204,255)" text-rendering="geometricPrecision" shape-rendering="geometricPrecision" transform="matrix(1,0,0,1,-319,-181)" stroke="rgb(0,204,255)">
      <rect x="463" width="19" height="30" y="270" clip-path="url(#clipPath2)" stroke="none"/>
    </g>
    <g text-rendering="geometricPrecision" stroke-miterlimit="1.45" shape-rendering="geometricPrecision" transform="matrix(1,0,0,1,-319,-181)" stroke-linecap="butt">
      <rect fill="none" x="463" width="19" height="30" y="270" clip-path="url(#clipPath2)"/>
    </g>
    <g fill="rgb(0,204,255)" text-rendering="geometricPrecision" shape-rendering="geometricPrecision" transform="matrix(1,0,0,1,-319,-181)" stroke="rgb(0,204,255)">
      <rect x="482" width="19" height="30" y="270" clip-path="url(#clipPath2)" stroke="none"/>
    </g>
    <g text-rendering="geometricPrecision" stroke-miterlimit="1.45" shape-rendering="geometricPrecision" transform="matrix(1,0,0,1,-319,-181)" stroke-linecap="butt">
      <rect fill="none" x="482" width="19" height="30" y="270" clip-path="url(#clipPath2)"/>
    </g>
    <g fill="rgb(255,204,0)" text-rendering="geometricPrecision" shape-rendering="geometricPrecision" transform="matrix(1,0,0,1,-319,-181)" stroke="rgb(255,204,0)">
      <rect x="501" width="19" height="30" y="270" clip-path="url(#clipPath2)" stroke="none"/>
    </g>
    <g text-rendering="geometricPrecision" stroke-miterlimit="1.45" shape-rendering="geometricPrecision" transform="matrix(1,0,0,1,-319,-181)" stroke-linecap="butt">
      <rect fill="none" x="501" width="19" height="30" y="270" clip-path="url(#clipPath2)"/>
    </g>
    <g fill="rgb(0,204,255)" text-rendering="geometricPrecision" shape-rendering="geometricPrecision" transform="matrix(1,0,0,1,-319,-181)" stroke="rgb(0,204,255)">
      <rect x="520" width="19" height="30" y="270" clip-path="url(#clipPath2)" stroke="none"/>
    </g>
    <g text-rendering="geometricPrecision" stroke-miterlimit="1.45" shape-rendering="geometricPrecision" transform="matrix(1,0,0,1,-319,-181)" stroke-linecap="butt">
      <rect fill="none" x="520" width="19" height="30" y="270" clip-path="url(#clipPath2)"/>
    </g>
    <g fill="rgb(0,204,255)" text-rendering="geometricPrecision" shape-rendering="geometricPrecision" transform="matrix(1,0,0,1,-319,-181)" stroke="rgb(0,204,255)">
      <rect x="539" width="19" height="30" y="270" clip-path="url(#clipPath2)" stroke="none"/>
    </g>
    <g text-rendering="geometricPrecision" stroke-miterlimit="1.45" shape-rendering="geometricPrecision" transform="matrix(1,0,0,1,-319,-181)" stroke-linecap="butt">
      <rect fill="none" x="539" width="19" height="30" y="270" clip-path="url(#clipPath2)"/>
    </g>
    <g fill="rgb(0,204,255)" text-rendering="geometricPrecision" shape-rendering="geometricPrecision" transform="matrix(1,0,0,1,-319,-181)" stroke="rgb(0,204,255)">
      <rect x="558" width="19" height="30" y="270" clip-path="url(#clipPath2)" stroke="none"/>
    </g>
    <g text-rendering="geometricPrecision" stroke-miterlimit="1.45" shape-rendering="geometricPrecision" transform="matrix(1,0,0,1,-319,-181)" stroke-linecap="butt">
      <rect fill="none" x="558" width="19" height="30" y="270" clip-path="url(#clipPath2)"/>
    </g>
    <g fill="rgb(0,204,255)" text-rendering="geometricPrecision" shape-rendering="geometricPrecision" transform="matrix(1,0,0,1,-319,-181)" stroke="rgb(0,204,255)">
      <rect x="596" width="19" height="30" y="270" clip-path="url(#clipPath2)" stroke="none"/>
    </g>
    <g text-rendering="geometricPrecision" stroke-miterlimit="1.45" shape-rendering="geometricPrecision" transform="matrix(1,0,0,1,-319,-181)" stroke-linecap="butt">
      <rect fill="none" x="596" width="19" height="30" y="270" clip-path="url(#clipPath2)"/>
    </g>
    <g fill="rgb(0,204,255)" text-rendering="geometricPrecision" shape-rendering="geometricPrecision" transform="matrix(1,0,0,1,-319,-181)" stroke="rgb(0,204,255)">
      <rect x="615" width="19" height="30" y="270" clip-path="url(#clipPath2)" stroke="none"/>
    </g>
    <g text-rendering="geometricPrecision" stroke-miterlimit="1.45" shape-rendering="geometricPrecision" transform="matrix(1,0,0,1,-319,-181)" stroke-linecap="butt">
      <rect fill="none" x="615" width="19" height="30" y="270" clip-path="url(#clipPath2)"/>
    </g>
    <g fill="rgb(0,204,255)" text-rendering="geometricPrecision" shape-rendering="geometricPrecision" transform="matrix(1,0,0,1,-319,-181)" stroke="rgb(0,204,255)">
      <rect x="634" width="19" height="30" y="270" clip-path="url(#clipPath2)" stroke="none"/>
    </g>
    <g text-rendering="geometricPrecision" stroke-miterlimit="1.45" shape-rendering="geometricPrecision" transform="matrix(1,0,0,1,-319,-181)" stroke-linecap="butt">
      <rect fill="none" x="634" width="19" height="30" y="270" clip-path="url(#clipPath2)"/>
    </g>
    <g fill="rgb(255,204,0)" text-rendering="geometricPrecision" shape-rendering="geometricPrecision" transform="matrix(1,0,0,1,-319,-181)" stroke="rgb(255,204,0)">
      <rect x="653" width="19" height="30" y="270" clip-path="url(#clipPath2)" stroke="none"/>
    </g>
    <g text-rendering="geometricPrecision" stroke-miterlimit="1.45" shape-rendering="geometricPrecision" transform="matrix(1,0,0,1,-319,-181)" stroke-linecap="butt">
      <rect fill="none" x="653" width="19" height="30" y="270" clip-path="url(#clipPath2)"/>
    </g>
    <g fill="rgb(0,204,255)" text-rendering="geometricPrecision" shape-rendering="geometricPrecision" transform="matrix(1,0,0,1,-319,-181)" stroke="rgb(0,204,255)">
      <rect x="672" width="19" height="30" y="270" clip-path="url(#clipPath2)" stroke="none"/>
    </g>
    <g text-rendering="geometricPrecision" stroke-miterlimit="1.45" shape-rendering="geometricPrecision" transform="matrix(1,0,0,1,-319,-181)" stroke-linecap="butt">
      <rect fill="none" x="672" width="19" height="30" y="270" clip-path="url(#clipPath2)"/>
    </g>
    <g fill="rgb(0,204,255)" text-rendering="geometricPrecision" shape-rendering="geometricPrecision" transform="matrix(1,0,0,1,-319,-181)" stroke="rgb(0,204,255)">
      <rect x="691" width="19" height="30" y="270" clip-path="url(#clipPath2)" stroke="none"/>
    </g>
    <g text-rendering="geometricPrecision" stroke-miterlimit="1.45" shape-rendering="geometricPrecision" transform="matrix(1,0,0,1,-319,-181)" stroke-linecap="butt">
      <rect fill="none" x="691" width="19" height="30" y="270" clip-path="url(#clipPath2)"/>
    </g>
    <g fill="rgb(0,204,255)" text-rendering="geometricPrecision" shape-rendering="geometricPrecision" transform="matrix(1,0,0,1,-319,-181)" stroke="rgb(0,204,255)">
      <rect x="710" width="19" height="30" y="270" clip-path="url(#clipPath2)" stroke="none"/>
    </g>
    <g text-rendering="geometricPrecision" stroke-miterlimit="1.45" shape-rendering="geometricPrecision" transform="matrix(1,0,0,1,-319,-181)" stroke-linecap="butt">
      <rect fill="none" x="710" width="19" height="30" y="270" clip-path="url(#clipPath2)"/>
    </g>
    <g fill="rgb(0,204,255)" text-rendering="geometricPrecision" shape-rendering="geometricPrecision" transform="matrix(1,0,0,1,-319,-181)" stroke="rgb(0,204,255)">
      <rect x="729" width="19" height="30" y="270" clip-path="url(#clipPath2)" stroke="none"/>
    </g>
    <g text-rendering="geometricPrecision" stroke-miterlimit="1.45" shape-rendering="geometricPrecision" transform="matrix(1,0,0,1,-319,-181)" stroke-linecap="butt">
      <rect fill="none" x="729" width="19" height="30" y="270" clip-path="url(#clipPath2)"/>
    </g>
    <g fill="rgb(0,204,255)" text-rendering="geometricPrecision" shape-rendering="geometricPrecision" transform="matrix(1,0,0,1,-319,-181)" stroke="rgb(0,204,255)">
      <rect x="766" width="19" height="30" y="270" clip-path="url(#clipPath2)" stroke="none"/>
    </g>
    <g text-rendering="geometricPrecision" stroke-miterlimit="1.45" shape-rendering="geometricPrecision" transform="matrix(1,0,0,1,-319,-181)" stroke-linecap="butt">
      <rect fill="none" x="766" width="19" height="30" y="270" clip-path="url(#clipPath2)"/>
    </g>
    <g fill="rgb(0,204,255)" text-rendering="geometricPrecision" shape-rendering="geometricPrecision" transform="matrix(1,0,0,1,-319,-181)" stroke="rgb(0,204,255)">
      <rect x="785" width="19" height="30" y="270" clip-path="url(#clipPath2)" stroke="none"/>
    </g>
    <g text-rendering="geometricPrecision" stroke-miterlimit="1.45" shape-rendering="geometricPrecision" transform="matrix(1,0,0,1,-319,-181)" stroke-linecap="butt">
      <rect fill="none" x="785" width="19" height="30" y="270" clip-path="url(#clipPath2)"/>
    </g>
    <g fill="rgb(0,204,255)" text-rendering="geometricPrecision" shape-rendering="geometricPrecision" transform="matrix(1,0,0,1,-319,-181)" stroke="rgb(0,204,255)">
      <rect x="804" width="19" height="30" y="270" clip-path="url(#clipPath2)" stroke="none"/>
    </g>
    <g text-rendering="geometricPrecision" stroke-miterlimit="1.45" shape-rendering="geometricPrecision" transform="matrix(1,0,0,1,-319,-181)" stroke-linecap="butt">
      <rect fill="none" x="804" width="19" height="30" y="270" clip-path="url(#clipPath2)"/>
    </g>
    <g fill="rgb(0,204,255)" text-rendering="geometricPrecision" shape-rendering="geometricPrecision" transform="matrix(1,0,0,1,-319,-181)" stroke="rgb(0,204,255)">
      <rect x="823" width="19" height="30" y="270" clip-path="url(#clipPath2)" stroke="none"/>
    </g>
    <g text-rendering="geometricPrecision" stroke-miterlimit="1.45" shape-rendering="geometricPrecision" transform="matrix(1,0,0,1,-319,-181)" stroke-linecap="butt">
      <rect fill="none" x="823" width="19" height="30" y="270" clip-path="url(#clipPath2)"/>
    </g>
    <g fill="rgb(255,204,0)" text-rendering="geometricPrecision" shape-rendering="geometricPrecision" transform="matrix(1,0,0,1,-319,-181)" stroke="rgb(255,204,0)">
      <rect x="842" width="19" height="30" y="270" clip-path="url(#clipPath2)" stroke="none"/>
    </g>
    <g text-rendering="geometricPrecision" stroke-miterlimit="1.45" shape-rendering="geometricPrecision" transform="matrix(1,0,0,1,-319,-181)" stroke-linecap="butt">
      <rect fill="none" x="842" width="19" height="30" y="270" clip-path="url(#clipPath2)"/>
    </g>
    <g fill="rgb(0,204,255)" text-rendering="geometricPrecision" shape-rendering="geometricPrecision" transform="matrix(1,0,0,1,-319,-181)" stroke="rgb(0,204,255)">
      <rect x="861" width="19" height="30" y="270" clip-path="url(#clipPath2)" stroke="none"/>
    </g>
    <g text-rendering="geometricPrecision" stroke-miterlimit="1.45" shape-rendering="geometricPrecision" transform="matrix(1,0,0,1,-319,-181)" stroke-linecap="butt">
      <rect fill="none" x="861" width="19" height="30" y="270" clip-path="url(#clipPath2)"/>
    </g>
    <g fill="rgb(0,204,255)" text-rendering="geometricPrecision" shape-rendering="geometricPrecision" transform="matrix(1,0,0,1,-319,-181)" stroke="rgb(0,204,255)">
      <rect x="880" width="19" height="30" y="270" clip-path="url(#clipPath2)" stroke="none"/>
    </g>
    <g text-rendering="geometricPrecision" stroke-miterlimit="1.45" shape-rendering="geometricPrecision" transform="matrix(1,0,0,1,-319,-181)" stroke-linecap="butt">
      <rect fill="none" x="880" width="19" height="30" y="270" clip-path="url(#clipPath2)"/>
    </g>
    <g fill="rgb(0,204,255)" text-rendering="geometricPrecision" shape-rendering="geometricPrecision" transform="matrix(1,0,0,1,-319,-181)" stroke="rgb(0,204,255)">
      <rect x="899" width="19" height="30" y="270" clip-path="url(#clipPath2)" stroke="none"/>
    </g>
    <g text-rendering="geometricPrecision" stroke-miterlimit="1.45" shape-rendering="geometricPrecision" transform="matrix(1,0,0,1,-319,-181)" stroke-linecap="butt">
      <rect fill="none" x="899" width="19" height="30" y="270" clip-path="url(#clipPath2)"/>
    </g>
    <g fill="rgb(255,204,0)" text-rendering="geometricPrecision" shape-rendering="geometricPrecision" transform="matrix(1,0,0,1,-319,-181)" stroke="rgb(255,204,0)">
      <rect x="319" width="19" height="30" y="339" clip-path="url(#clipPath2)" stroke="none"/>
    </g>
    <g text-rendering="geometricPrecision" stroke-miterlimit="1.45" shape-rendering="geometricPrecision" transform="matrix(1,0,0,1,-319,-181)" stroke-linecap="butt">
      <rect fill="none" x="319" width="19" height="30" y="339" clip-path="url(#clipPath2)"/>
    </g>
    <g fill="rgb(255,204,0)" text-rendering="geometricPrecision" shape-rendering="geometricPrecision" transform="matrix(1,0,0,1,-319,-181)" stroke="rgb(255,204,0)">
      <rect x="338" width="19" height="30" y="339" clip-path="url(#clipPath2)" stroke="none"/>
    </g>
    <g text-rendering="geometricPrecision" stroke-miterlimit="1.45" shape-rendering="geometricPrecision" transform="matrix(1,0,0,1,-319,-181)" stroke-linecap="butt">
      <rect fill="none" x="338" width="19" height="30" y="339" clip-path="url(#clipPath2)"/>
    </g>
    <g fill="rgb(255,204,0)" text-rendering="geometricPrecision" shape-rendering="geometricPrecision" transform="matrix(1,0,0,1,-319,-181)" stroke="rgb(255,204,0)">
      <rect x="357" width="19" height="30" y="339" clip-path="url(#clipPath2)" stroke="none"/>
    </g>
    <g text-rendering="geometricPrecision" stroke-miterlimit="1.45" shape-rendering="geometricPrecision" transform="matrix(1,0,0,1,-319,-181)" stroke-linecap="butt">
      <rect fill="none" x="357" width="19" height="30" y="339" clip-path="url(#clipPath2)"/>
    </g>
    <g fill="rgb(255,204,0)" text-rendering="geometricPrecision" shape-rendering="geometricPrecision" transform="matrix(1,0,0,1,-319,-181)" stroke="rgb(255,204,0)">
      <rect x="376" width="19" height="30" y="339" clip-path="url(#clipPath2)" stroke="none"/>
    </g>
    <g text-rendering="geometricPrecision" stroke-miterlimit="1.45" shape-rendering="geometricPrecision" transform="matrix(1,0,0,1,-319,-181)" stroke-linecap="butt">
      <rect fill="none" x="376" width="19" height="30" y="339" clip-path="url(#clipPath2)"/>
    </g>
    <g fill="rgb(255,204,0)" text-rendering="geometricPrecision" shape-rendering="geometricPrecision" transform="matrix(1,0,0,1,-319,-181)" stroke="rgb(255,204,0)">
      <rect x="395" width="19" height="30" y="339" clip-path="url(#clipPath2)" stroke="none"/>
    </g>
    <g text-rendering="geometricPrecision" stroke-miterlimit="1.45" shape-rendering="geometricPrecision" transform="matrix(1,0,0,1,-319,-181)" stroke-linecap="butt">
      <rect fill="none" x="395" width="19" height="30" y="339" clip-path="url(#clipPath2)"/>
    </g>
    <g fill="rgb(255,204,0)" text-rendering="geometricPrecision" shape-rendering="geometricPrecision" transform="matrix(1,0,0,1,-319,-181)" stroke="rgb(255,204,0)">
      <rect x="414" width="19" height="30" y="339" clip-path="url(#clipPath2)" stroke="none"/>
    </g>
    <g text-rendering="geometricPrecision" stroke-miterlimit="1.45" shape-rendering="geometricPrecision" transform="matrix(1,0,0,1,-319,-181)" stroke-linecap="butt">
      <rect fill="none" x="414" width="19" height="30" y="339" clip-path="url(#clipPath2)"/>
    </g>
    <g fill="rgb(255,204,0)" text-rendering="geometricPrecision" shape-rendering="geometricPrecision" transform="matrix(1,0,0,1,-319,-181)" stroke="rgb(255,204,0)">
      <rect x="433" width="19" height="30" y="339" clip-path="url(#clipPath2)" stroke="none"/>
    </g>
    <g text-rendering="geometricPrecision" stroke-miterlimit="1.45" shape-rendering="geometricPrecision" transform="matrix(1,0,0,1,-319,-181)" stroke-linecap="butt">
      <rect fill="none" x="433" width="19" height="30" y="339" clip-path="url(#clipPath2)"/>
    </g>
    <g fill="rgb(255,204,0)" text-rendering="geometricPrecision" shape-rendering="geometricPrecision" transform="matrix(1,0,0,1,-319,-181)" stroke="rgb(255,204,0)">
      <rect x="452" width="19" height="30" y="339" clip-path="url(#clipPath2)" stroke="none"/>
    </g>
    <g text-rendering="geometricPrecision" stroke-miterlimit="1.45" shape-rendering="geometricPrecision" transform="matrix(1,0,0,1,-319,-181)" stroke-linecap="butt">
      <rect fill="none" x="452" width="19" height="30" y="339" clip-path="url(#clipPath2)"/>
    </g>
    <g fill="rgb(255,204,0)" text-rendering="geometricPrecision" shape-rendering="geometricPrecision" transform="matrix(1,0,0,1,-319,-181)" stroke="rgb(255,204,0)">
      <rect x="490" width="19" height="30" y="339" clip-path="url(#clipPath2)" stroke="none"/>
    </g>
    <g text-rendering="geometricPrecision" stroke-miterlimit="1.45" shape-rendering="geometricPrecision" transform="matrix(1,0,0,1,-319,-181)" stroke-linecap="butt">
      <rect fill="none" x="490" width="19" height="30" y="339" clip-path="url(#clipPath2)"/>
    </g>
    <g fill="rgb(255,204,0)" text-rendering="geometricPrecision" shape-rendering="geometricPrecision" transform="matrix(1,0,0,1,-319,-181)" stroke="rgb(255,204,0)">
      <rect x="509" width="19" height="30" y="339" clip-path="url(#clipPath2)" stroke="none"/>
    </g>
    <g text-rendering="geometricPrecision" stroke-miterlimit="1.45" shape-rendering="geometricPrecision" transform="matrix(1,0,0,1,-319,-181)" stroke-linecap="butt">
      <rect fill="none" x="509" width="19" height="30" y="339" clip-path="url(#clipPath2)"/>
    </g>
    <g fill="rgb(255,204,0)" text-rendering="geometricPrecision" shape-rendering="geometricPrecision" transform="matrix(1,0,0,1,-319,-181)" stroke="rgb(255,204,0)">
      <rect x="528" width="19" height="30" y="339" clip-path="url(#clipPath2)" stroke="none"/>
    </g>
    <g text-rendering="geometricPrecision" stroke-miterlimit="1.45" shape-rendering="geometricPrecision" transform="matrix(1,0,0,1,-319,-181)" stroke-linecap="butt">
      <rect fill="none" x="528" width="19" height="30" y="339" clip-path="url(#clipPath2)"/>
    </g>
    <g fill="rgb(255,204,0)" text-rendering="geometricPrecision" shape-rendering="geometricPrecision" transform="matrix(1,0,0,1,-319,-181)" stroke="rgb(255,204,0)">
      <rect x="547" width="19" height="30" y="339" clip-path="url(#clipPath2)" stroke="none"/>
    </g>
    <g text-rendering="geometricPrecision" stroke-miterlimit="1.45" shape-rendering="geometricPrecision" transform="matrix(1,0,0,1,-319,-181)" stroke-linecap="butt">
      <rect fill="none" x="547" width="19" height="30" y="339" clip-path="url(#clipPath2)"/>
    </g>
    <g fill="rgb(255,204,0)" text-rendering="geometricPrecision" shape-rendering="geometricPrecision" transform="matrix(1,0,0,1,-319,-181)" stroke="rgb(255,204,0)">
      <rect x="566" width="19" height="30" y="339" clip-path="url(#clipPath2)" stroke="none"/>
    </g>
    <g text-rendering="geometricPrecision" stroke-miterlimit="1.45" shape-rendering="geometricPrecision" transform="matrix(1,0,0,1,-319,-181)" stroke-linecap="butt">
      <rect fill="none" x="566" width="19" height="30" y="339" clip-path="url(#clipPath2)"/>
    </g>
    <g fill="rgb(255,204,0)" text-rendering="geometricPrecision" shape-rendering="geometricPrecision" transform="matrix(1,0,0,1,-319,-181)" stroke="rgb(255,204,0)">
      <rect x="585" width="19" height="30" y="339" clip-path="url(#clipPath2)" stroke="none"/>
    </g>
    <g text-rendering="geometricPrecision" stroke-miterlimit="1.45" shape-rendering="geometricPrecision" transform="matrix(1,0,0,1,-319,-181)" stroke-linecap="butt">
      <rect fill="none" x="585" width="19" height="30" y="339" clip-path="url(#clipPath2)"/>
    </g>
    <g fill="rgb(255,204,0)" text-rendering="geometricPrecision" shape-rendering="geometricPrecision" transform="matrix(1,0,0,1,-319,-181)" stroke="rgb(255,204,0)">
      <rect x="604" width="19" height="30" y="339" clip-path="url(#clipPath2)" stroke="none"/>
    </g>
    <g text-rendering="geometricPrecision" stroke-miterlimit="1.45" shape-rendering="geometricPrecision" transform="matrix(1,0,0,1,-319,-181)" stroke-linecap="butt">
      <rect fill="none" x="604" width="19" height="30" y="339" clip-path="url(#clipPath2)"/>
    </g>
    <g fill="rgb(255,204,0)" text-rendering="geometricPrecision" shape-rendering="geometricPrecision" transform="matrix(1,0,0,1,-319,-181)" stroke="rgb(255,204,0)">
      <rect x="623" width="19" height="30" y="339" clip-path="url(#clipPath2)" stroke="none"/>
    </g>
    <g text-rendering="geometricPrecision" stroke-miterlimit="1.45" shape-rendering="geometricPrecision" transform="matrix(1,0,0,1,-319,-181)" stroke-linecap="butt">
      <rect fill="none" x="623" width="19" height="30" y="339" clip-path="url(#clipPath2)"/>
    </g>
    <g fill="rgb(255,204,0)" text-rendering="geometricPrecision" shape-rendering="geometricPrecision" transform="matrix(1,0,0,1,-319,-181)" stroke="rgb(255,204,0)">
      <rect x="660" width="19" height="30" y="339" clip-path="url(#clipPath2)" stroke="none"/>
    </g>
    <g text-rendering="geometricPrecision" stroke-miterlimit="1.45" shape-rendering="geometricPrecision" transform="matrix(1,0,0,1,-319,-181)" stroke-linecap="butt">
      <rect fill="none" x="660" width="19" height="30" y="339" clip-path="url(#clipPath2)"/>
    </g>
    <g fill="rgb(255,204,0)" text-rendering="geometricPrecision" shape-rendering="geometricPrecision" transform="matrix(1,0,0,1,-319,-181)" stroke="rgb(255,204,0)">
      <rect x="679" width="19" height="30" y="339" clip-path="url(#clipPath2)" stroke="none"/>
    </g>
    <g text-rendering="geometricPrecision" stroke-miterlimit="1.45" shape-rendering="geometricPrecision" transform="matrix(1,0,0,1,-319,-181)" stroke-linecap="butt">
      <rect fill="none" x="679" width="19" height="30" y="339" clip-path="url(#clipPath2)"/>
    </g>
    <g fill="rgb(255,204,0)" text-rendering="geometricPrecision" shape-rendering="geometricPrecision" transform="matrix(1,0,0,1,-319,-181)" stroke="rgb(255,204,0)">
      <rect x="698" width="19" height="30" y="339" clip-path="url(#clipPath2)" stroke="none"/>
    </g>
    <g text-rendering="geometricPrecision" stroke-miterlimit="1.45" shape-rendering="geometricPrecision" transform="matrix(1,0,0,1,-319,-181)" stroke-linecap="butt">
      <rect fill="none" x="698" width="19" height="30" y="339" clip-path="url(#clipPath2)"/>
    </g>
    <g fill="rgb(255,204,0)" text-rendering="geometricPrecision" shape-rendering="geometricPrecision" transform="matrix(1,0,0,1,-319,-181)" stroke="rgb(255,204,0)">
      <rect x="717" width="19" height="30" y="339" clip-path="url(#clipPath2)" stroke="none"/>
    </g>
    <g text-rendering="geometricPrecision" stroke-miterlimit="1.45" shape-rendering="geometricPrecision" transform="matrix(1,0,0,1,-319,-181)" stroke-linecap="butt">
      <rect fill="none" x="717" width="19" height="30" y="339" clip-path="url(#clipPath2)"/>
    </g>
    <g fill="rgb(255,204,0)" text-rendering="geometricPrecision" shape-rendering="geometricPrecision" transform="matrix(1,0,0,1,-319,-181)" stroke="rgb(255,204,0)">
      <rect x="736" width="19" height="30" y="339" clip-path="url(#clipPath2)" stroke="none"/>
    </g>
    <g text-rendering="geometricPrecision" stroke-miterlimit="1.45" shape-rendering="geometricPrecision" transform="matrix(1,0,0,1,-319,-181)" stroke-linecap="butt">
      <rect fill="none" x="736" width="19" height="30" y="339" clip-path="url(#clipPath2)"/>
    </g>
    <g fill="rgb(255,204,0)" text-rendering="geometricPrecision" shape-rendering="geometricPrecision" transform="matrix(1,0,0,1,-319,-181)" stroke="rgb(255,204,0)">
      <rect x="755" width="19" height="30" y="339" clip-path="url(#clipPath2)" stroke="none"/>
    </g>
    <g text-rendering="geometricPrecision" stroke-miterlimit="1.45" shape-rendering="geometricPrecision" transform="matrix(1,0,0,1,-319,-181)" stroke-linecap="butt">
      <rect fill="none" x="755" width="19" height="30" y="339" clip-path="url(#clipPath2)"/>
    </g>
    <g fill="rgb(255,204,0)" text-rendering="geometricPrecision" shape-rendering="geometricPrecision" transform="matrix(1,0,0,1,-319,-181)" stroke="rgb(255,204,0)">
      <rect x="774" width="19" height="30" y="339" clip-path="url(#clipPath2)" stroke="none"/>
    </g>
    <g text-rendering="geometricPrecision" stroke-miterlimit="1.45" shape-rendering="geometricPrecision" transform="matrix(1,0,0,1,-319,-181)" stroke-linecap="butt">
      <rect fill="none" x="774" width="19" height="30" y="339" clip-path="url(#clipPath2)"/>
    </g>
    <g fill="rgb(255,204,0)" text-rendering="geometricPrecision" shape-rendering="geometricPrecision" transform="matrix(1,0,0,1,-319,-181)" stroke="rgb(255,204,0)">
      <rect x="793" width="19" height="30" y="339" clip-path="url(#clipPath2)" stroke="none"/>
    </g>
    <g text-rendering="geometricPrecision" stroke-miterlimit="1.45" shape-rendering="geometricPrecision" transform="matrix(1,0,0,1,-319,-181)" stroke-linecap="butt">
      <rect fill="none" x="793" width="19" height="30" y="339" clip-path="url(#clipPath2)"/>
    </g>
    <g fill="rgb(255,204,0)" text-rendering="geometricPrecision" shape-rendering="geometricPrecision" transform="matrix(1,0,0,1,-319,-181)" stroke="rgb(255,204,0)">
      <rect x="831" width="19" height="30" y="339" clip-path="url(#clipPath2)" stroke="none"/>
    </g>
    <g text-rendering="geometricPrecision" stroke-miterlimit="1.45" shape-rendering="geometricPrecision" transform="matrix(1,0,0,1,-319,-181)" stroke-linecap="butt">
      <rect fill="none" x="831" width="19" height="30" y="339" clip-path="url(#clipPath2)"/>
    </g>
    <g fill="rgb(255,204,0)" text-rendering="geometricPrecision" shape-rendering="geometricPrecision" transform="matrix(1,0,0,1,-319,-181)" stroke="rgb(255,204,0)">
      <rect x="850" width="19" height="30" y="339" clip-path="url(#clipPath2)" stroke="none"/>
    </g>
    <g text-rendering="geometricPrecision" stroke-miterlimit="1.45" shape-rendering="geometricPrecision" transform="matrix(1,0,0,1,-319,-181)" stroke-linecap="butt">
      <rect fill="none" x="850" width="19" height="30" y="339" clip-path="url(#clipPath2)"/>
    </g>
    <g fill="rgb(255,204,0)" text-rendering="geometricPrecision" shape-rendering="geometricPrecision" transform="matrix(1,0,0,1,-319,-181)" stroke="rgb(255,204,0)">
      <rect x="869" width="19" height="30" y="339" clip-path="url(#clipPath2)" stroke="none"/>
    </g>
    <g text-rendering="geometricPrecision" stroke-miterlimit="1.45" shape-rendering="geometricPrecision" transform="matrix(1,0,0,1,-319,-181)" stroke-linecap="butt">
      <rect fill="none" x="869" width="19" height="30" y="339" clip-path="url(#clipPath2)"/>
    </g>
    <g fill="rgb(255,204,0)" text-rendering="geometricPrecision" shape-rendering="geometricPrecision" transform="matrix(1,0,0,1,-319,-181)" stroke="rgb(255,204,0)">
      <rect x="888" width="19" height="30" y="339" clip-path="url(#clipPath2)" stroke="none"/>
    </g>
    <g text-rendering="geometricPrecision" stroke-miterlimit="1.45" shape-rendering="geometricPrecision" transform="matrix(1,0,0,1,-319,-181)" stroke-linecap="butt">
      <rect fill="none" x="888" width="19" height="30" y="339" clip-path="url(#clipPath2)"/>
    </g>
    <g fill="rgb(255,204,0)" text-rendering="geometricPrecision" shape-rendering="geometricPrecision" transform="matrix(1,0,0,1,-319,-181)" stroke="rgb(255,204,0)">
      <rect x="907" width="19" height="30" y="339" clip-path="url(#clipPath2)" stroke="none"/>
    </g>
    <g text-rendering="geometricPrecision" stroke-miterlimit="1.45" shape-rendering="geometricPrecision" transform="matrix(1,0,0,1,-319,-181)" stroke-linecap="butt">
      <rect fill="none" x="907" width="19" height="30" y="339" clip-path="url(#clipPath2)"/>
    </g>
    <g fill="rgb(255,204,0)" text-rendering="geometricPrecision" shape-rendering="geometricPrecision" transform="matrix(1,0,0,1,-319,-181)" stroke="rgb(255,204,0)">
      <rect x="926" width="19" height="30" y="339" clip-path="url(#clipPath2)" stroke="none"/>
    </g>
    <g text-rendering="geometricPrecision" stroke-miterlimit="1.45" shape-rendering="geometricPrecision" transform="matrix(1,0,0,1,-319,-181)" stroke-linecap="butt">
      <rect fill="none" x="926" width="19" height="30" y="339" clip-path="url(#clipPath2)"/>
    </g>
    <g fill="rgb(255,204,0)" text-rendering="geometricPrecision" shape-rendering="geometricPrecision" transform="matrix(1,0,0,1,-319,-181)" stroke="rgb(255,204,0)">
      <rect x="945" width="19" height="30" y="339" clip-path="url(#clipPath2)" stroke="none"/>
    </g>
    <g text-rendering="geometricPrecision" stroke-miterlimit="1.45" shape-rendering="geometricPrecision" transform="matrix(1,0,0,1,-319,-181)" stroke-linecap="butt">
      <rect fill="none" x="945" width="19" height="30" y="339" clip-path="url(#clipPath2)"/>
    </g>
    <g fill="rgb(255,204,0)" text-rendering="geometricPrecision" shape-rendering="geometricPrecision" transform="matrix(1,0,0,1,-319,-181)" stroke="rgb(255,204,0)">
      <rect x="964" width="19" height="30" y="339" clip-path="url(#clipPath2)" stroke="none"/>
    </g>
    <g text-rendering="geometricPrecision" stroke-miterlimit="1.45" shape-rendering="geometricPrecision" transform="matrix(1,0,0,1,-319,-181)" stroke-linecap="butt">
      <rect fill="none" x="964" width="19" height="30" y="339" clip-path="url(#clipPath2)"/>
    </g>
    <g fill="rgb(35,209,136)" text-rendering="geometricPrecision" shape-rendering="geometricPrecision" transform="matrix(1,0,0,1,-319,-181)" stroke="rgb(35,209,136)">
      <rect x="527" width="43" height="30" y="181" clip-path="url(#clipPath2)" stroke="none"/>
    </g>
    <g text-rendering="geometricPrecision" stroke-miterlimit="1.45" shape-rendering="geometricPrecision" transform="matrix(1,0,0,1,-319,-181)" stroke-linecap="butt">
      <rect fill="none" x="527" width="43" height="30" y="181" clip-path="url(#clipPath2)"/>
      <text x="533.7631" font-size="15px" y="201.0248" clip-path="url(#clipPath2)" font-family="'Fira Code Retina'" stroke="none" font-weight="bold" xml:space="preserve">137</text>
    </g>
    <g fill="rgb(35,209,136)" text-rendering="geometricPrecision" shape-rendering="geometricPrecision" transform="matrix(1,0,0,1,-319,-181)" stroke="rgb(35,209,136)">
      <rect x="390" width="43" height="30" y="251" clip-path="url(#clipPath2)" stroke="none"/>
    </g>
    <g text-rendering="geometricPrecision" stroke-miterlimit="1.45" shape-rendering="geometricPrecision" transform="matrix(1,0,0,1,-319,-181)" stroke-linecap="butt">
      <rect fill="none" x="390" width="43" height="30" y="251" clip-path="url(#clipPath2)"/>
      <text x="401.6754" font-size="15px" y="271.0248" clip-path="url(#clipPath2)" font-family="'Fira Code Retina'" stroke="none" font-weight="bold" xml:space="preserve">72</text>
    </g>
    <g fill="rgb(35,209,136)" text-rendering="geometricPrecision" shape-rendering="geometricPrecision" transform="matrix(1,0,0,1,-319,-181)" stroke="rgb(35,209,136)">
      <rect x="584" width="43" height="30" y="251" clip-path="url(#clipPath2)" stroke="none"/>
    </g>
    <g text-rendering="geometricPrecision" stroke-miterlimit="1.45" shape-rendering="geometricPrecision" transform="matrix(1,0,0,1,-319,-181)" stroke-linecap="butt">
      <rect fill="none" x="584" width="43" height="30" y="251" clip-path="url(#clipPath2)"/>
      <text x="595.6754" font-size="15px" y="271.0248" clip-path="url(#clipPath2)" font-family="'Fira Code Retina'" stroke="none" font-weight="bold" xml:space="preserve">16</text>
    </g>
    <g fill="rgb(35,209,136)" text-rendering="geometricPrecision" shape-rendering="geometricPrecision" transform="matrix(1,0,0,1,-319,-181)" stroke="rgb(35,209,136)">
      <rect x="759" width="43" height="30" y="251" clip-path="url(#clipPath2)" stroke="none"/>
    </g>
    <g text-rendering="geometricPrecision" stroke-miterlimit="1.45" shape-rendering="geometricPrecision" transform="matrix(1,0,0,1,-319,-181)" stroke-linecap="butt">
      <rect fill="none" x="759" width="43" height="30" y="251" clip-path="url(#clipPath2)"/>
      <text x="775.5877" font-size="15px" y="271.0248" clip-path="url(#clipPath2)" font-family="'Fira Code Retina'" stroke="none" font-weight="bold" xml:space="preserve">8</text>
      <path fill="none" d="M558 230.25 L534.1893 263.4596" clip-path="url(#clipPath2)"/>
      <path d="M529.5278 269.9612 L540.5836 263.1223 L534.772 262.6469 L532.4566 257.2954 Z" clip-path="url(#clipPath2)" stroke="none"/>
      <path fill="none" d="M643.5 232 L643.5 262" clip-path="url(#clipPath2)"/>
      <path d="M643.5 270 L648.5 258 L643.5 261 L638.5 258 Z" clip-path="url(#clipPath2)" stroke="none"/>
      <path fill="none" d="M710 225.6133 L760.0733 271.0132" clip-path="url(#clipPath2)"/>
      <path d="M766 276.3867 L760.4684 264.6223 L759.3325 270.3415 L753.7515 272.0306 Z" clip-path="url(#clipPath2)" stroke="none"/>
      <path fill="none" d="M453.5 300 L419.3759 337.6061" clip-path="url(#clipPath2)"/>
      <path d="M414 343.5306 L425.7667 338.0038 L420.0479 336.8656 L418.3611 331.2839 Z" clip-path="url(#clipPath2)" stroke="none"/>
      <path fill="none" d="M512.2391 300 L515.8395 331.0532" clip-path="url(#clipPath2)"/>
      <path d="M516.7609 339 L520.3455 326.504 L515.7243 330.0599 L510.412 327.6557 Z" clip-path="url(#clipPath2)" stroke="none"/>
      <path fill="none" d="M662.5 300 L692.8785 336.4542" clip-path="url(#clipPath2)"/>
      <path d="M698 342.6 L694.1589 330.1804 L692.2383 335.686 L686.4767 336.5822 Z" clip-path="url(#clipPath2)" stroke="none"/>
      <path fill="none" d="M853.2391 300 L856.8395 331.0532" clip-path="url(#clipPath2)"/>
      <path d="M857.7609 339 L861.3455 326.504 L856.7243 330.0599 L851.412 327.6557 Z" clip-path="url(#clipPath2)" stroke="none"/>
    </g>
  </g>
</svg>
