<?xml version="1.0" encoding="UTF-8"?><svg xmlns="http://www.w3.org/2000/svg" xmlns:xlink="http://www.w3.org/1999/xlink" fill-opacity="1" color-rendering="auto" color-interpolation="auto" text-rendering="auto" stroke="black" stroke-linecap="square" width="454" stroke-miterlimit="10" shape-rendering="auto" stroke-opacity="1" fill="black" stroke-dasharray="none" font-weight="normal" stroke-width="1" height="147" font-family="'Dialog'" font-style="normal" stroke-linejoin="miter" font-size="12px" stroke-dashoffset="0" image-rendering="auto">
  <!--Generated by ySVG 2.5-->
  <defs id="genericDefs"/>
  <g>
    <defs id="defs1">
      <clipPath clipPathUnits="userSpaceOnUse" id="clipPath1">
        <path d="M0 0 L454 0 L454 147 L0 147 L0 0 Z"/>
      </clipPath>
      <clipPath clipPathUnits="userSpaceOnUse" id="clipPath2">
        <path d="M100 212 L554 212 L554 359 L100 359 L100 212 Z"/>
      </clipPath>
    </defs>
    <g fill="silver" text-rendering="geometricPrecision" shape-rendering="geometricPrecision" transform="matrix(1,0,0,1,-100,-212)" stroke="silver">
      <rect x="265.5" width="123" height="39" y="319.5" clip-path="url(#clipPath2)" stroke="none"/>
    </g>
    <g font-size="18px" stroke-linecap="butt" transform="matrix(1,0,0,1,-100,-212)" text-rendering="geometricPrecision" font-family="'Fira Sans'" shape-rendering="geometricPrecision" font-weight="bold" stroke-miterlimit="1.45">
      <text x="297.7031" xml:space="preserve" y="345.0267" clip-path="url(#clipPath2)" stroke="none">Stack...</text>
    </g>
    <g fill="green" text-rendering="geometricPrecision" shape-rendering="geometricPrecision" transform="matrix(1,0,0,1,-100,-212)" stroke="green">
      <rect x="265.5" width="123" height="39" y="280.5" clip-path="url(#clipPath2)" stroke="none"/>
    </g>
    <g font-size="18px" stroke-linecap="butt" transform="matrix(1,0,0,1,-100,-212)" text-rendering="geometricPrecision" font-family="'Fira Sans'" shape-rendering="geometricPrecision" font-weight="bold" stroke-miterlimit="1.45">
      <text x="286.8371" xml:space="preserve" y="306.0267" clip-path="url(#clipPath2)" stroke="none">foo frame</text>
    </g>
    <g fill="silver" text-rendering="geometricPrecision" shape-rendering="geometricPrecision" transform="matrix(1,0,0,1,-100,-212)" stroke="silver">
      <rect x="100.7" width="123" height="39" y="319.5" clip-path="url(#clipPath2)" stroke="none"/>
    </g>
    <g font-size="18px" stroke-linecap="butt" transform="matrix(1,0,0,1,-100,-212)" text-rendering="geometricPrecision" font-family="'Fira Sans'" shape-rendering="geometricPrecision" font-weight="bold" stroke-miterlimit="1.45">
      <text x="132.9031" xml:space="preserve" y="345.0267" clip-path="url(#clipPath2)" stroke="none">Stack...</text>
    </g>
    <g fill="silver" text-rendering="geometricPrecision" shape-rendering="geometricPrecision" transform="matrix(1,0,0,1,-100,-212)" stroke="silver">
      <rect x="430.3" width="123" height="39" y="319.5" clip-path="url(#clipPath2)" stroke="none"/>
    </g>
    <g font-size="18px" stroke-linecap="butt" transform="matrix(1,0,0,1,-100,-212)" text-rendering="geometricPrecision" font-family="'Fira Sans'" shape-rendering="geometricPrecision" font-weight="bold" stroke-miterlimit="1.45">
      <text x="462.5031" xml:space="preserve" y="345.0267" clip-path="url(#clipPath2)" stroke="none">Stack...</text>
      <path fill="none" d="M388.469 296.6147 L393.0656 296.9156 L398.625 297.6065 L403.6219 298.6237 L408 300 L411.7125 301.7527 L414.75 303.838 L417.1125 306.1969 L418.8 308.7704 L419.8125 311.4994 L420.15 314.325 L419.8125 317.1881 L418.8 320.0296 L417.1125 322.7906 L414.75 325.412 L411.7125 327.8348 L408 330 L403.6219 331.8627 L398.625 333.4352 L396.3123 333.9796 L396.2138 333.9969" clip-path="url(#clipPath2)"/>
      <path d="M388.371 335.5751 L401.1216 338.1096 L397.1942 333.7997 L399.1488 328.3061 Z" stroke="none" clip-path="url(#clipPath2)"/>
      <text x="406.4111" y="294.4267" clip-path="url(#clipPath2)" font-family="'Fira Mono'" stroke="none" font-weight="normal" xml:space="preserve">lazy return</text>
    </g>
    <g stroke-linecap="round" transform="matrix(1,0,0,1,-100,-212)" stroke-dashoffset="2" text-rendering="geometricPrecision" shape-rendering="geometricPrecision" stroke-dasharray="0,8" stroke-width="2" stroke-miterlimit="1.45">
      <path fill="none" d="M327 280.5 L327 251.4943" clip-path="url(#clipPath2)"/>
      <path d="M327 242.4943 L321.375 255.9943 L327 252.6193 L332.625 255.9943 Z" clip-path="url(#clipPath2)" stroke="none"/>
    </g>
    <g font-size="18px" stroke-linecap="butt" transform="matrix(1,0,0,1,-100,-212)" text-rendering="geometricPrecision" font-family="'Fira Mono'" shape-rendering="geometricPrecision" stroke-miterlimit="1.45">
      <text x="333.2122" xml:space="preserve" y="266.3151" clip-path="url(#clipPath2)" stroke="none">foo()</text>
      <path fill="none" d="M162.2 319.5 L162.2 293" clip-path="url(#clipPath2)"/>
      <path d="M162.2 285 L157.2 297 L162.2 294 L167.2 297 Z" stroke="none" clip-path="url(#clipPath2)"/>
      <text x="168.4122" xml:space="preserve" y="307.2767" clip-path="url(#clipPath2)" stroke="none">foo()</text>
    </g>
  </g>
</svg>
