<?xml version="1.0" encoding="UTF-8"?><svg xmlns="http://www.w3.org/2000/svg" xmlns:xlink="http://www.w3.org/1999/xlink" fill-opacity="1" color-rendering="auto" color-interpolation="auto" text-rendering="auto" stroke="black" stroke-linecap="square" width="783" stroke-miterlimit="10" shape-rendering="auto" stroke-opacity="1" fill="black" stroke-dasharray="none" font-weight="normal" stroke-width="1" height="147" font-family="'Dialog'" font-style="normal" stroke-linejoin="miter" font-size="12px" stroke-dashoffset="0" image-rendering="auto">
  <!--Generated by ySVG 2.5-->
  <defs id="genericDefs"/>
  <g>
    <defs id="defs1">
      <clipPath clipPathUnits="userSpaceOnUse" id="clipPath1">
        <path d="M0 0 L783 0 L783 147 L0 147 L0 0 Z"/>
      </clipPath>
      <clipPath clipPathUnits="userSpaceOnUse" id="clipPath2">
        <path d="M100 212 L883 212 L883 359 L100 359 L100 212 Z"/>
      </clipPath>
    </defs>
    <g fill="silver" text-rendering="geometricPrecision" shape-rendering="geometricPrecision" transform="matrix(1,0,0,1,-100,-212)" stroke="silver">
      <rect x="265.5" width="123" height="39" y="319.5" clip-path="url(#clipPath2)" stroke="none"/>
    </g>
    <g font-size="18px" stroke-linecap="butt" transform="matrix(1,0,0,1,-100,-212)" text-rendering="geometricPrecision" font-family="'Fira Sans'" shape-rendering="geometricPrecision" font-weight="bold" stroke-miterlimit="1.45">
      <text x="297.7031" xml:space="preserve" y="345.0267" clip-path="url(#clipPath2)" stroke="none">Stack...</text>
    </g>
    <g fill="green" text-rendering="geometricPrecision" shape-rendering="geometricPrecision" transform="matrix(1,0,0,1,-100,-212)" stroke="green">
      <rect x="265.5" width="123" height="39" y="280.5" clip-path="url(#clipPath2)" stroke="none"/>
    </g>
    <g font-size="18px" stroke-linecap="butt" transform="matrix(1,0,0,1,-100,-212)" text-rendering="geometricPrecision" font-family="'Fira Sans'" shape-rendering="geometricPrecision" font-weight="bold" stroke-miterlimit="1.45">
      <text x="286.6392" xml:space="preserve" y="306.0267" clip-path="url(#clipPath2)" stroke="none">bar frame</text>
    </g>
    <g fill="green" text-rendering="geometricPrecision" shape-rendering="geometricPrecision" transform="matrix(1,0,0,1,-100,-212)" stroke="green">
      <rect x="430.3" width="123" height="39" y="241.5" clip-path="url(#clipPath2)" stroke="none"/>
    </g>
    <g font-size="18px" stroke-linecap="butt" transform="matrix(1,0,0,1,-100,-212)" text-rendering="geometricPrecision" font-family="'Fira Sans'" shape-rendering="geometricPrecision" font-weight="bold" stroke-miterlimit="1.45">
      <text x="451.6371" xml:space="preserve" y="267.0267" clip-path="url(#clipPath2)" stroke="none">foo frame</text>
    </g>
    <g fill="silver" text-rendering="geometricPrecision" shape-rendering="geometricPrecision" transform="matrix(1,0,0,1,-100,-212)" stroke="silver">
      <rect x="430.3" width="123" height="39" y="319.5" clip-path="url(#clipPath2)" stroke="none"/>
    </g>
    <g font-size="18px" stroke-linecap="butt" transform="matrix(1,0,0,1,-100,-212)" text-rendering="geometricPrecision" font-family="'Fira Sans'" shape-rendering="geometricPrecision" font-weight="bold" stroke-miterlimit="1.45">
      <text x="462.5031" xml:space="preserve" y="345.0267" clip-path="url(#clipPath2)" stroke="none">Stack...</text>
    </g>
    <g fill="rgb(204,255,204)" text-rendering="geometricPrecision" shape-rendering="geometricPrecision" transform="matrix(1,0,0,1,-100,-212)" stroke="rgb(204,255,204)">
      <rect x="430.3" width="123" height="39" y="280.5" clip-path="url(#clipPath2)" stroke="none"/>
    </g>
    <g font-size="18px" stroke-linecap="butt" transform="matrix(1,0,0,1,-100,-212)" text-rendering="geometricPrecision" font-family="'Fira Sans'" shape-rendering="geometricPrecision" font-weight="bold" stroke-miterlimit="1.45">
      <text x="451.4392" xml:space="preserve" y="306.0267" clip-path="url(#clipPath2)" stroke="none">bar frame</text>
    </g>
    <g fill="silver" text-rendering="geometricPrecision" shape-rendering="geometricPrecision" transform="matrix(1,0,0,1,-100,-212)" stroke="silver">
      <rect x="595.1" width="123" height="39" y="319.5" clip-path="url(#clipPath2)" stroke="none"/>
    </g>
    <g font-size="18px" stroke-linecap="butt" transform="matrix(1,0,0,1,-100,-212)" text-rendering="geometricPrecision" font-family="'Fira Sans'" shape-rendering="geometricPrecision" font-weight="bold" stroke-miterlimit="1.45">
      <text x="627.3031" xml:space="preserve" y="345.0267" clip-path="url(#clipPath2)" stroke="none">Stack...</text>
    </g>
    <g fill="green" text-rendering="geometricPrecision" shape-rendering="geometricPrecision" transform="matrix(1,0,0,1,-100,-212)" stroke="green">
      <rect x="595.1" width="123" height="39" y="280.5" clip-path="url(#clipPath2)" stroke="none"/>
    </g>
    <g font-size="18px" stroke-linecap="butt" transform="matrix(1,0,0,1,-100,-212)" text-rendering="geometricPrecision" font-family="'Fira Sans'" shape-rendering="geometricPrecision" font-weight="bold" stroke-miterlimit="1.45">
      <text x="616.2392" xml:space="preserve" y="306.0267" clip-path="url(#clipPath2)" stroke="none">bar frame</text>
    </g>
    <g fill="silver" text-rendering="geometricPrecision" shape-rendering="geometricPrecision" transform="matrix(1,0,0,1,-100,-212)" stroke="silver">
      <rect x="759.9" width="123" height="39" y="319.5" clip-path="url(#clipPath2)" stroke="none"/>
    </g>
    <g font-size="18px" stroke-linecap="butt" transform="matrix(1,0,0,1,-100,-212)" text-rendering="geometricPrecision" font-family="'Fira Sans'" shape-rendering="geometricPrecision" font-weight="bold" stroke-miterlimit="1.45">
      <text x="792.1031" xml:space="preserve" y="345.0267" clip-path="url(#clipPath2)" stroke="none">Stack...</text>
    </g>
    <g fill="silver" text-rendering="geometricPrecision" shape-rendering="geometricPrecision" transform="matrix(1,0,0,1,-100,-212)" stroke="silver">
      <rect x="100.7" width="123" height="39" y="319.5" clip-path="url(#clipPath2)" stroke="none"/>
    </g>
    <g font-size="18px" stroke-linecap="butt" transform="matrix(1,0,0,1,-100,-212)" text-rendering="geometricPrecision" font-family="'Fira Sans'" shape-rendering="geometricPrecision" font-weight="bold" stroke-miterlimit="1.45">
      <text x="132.9031" xml:space="preserve" y="345.0267" clip-path="url(#clipPath2)" stroke="none">Stack...</text>
      <path fill="none" d="M553.3015 256.4641 L556.25 256.7344 L561.7407 257.6898 L566.6759 259.0966 L571 261 L574.6667 263.4225 L577.6667 266.2963 L580 269.5312 L581.6667 273.037 L582.6667 276.7234 L583 280.5 L582.6667 284.2766 L581.6667 287.963 L580 291.4688 L577.6667 294.7037 L574.6667 297.5775 L571 300 L566.6759 301.9034 L561.7407 303.3102 L561.2205 303.4007 L561.1209 303.4098" clip-path="url(#clipPath2)"/>
      <path d="M553.2026 304.5501 L565.7927 307.7886 L562.1107 303.2673 L564.3673 297.8907 Z" stroke="none" clip-path="url(#clipPath2)"/>
      <text x="524.0709" y="237.0267" clip-path="url(#clipPath2)" font-family="'Fira Mono'" stroke="none" font-weight="normal" xml:space="preserve">return 2</text>
      <path fill="none" d="M327 280.5 L327 250.4943" clip-path="url(#clipPath2)"/>
      <path d="M327 242.4943 L322 254.4943 L327 251.4943 L332 254.4943 Z" stroke="none" clip-path="url(#clipPath2)"/>
      <text x="333.2122" y="266.3151" clip-path="url(#clipPath2)" font-family="'Fira Mono'" stroke="none" font-weight="normal" xml:space="preserve">foo()</text>
      <path fill="none" d="M718.1274 295.67 L718.8031 295.7344 L724.088 296.6898 L728.8381 298.0966 L733 300 L736.5292 302.4225 L739.4167 305.2963 L741.6625 308.5312 L743.2667 312.037 L744.2292 315.7234 L744.55 319.5 L744.2292 323.2766 L743.2667 326.963 L741.6625 330.4688 L739.4167 333.7037 L736.5292 336.5775 L733 339 L728.8381 340.9034 L725.9703 341.7527 L725.8718 341.7696" clip-path="url(#clipPath2)"/>
      <path d="M718.0294 343.3497 L730.7805 345.881 L726.8521 341.5721 L728.8054 336.078 Z" stroke="none" clip-path="url(#clipPath2)"/>
      <text x="664.8856" y="276.0267" clip-path="url(#clipPath2)" font-family="'Fira Mono'" stroke="none" font-weight="normal" xml:space="preserve">return foo()</text>
      <path fill="none" d="M162.2 319.5 L162.2 293" clip-path="url(#clipPath2)"/>
      <path d="M162.2 285 L157.2 297 L162.2 294 L167.2 297 Z" stroke="none" clip-path="url(#clipPath2)"/>
      <text x="168.4122" y="307.2767" clip-path="url(#clipPath2)" font-family="'Fira Mono'" stroke="none" font-weight="normal" xml:space="preserve">bar()</text>
    </g>
  </g>
</svg>
