<?xml version="1.0" encoding="UTF-8"?><svg xmlns="http://www.w3.org/2000/svg" xmlns:xlink="http://www.w3.org/1999/xlink" fill-opacity="1" color-rendering="auto" color-interpolation="auto" text-rendering="auto" stroke="black" stroke-linecap="square" width="467" stroke-miterlimit="10" shape-rendering="auto" stroke-opacity="1" fill="black" stroke-dasharray="none" font-weight="normal" stroke-width="1" height="302" font-family="'Dialog'" font-style="normal" stroke-linejoin="miter" font-size="12px" stroke-dashoffset="0" image-rendering="auto">
  <!--Generated by ySVG 2.5-->
  <defs id="genericDefs"/>
  <g>
    <defs id="defs1">
      <clipPath clipPathUnits="userSpaceOnUse" id="clipPath1">
        <path d="M0 0 L467 0 L467 302 L0 302 L0 0 Z"/>
      </clipPath>
      <clipPath clipPathUnits="userSpaceOnUse" id="clipPath2">
        <path d="M513 239 L980 239 L980 541 L513 541 L513 239 Z"/>
      </clipPath>
    </defs>
    <g fill="rgb(51,153,102)" text-rendering="geometricPrecision" shape-rendering="geometricPrecision" transform="matrix(1,0,0,1,-513,-239)" stroke="rgb(51,153,102)">
      <rect x="608.25" width="131" height="30" y="240" clip-path="url(#clipPath2)" stroke="none"/>
    </g>
    <g font-size="22px" stroke-linecap="butt" transform="matrix(1,0,0,1,-513,-239)" text-rendering="geometricPrecision" font-family="'Fira Mono'" shape-rendering="geometricPrecision" font-weight="bold" stroke-miterlimit="1.45">
      <text x="640.7681" xml:space="preserve" y="262.366" clip-path="url(#clipPath2)" stroke="none">tree0</text>
    </g>
    <g fill="rgb(255,204,0)" text-rendering="geometricPrecision" shape-rendering="geometricPrecision" transform="matrix(1,0,0,1,-513,-239)" stroke="rgb(255,204,0)">
      <rect x="646.75" width="54" height="30" y="325" clip-path="url(#clipPath2)" stroke="none"/>
    </g>
    <g font-size="22px" stroke-linecap="butt" transform="matrix(1,0,0,1,-513,-239)" text-rendering="geometricPrecision" font-family="'Fira Mono'" shape-rendering="geometricPrecision" font-weight="bold" stroke-miterlimit="1.45">
      <text x="653.9609" xml:space="preserve" y="347.366" clip-path="url(#clipPath2)" stroke="none">0-7</text>
    </g>
    <g fill="rgb(255,204,0)" text-rendering="geometricPrecision" shape-rendering="geometricPrecision" transform="matrix(1,0,0,1,-513,-239)" stroke="rgb(255,204,0)">
      <rect x="563.75" width="54" height="30" y="385" clip-path="url(#clipPath2)" stroke="none"/>
    </g>
    <g font-size="22px" stroke-linecap="butt" transform="matrix(1,0,0,1,-513,-239)" text-rendering="geometricPrecision" font-family="'Fira Mono'" shape-rendering="geometricPrecision" font-weight="bold" stroke-miterlimit="1.45">
      <text x="570.9609" xml:space="preserve" y="407.366" clip-path="url(#clipPath2)" stroke="none">0-3</text>
    </g>
    <g stroke-linecap="butt" transform="matrix(1,0,0,1,-513,-239)" fill="red" text-rendering="geometricPrecision" shape-rendering="geometricPrecision" stroke="red" stroke-width="2" stroke-miterlimit="1.45">
      <rect fill="none" x="563.75" width="54" height="30" y="385" clip-path="url(#clipPath2)"/>
    </g>
    <g fill="rgb(255,204,0)" text-rendering="geometricPrecision" shape-rendering="geometricPrecision" transform="matrix(1,0,0,1,-513,-239)" stroke="rgb(255,204,0)">
      <rect x="729.75" width="54" height="30" y="385" clip-path="url(#clipPath2)" stroke="none"/>
    </g>
    <g font-size="22px" stroke-linecap="butt" transform="matrix(1,0,0,1,-513,-239)" text-rendering="geometricPrecision" font-family="'Fira Mono'" shape-rendering="geometricPrecision" font-weight="bold" stroke-miterlimit="1.45">
      <text x="736.9609" xml:space="preserve" y="407.366" clip-path="url(#clipPath2)" stroke="none">4-7</text>
    </g>
    <g fill="rgb(255,204,0)" text-rendering="geometricPrecision" shape-rendering="geometricPrecision" transform="matrix(1,0,0,1,-513,-239)" stroke="rgb(255,204,0)">
      <rect x="522.25" width="54" height="30" y="435" clip-path="url(#clipPath2)" stroke="none"/>
    </g>
    <g font-size="22px" stroke-linecap="butt" transform="matrix(1,0,0,1,-513,-239)" text-rendering="geometricPrecision" font-family="'Fira Mono'" shape-rendering="geometricPrecision" font-weight="bold" stroke-miterlimit="1.45">
      <text x="529.4609" xml:space="preserve" y="457.366" clip-path="url(#clipPath2)" stroke="none">0-1</text>
    </g>
    <g stroke-linecap="butt" transform="matrix(1,0,0,1,-513,-239)" fill="red" text-rendering="geometricPrecision" shape-rendering="geometricPrecision" stroke="red" stroke-width="2" stroke-miterlimit="1.45">
      <rect fill="none" x="522.25" width="54" height="30" y="435" clip-path="url(#clipPath2)"/>
    </g>
    <g fill="rgb(255,204,0)" text-rendering="geometricPrecision" shape-rendering="geometricPrecision" transform="matrix(1,0,0,1,-513,-239)" stroke="rgb(255,204,0)">
      <rect x="513" width="31" height="30" y="483" clip-path="url(#clipPath2)" stroke="none"/>
    </g>
    <g font-size="22px" stroke-linecap="butt" transform="matrix(1,0,0,1,-513,-239)" text-rendering="geometricPrecision" font-family="'Fira Mono'" shape-rendering="geometricPrecision" font-weight="bold" stroke-miterlimit="1.45">
      <text x="521.9036" xml:space="preserve" y="505.366" clip-path="url(#clipPath2)" stroke="none">0</text>
    </g>
    <g stroke-linecap="butt" transform="matrix(1,0,0,1,-513,-239)" fill="red" text-rendering="geometricPrecision" shape-rendering="geometricPrecision" stroke="red" stroke-width="2" stroke-miterlimit="1.45">
      <rect fill="none" x="513" width="31" height="30" y="483" clip-path="url(#clipPath2)"/>
    </g>
    <g fill="rgb(255,204,0)" text-rendering="geometricPrecision" shape-rendering="geometricPrecision" transform="matrix(1,0,0,1,-513,-239)" stroke="rgb(255,204,0)">
      <rect x="554.5" width="31" height="30" y="483" clip-path="url(#clipPath2)" stroke="none"/>
    </g>
    <g font-size="22px" stroke-linecap="butt" transform="matrix(1,0,0,1,-513,-239)" text-rendering="geometricPrecision" font-family="'Fira Mono'" shape-rendering="geometricPrecision" font-weight="bold" stroke-miterlimit="1.45">
      <text x="563.4036" xml:space="preserve" y="505.366" clip-path="url(#clipPath2)" stroke="none">1</text>
    </g>
    <g stroke-linecap="butt" transform="matrix(1,0,0,1,-513,-239)" fill="red" text-rendering="geometricPrecision" shape-rendering="geometricPrecision" stroke="red" stroke-width="2" stroke-miterlimit="1.45">
      <rect fill="none" x="554.5" width="31" height="30" y="483" clip-path="url(#clipPath2)"/>
    </g>
    <g fill="rgb(255,204,0)" text-rendering="geometricPrecision" shape-rendering="geometricPrecision" transform="matrix(1,0,0,1,-513,-239)" stroke="rgb(255,204,0)">
      <rect x="596" width="31" height="30" y="483" clip-path="url(#clipPath2)" stroke="none"/>
    </g>
    <g font-size="22px" stroke-linecap="butt" transform="matrix(1,0,0,1,-513,-239)" text-rendering="geometricPrecision" font-family="'Fira Mono'" shape-rendering="geometricPrecision" font-weight="bold" stroke-miterlimit="1.45">
      <text x="604.9036" xml:space="preserve" y="505.366" clip-path="url(#clipPath2)" stroke="none">2</text>
    </g>
    <g stroke-linecap="butt" transform="matrix(1,0,0,1,-513,-239)" fill="red" text-rendering="geometricPrecision" shape-rendering="geometricPrecision" stroke="red" stroke-width="2" stroke-miterlimit="1.45">
      <rect fill="none" x="596" width="31" height="30" y="483" clip-path="url(#clipPath2)"/>
    </g>
    <g fill="rgb(255,204,0)" text-rendering="geometricPrecision" shape-rendering="geometricPrecision" transform="matrix(1,0,0,1,-513,-239)" stroke="rgb(255,204,0)">
      <rect x="637.5" width="31" height="30" y="483" clip-path="url(#clipPath2)" stroke="none"/>
    </g>
    <g font-size="22px" stroke-linecap="butt" transform="matrix(1,0,0,1,-513,-239)" text-rendering="geometricPrecision" font-family="'Fira Mono'" shape-rendering="geometricPrecision" font-weight="bold" stroke-miterlimit="1.45">
      <text x="646.4036" xml:space="preserve" y="505.366" clip-path="url(#clipPath2)" stroke="none">3</text>
    </g>
    <g stroke-linecap="butt" transform="matrix(1,0,0,1,-513,-239)" fill="red" text-rendering="geometricPrecision" shape-rendering="geometricPrecision" stroke="red" stroke-width="2" stroke-miterlimit="1.45">
      <rect fill="none" x="637.5" width="31" height="30" y="483" clip-path="url(#clipPath2)"/>
    </g>
    <g fill="rgb(255,204,0)" text-rendering="geometricPrecision" shape-rendering="geometricPrecision" transform="matrix(1,0,0,1,-513,-239)" stroke="rgb(255,204,0)">
      <rect x="679" width="31" height="30" y="483" clip-path="url(#clipPath2)" stroke="none"/>
    </g>
    <g font-size="22px" stroke-linecap="butt" transform="matrix(1,0,0,1,-513,-239)" text-rendering="geometricPrecision" font-family="'Fira Mono'" shape-rendering="geometricPrecision" font-weight="bold" stroke-miterlimit="1.45">
      <text x="687.9036" xml:space="preserve" y="505.366" clip-path="url(#clipPath2)" stroke="none">4</text>
    </g>
    <g stroke-linecap="butt" transform="matrix(1,0,0,1,-513,-239)" fill="red" text-rendering="geometricPrecision" shape-rendering="geometricPrecision" stroke="red" stroke-width="2" stroke-miterlimit="1.45">
      <rect fill="none" x="679" width="31" height="30" y="483" clip-path="url(#clipPath2)"/>
    </g>
    <g fill="rgb(255,204,0)" text-rendering="geometricPrecision" shape-rendering="geometricPrecision" transform="matrix(1,0,0,1,-513,-239)" stroke="rgb(255,204,0)">
      <rect x="720.5" width="31" height="30" y="483" clip-path="url(#clipPath2)" stroke="none"/>
    </g>
    <g font-size="22px" stroke-linecap="butt" transform="matrix(1,0,0,1,-513,-239)" text-rendering="geometricPrecision" font-family="'Fira Mono'" shape-rendering="geometricPrecision" font-weight="bold" stroke-miterlimit="1.45">
      <text x="729.4036" xml:space="preserve" y="505.366" clip-path="url(#clipPath2)" stroke="none">5</text>
    </g>
    <g fill="rgb(255,204,0)" text-rendering="geometricPrecision" shape-rendering="geometricPrecision" transform="matrix(1,0,0,1,-513,-239)" stroke="rgb(255,204,0)">
      <rect x="762" width="31" height="30" y="483" clip-path="url(#clipPath2)" stroke="none"/>
    </g>
    <g font-size="22px" stroke-linecap="butt" transform="matrix(1,0,0,1,-513,-239)" text-rendering="geometricPrecision" font-family="'Fira Mono'" shape-rendering="geometricPrecision" font-weight="bold" stroke-miterlimit="1.45">
      <text x="770.9036" xml:space="preserve" y="505.366" clip-path="url(#clipPath2)" stroke="none">6</text>
    </g>
    <g stroke-linecap="butt" transform="matrix(1,0,0,1,-513,-239)" fill="red" text-rendering="geometricPrecision" shape-rendering="geometricPrecision" stroke="red" stroke-width="2" stroke-miterlimit="1.45">
      <rect fill="none" x="762" width="31" height="30" y="483" clip-path="url(#clipPath2)"/>
    </g>
    <g fill="rgb(255,204,0)" text-rendering="geometricPrecision" shape-rendering="geometricPrecision" transform="matrix(1,0,0,1,-513,-239)" stroke="rgb(255,204,0)">
      <rect x="803.5" width="31" height="30" y="483" clip-path="url(#clipPath2)" stroke="none"/>
    </g>
    <g font-size="22px" stroke-linecap="butt" transform="matrix(1,0,0,1,-513,-239)" text-rendering="geometricPrecision" font-family="'Fira Mono'" shape-rendering="geometricPrecision" font-weight="bold" stroke-miterlimit="1.45">
      <text x="812.4036" xml:space="preserve" y="505.366" clip-path="url(#clipPath2)" stroke="none">7</text>
    </g>
    <g stroke-linecap="butt" transform="matrix(1,0,0,1,-513,-239)" fill="red" text-rendering="geometricPrecision" shape-rendering="geometricPrecision" stroke="red" stroke-width="2" stroke-miterlimit="1.45">
      <rect fill="none" x="803.5" width="31" height="30" y="483" clip-path="url(#clipPath2)"/>
    </g>
    <g fill="rgb(255,204,0)" text-rendering="geometricPrecision" shape-rendering="geometricPrecision" transform="matrix(1,0,0,1,-513,-239)" stroke="rgb(255,204,0)">
      <rect x="605.25" width="54" height="30" y="435" clip-path="url(#clipPath2)" stroke="none"/>
    </g>
    <g font-size="22px" stroke-linecap="butt" transform="matrix(1,0,0,1,-513,-239)" text-rendering="geometricPrecision" font-family="'Fira Mono'" shape-rendering="geometricPrecision" font-weight="bold" stroke-miterlimit="1.45">
      <text x="612.4609" xml:space="preserve" y="457.366" clip-path="url(#clipPath2)" stroke="none">2-3</text>
    </g>
    <g stroke-linecap="butt" transform="matrix(1,0,0,1,-513,-239)" fill="red" text-rendering="geometricPrecision" shape-rendering="geometricPrecision" stroke="red" stroke-width="2" stroke-miterlimit="1.45">
      <rect fill="none" x="605.25" width="54" height="30" y="435" clip-path="url(#clipPath2)"/>
    </g>
    <g fill="rgb(255,204,0)" text-rendering="geometricPrecision" shape-rendering="geometricPrecision" transform="matrix(1,0,0,1,-513,-239)" stroke="rgb(255,204,0)">
      <rect x="688.25" width="54" height="30" y="435" clip-path="url(#clipPath2)" stroke="none"/>
    </g>
    <g font-size="22px" stroke-linecap="butt" transform="matrix(1,0,0,1,-513,-239)" text-rendering="geometricPrecision" font-family="'Fira Mono'" shape-rendering="geometricPrecision" font-weight="bold" stroke-miterlimit="1.45">
      <text x="695.4609" xml:space="preserve" y="457.366" clip-path="url(#clipPath2)" stroke="none">4-5</text>
    </g>
    <g fill="rgb(255,204,0)" text-rendering="geometricPrecision" shape-rendering="geometricPrecision" transform="matrix(1,0,0,1,-513,-239)" stroke="rgb(255,204,0)">
      <rect x="771.25" width="54" height="30" y="435" clip-path="url(#clipPath2)" stroke="none"/>
    </g>
    <g font-size="22px" stroke-linecap="butt" transform="matrix(1,0,0,1,-513,-239)" text-rendering="geometricPrecision" font-family="'Fira Mono'" shape-rendering="geometricPrecision" font-weight="bold" stroke-miterlimit="1.45">
      <text x="778.4609" xml:space="preserve" y="457.366" clip-path="url(#clipPath2)" stroke="none">6-7</text>
    </g>
    <g stroke-linecap="butt" transform="matrix(1,0,0,1,-513,-239)" fill="red" text-rendering="geometricPrecision" shape-rendering="geometricPrecision" stroke="red" stroke-width="2" stroke-miterlimit="1.45">
      <rect fill="none" x="771.25" width="54" height="30" y="435" clip-path="url(#clipPath2)"/>
    </g>
    <g fill="rgb(51,153,102)" text-rendering="geometricPrecision" shape-rendering="geometricPrecision" transform="matrix(1,0,0,1,-513,-239)" stroke="rgb(51,153,102)">
      <rect x="804.5" width="131" height="30" y="240" clip-path="url(#clipPath2)" stroke="none"/>
    </g>
    <g font-size="22px" stroke-linecap="butt" transform="matrix(1,0,0,1,-513,-239)" text-rendering="geometricPrecision" font-family="'Fira Mono'" shape-rendering="geometricPrecision" font-weight="bold" stroke-miterlimit="1.45">
      <text x="837.0181" xml:space="preserve" y="262.366" clip-path="url(#clipPath2)" stroke="none">tree0</text>
    </g>
    <g fill="rgb(255,204,0)" text-rendering="geometricPrecision" shape-rendering="geometricPrecision" transform="matrix(1,0,0,1,-513,-239)" stroke="rgb(255,204,0)">
      <rect x="843" width="54" height="30" y="325" clip-path="url(#clipPath2)" stroke="none"/>
    </g>
    <g font-size="22px" stroke-linecap="butt" transform="matrix(1,0,0,1,-513,-239)" text-rendering="geometricPrecision" font-family="'Fira Mono'" shape-rendering="geometricPrecision" font-weight="bold" stroke-miterlimit="1.45">
      <text x="850.2109" xml:space="preserve" y="347.366" clip-path="url(#clipPath2)" stroke="none">0-7</text>
    </g>
    <g fill="rgb(255,204,0)" text-rendering="geometricPrecision" shape-rendering="geometricPrecision" transform="matrix(1,0,0,1,-513,-239)" stroke="rgb(255,204,0)">
      <rect x="926" width="54" height="30" y="385" clip-path="url(#clipPath2)" stroke="none"/>
    </g>
    <g font-size="22px" stroke-linecap="butt" transform="matrix(1,0,0,1,-513,-239)" text-rendering="geometricPrecision" font-family="'Fira Mono'" shape-rendering="geometricPrecision" font-weight="bold" stroke-miterlimit="1.45">
      <text x="933.2109" xml:space="preserve" y="407.366" clip-path="url(#clipPath2)" stroke="none">4-7</text>
    </g>
    <g fill="rgb(255,204,0)" text-rendering="geometricPrecision" shape-rendering="geometricPrecision" transform="matrix(1,0,0,1,-513,-239)" stroke="rgb(255,204,0)">
      <rect x="916.75" width="31" height="30" y="483" clip-path="url(#clipPath2)" stroke="none"/>
    </g>
    <g font-size="22px" stroke-linecap="butt" transform="matrix(1,0,0,1,-513,-239)" text-rendering="geometricPrecision" font-family="'Fira Mono'" shape-rendering="geometricPrecision" font-weight="bold" stroke-miterlimit="1.45">
      <text x="925.6536" xml:space="preserve" y="505.366" clip-path="url(#clipPath2)" stroke="none">5</text>
    </g>
    <g fill="rgb(255,204,0)" text-rendering="geometricPrecision" shape-rendering="geometricPrecision" transform="matrix(1,0,0,1,-513,-239)" stroke="rgb(255,204,0)">
      <rect x="884.5" width="54" height="30" y="435" clip-path="url(#clipPath2)" stroke="none"/>
    </g>
    <g font-size="22px" stroke-linecap="butt" transform="matrix(1,0,0,1,-513,-239)" text-rendering="geometricPrecision" font-family="'Fira Mono'" shape-rendering="geometricPrecision" font-weight="bold" stroke-miterlimit="1.45">
      <text x="891.7109" xml:space="preserve" y="457.366" clip-path="url(#clipPath2)" stroke="none">4-5</text>
    </g>
    <g stroke-linecap="butt" transform="matrix(1,0,0,1,-513,-239)" fill="rgb(51,153,102)" text-rendering="geometricPrecision" shape-rendering="geometricPrecision" stroke="rgb(51,153,102)" stroke-width="2" stroke-miterlimit="1.45">
      <path fill="none" d="M673.75 270 L673.75 316" clip-path="url(#clipPath2)"/>
      <path d="M673.75 325 L679.375 311.5 L673.75 314.875 L668.125 311.5 Z" clip-path="url(#clipPath2)" stroke="none"/>
      <path fill="none" d="M653 355 L617.9834 380.3132" stroke-width="1" clip-path="url(#clipPath2)" stroke="black"/>
      <path fill="black" d="M611.5 385 L624.1543 382.022 L618.7938 379.7274 L618.2958 373.9178 Z" stroke-width="1" clip-path="url(#clipPath2)" stroke="none"/>
      <path fill="none" d="M694.5 355 L729.5166 380.3132" stroke-width="1" clip-path="url(#clipPath2)" stroke="black"/>
      <path fill="black" d="M736 385 L729.2042 373.9178 L728.7062 379.7274 L723.3457 382.022 Z" stroke-width="1" clip-path="url(#clipPath2)" stroke="none"/>
      <path fill="none" d="M578.3 415 L566.8094 428.8441" stroke-width="1" clip-path="url(#clipPath2)" stroke="black"/>
      <path fill="black" d="M561.7 435 L573.2115 428.9596 L567.4481 428.0747 L565.5167 422.5729 Z" stroke-width="1" clip-path="url(#clipPath2)" stroke="none"/>
      <path fill="none" d="M542.7656 465 L538.1588 475.6568" stroke-width="1" clip-path="url(#clipPath2)" stroke="black"/>
      <path fill="black" d="M534.9844 483 L544.3356 473.9692 L538.5556 474.7389 L535.1565 470.0011 Z" stroke-width="1" clip-path="url(#clipPath2)" stroke="none"/>
      <path fill="none" d="M555.7344 465 L560.3412 475.6568" stroke-width="1" clip-path="url(#clipPath2)" stroke="black"/>
      <path fill="black" d="M563.5156 483 L563.3435 470.0011 L559.9444 474.7389 L554.1644 473.9692 Z" stroke-width="1" clip-path="url(#clipPath2)" stroke="none"/>
      <path fill="none" d="M603.2 415 L614.6906 428.8441" stroke-width="1" clip-path="url(#clipPath2)" stroke="black"/>
      <path fill="black" d="M619.8 435 L615.9833 422.5729 L614.0519 428.0747 L608.2885 428.9596 Z" stroke-width="1" clip-path="url(#clipPath2)" stroke="none"/>
      <path fill="none" d="M625.7656 465 L621.1588 475.6568" stroke-width="1" clip-path="url(#clipPath2)" stroke="black"/>
      <path fill="black" d="M617.9844 483 L627.3356 473.9692 L621.5556 474.7389 L618.1565 470.0011 Z" stroke-width="1" clip-path="url(#clipPath2)" stroke="none"/>
      <path fill="none" d="M638.7344 465 L643.3412 475.6568" stroke-width="1" clip-path="url(#clipPath2)" stroke="black"/>
      <path fill="black" d="M646.5156 483 L646.3435 470.0011 L642.9444 474.7389 L637.1644 473.9692 Z" stroke-width="1" clip-path="url(#clipPath2)" stroke="none"/>
      <path fill="none" d="M744.3 415 L732.8094 428.8441" stroke-width="1" clip-path="url(#clipPath2)" stroke="black"/>
      <path fill="black" d="M727.7 435 L739.2115 428.9596 L733.4481 428.0747 L731.5167 422.5729 Z" stroke-width="1" clip-path="url(#clipPath2)" stroke="none"/>
      <path fill="none" d="M708.7656 465 L704.1588 475.6568" stroke-width="1" clip-path="url(#clipPath2)" stroke="black"/>
      <path fill="black" d="M700.9844 483 L710.3356 473.9692 L704.5556 474.7389 L701.1565 470.0011 Z" stroke-width="1" clip-path="url(#clipPath2)" stroke="none"/>
      <path fill="none" d="M721.7344 465 L726.3412 475.6568" stroke-width="1" clip-path="url(#clipPath2)" stroke="black"/>
      <path fill="black" d="M729.5156 483 L729.3435 470.0011 L725.9444 474.7389 L720.1644 473.9692 Z" stroke-width="1" clip-path="url(#clipPath2)" stroke="none"/>
      <path fill="none" d="M769.2 415 L780.6906 428.8441" stroke-width="1" clip-path="url(#clipPath2)" stroke="black"/>
      <path fill="black" d="M785.8 435 L781.9833 422.5729 L780.0519 428.0747 L774.2885 428.9596 Z" stroke-width="1" clip-path="url(#clipPath2)" stroke="none"/>
      <path fill="none" d="M791.7656 465 L787.1588 475.6568" stroke-width="1" clip-path="url(#clipPath2)" stroke="black"/>
      <path fill="black" d="M783.9844 483 L793.3356 473.9692 L787.5556 474.7389 L784.1565 470.0011 Z" stroke-width="1" clip-path="url(#clipPath2)" stroke="none"/>
      <path fill="none" d="M804.7344 465 L809.3412 475.6568" stroke-width="1" clip-path="url(#clipPath2)" stroke="black"/>
      <path fill="black" d="M812.5156 483 L812.3435 470.0011 L808.9444 474.7389 L803.1644 473.9692 Z" stroke-width="1" clip-path="url(#clipPath2)" stroke="none"/>
      <path fill="none" d="M870 270 L870 316" clip-path="url(#clipPath2)"/>
      <path d="M870 325 L875.625 311.5 L870 314.875 L864.375 311.5 Z" clip-path="url(#clipPath2)" stroke="none"/>
      <path fill="none" d="M843 345.8012 L625.5715 392.5182" stroke-width="1" clip-path="url(#clipPath2)" stroke="black"/>
      <path fill="black" d="M617.75 394.1987 L630.5326 396.5663 L626.5492 392.3081 L628.4319 386.7895 Z" stroke-width="1" clip-path="url(#clipPath2)" stroke="none"/>
      <path fill="none" d="M890.75 355 L925.7666 380.3132" stroke-width="1" clip-path="url(#clipPath2)" stroke="black"/>
      <path fill="black" d="M932.25 385 L925.4542 373.9178 L924.9562 379.7274 L919.5957 382.022 Z" stroke-width="1" clip-path="url(#clipPath2)" stroke="none"/>
      <path fill="none" d="M964.6921 415.0016 L965.2365 415.8445 L966.65 418.55 L967.4996 421.0027 L967.6913 423.1605 L967.1312 424.9813 L965.7253 426.4229 L963.3796 427.4431 L960 428 L955.5305 428.0726 L950.0663 427.7253 L943.7406 427.0438 L936.6864 426.1136 L929.0369 425.0204 L920.925 423.85 L912.484 422.6879 L903.8469 421.6198 L895.1469 420.7313 L886.517 420.108 L878.0903 419.8357 L870 420 L862.3504 420.665 L855.1312 421.8087 L848.3031 423.3875 L841.8271 425.358 L835.6642 427.6767 L829.775 430.3 L827.9716 431.2199 L827.8847 431.2693" stroke-width="1" clip-path="url(#clipPath2)" stroke="black"/>
      <path fill="black" d="M820.834 435.0492 L833.7725 433.7861 L828.7661 430.7968 L829.0477 424.9727 Z" stroke-width="1" clip-path="url(#clipPath2)" stroke="none"/>
      <path fill="none" d="M940.55 415 L929.0594 428.8441" stroke-width="1" clip-path="url(#clipPath2)" stroke="black"/>
      <path fill="black" d="M923.95 435 L935.4615 428.9596 L929.6981 428.0747 L927.7667 422.5729 Z" stroke-width="1" clip-path="url(#clipPath2)" stroke="none"/>
      <path fill="none" d="M917.9844 465 L922.5912 475.6568" stroke-width="1" clip-path="url(#clipPath2)" stroke="black"/>
      <path fill="black" d="M925.7656 483 L925.5935 470.0011 L922.1944 474.7389 L916.4144 473.9692 Z" stroke-width="1" clip-path="url(#clipPath2)" stroke="none"/>
      <path fill="none" d="M906.9227 464.9734 L906.6875 465.75 L904.8395 470.9482 L902.6396 476.1018 L900 481.2 L896.8326 486.2315 L893.0494 491.1852 L888.5625 496.05 L883.2839 500.8148 L877.1258 505.4685 L870 510 L861.8609 514.3919 L852.8318 518.6019 L843.0781 522.5812 L832.7654 526.2815 L822.0592 529.6539 L811.125 532.65 L800.1283 535.2211 L789.2346 537.3185 L778.6094 538.8937 L768.4182 539.8981 L758.8266 540.2831 L750 540 L742.0635 539.0183 L734.9799 537.3796 L728.6719 535.1437 L723.0617 532.3704 L718.072 529.1192 L713.625 525.45 L709.6433 521.4225 L707.9359 519.3671 L707.8774 519.2859" stroke-width="1" clip-path="url(#clipPath2)" stroke="black"/>
      <path fill="black" d="M703.0386 512.9152 L706.3151 525.4955 L708.4823 520.0823 L714.2786 519.447 Z" stroke-width="1" clip-path="url(#clipPath2)" stroke="none"/>
    </g>
  </g>
</svg>
