<?xml version="1.0" encoding="UTF-8"?><svg xmlns="http://www.w3.org/2000/svg" xmlns:xlink="http://www.w3.org/1999/xlink" fill-opacity="1" color-rendering="auto" color-interpolation="auto" text-rendering="auto" stroke="black" stroke-linecap="square" width="517" stroke-miterlimit="10" shape-rendering="auto" stroke-opacity="1" fill="black" stroke-dasharray="none" font-weight="normal" stroke-width="1" height="242" font-family="'Dialog'" font-style="normal" stroke-linejoin="miter" font-size="12px" stroke-dashoffset="0" image-rendering="auto">
  <!--Generated by ySVG 2.5-->
  <defs id="genericDefs"/>
  <g>
    <defs id="defs1">
      <clipPath clipPathUnits="userSpaceOnUse" id="clipPath1">
        <path d="M0 0 L517 0 L517 242 L0 242 L0 0 Z"/>
      </clipPath>
      <clipPath clipPathUnits="userSpaceOnUse" id="clipPath2">
        <path d="M129 134 L646 134 L646 376 L129 376 L129 134 Z"/>
      </clipPath>
    </defs>
    <g fill="rgb(255,204,0)" text-rendering="geometricPrecision" shape-rendering="geometricPrecision" transform="matrix(1,0,0,1,-129,-134)" stroke="rgb(255,204,0)">
      <rect x="435" width="30" height="30" y="285" clip-path="url(#clipPath2)" stroke="none"/>
    </g>
    <g font-size="22px" stroke-linecap="butt" transform="matrix(1,0,0,1,-129,-134)" text-rendering="geometricPrecision" font-family="'Fira Mono'" shape-rendering="geometricPrecision" font-weight="bold" stroke-miterlimit="1.45">
      <text x="443.4036" xml:space="preserve" y="307.366" clip-path="url(#clipPath2)" stroke="none">c</text>
    </g>
    <g fill="rgb(255,204,0)" text-rendering="geometricPrecision" shape-rendering="geometricPrecision" transform="matrix(1,0,0,1,-129,-134)" stroke="rgb(255,204,0)">
      <rect x="495" width="30" height="30" y="285" clip-path="url(#clipPath2)" stroke="none"/>
    </g>
    <g font-size="22px" stroke-linecap="butt" transform="matrix(1,0,0,1,-129,-134)" text-rendering="geometricPrecision" font-family="'Fira Mono'" shape-rendering="geometricPrecision" font-weight="bold" stroke-miterlimit="1.45">
      <text x="503.4036" xml:space="preserve" y="307.366" clip-path="url(#clipPath2)" stroke="none">d</text>
    </g>
    <g fill="rgb(255,204,0)" text-rendering="geometricPrecision" shape-rendering="geometricPrecision" transform="matrix(1,0,0,1,-129,-134)" stroke="rgb(255,204,0)">
      <rect x="555" width="30" height="30" y="285" clip-path="url(#clipPath2)" stroke="none"/>
    </g>
    <g font-size="22px" stroke-linecap="butt" transform="matrix(1,0,0,1,-129,-134)" text-rendering="geometricPrecision" font-family="'Fira Mono'" shape-rendering="geometricPrecision" font-weight="bold" stroke-miterlimit="1.45">
      <text x="563.4036" xml:space="preserve" y="307.366" clip-path="url(#clipPath2)" stroke="none">e</text>
    </g>
    <g fill="white" text-rendering="geometricPrecision" shape-rendering="geometricPrecision" transform="matrix(1,0,0,1,-129,-134)" stroke="white">
      <rect x="615" width="30" height="30" y="285" clip-path="url(#clipPath2)" stroke="none"/>
    </g>
    <g font-size="22px" stroke-linecap="butt" transform="matrix(1,0,0,1,-129,-134)" text-rendering="geometricPrecision" font-family="'Fira Mono'" shape-rendering="geometricPrecision" font-weight="bold" stroke-miterlimit="1.45">
      <text x="616.8073" xml:space="preserve" y="307.366" clip-path="url(#clipPath2)" stroke="none">[]</text>
    </g>
    <g fill="rgb(255,204,0)" text-rendering="geometricPrecision" shape-rendering="geometricPrecision" transform="matrix(1,0,0,1,-129,-134)" stroke="rgb(255,204,0)">
      <rect x="435" width="30" height="30" y="345" clip-path="url(#clipPath2)" stroke="none"/>
    </g>
    <g font-size="22px" stroke-linecap="butt" transform="matrix(1,0,0,1,-129,-134)" text-rendering="geometricPrecision" font-family="'Fira Mono'" shape-rendering="geometricPrecision" font-weight="bold" stroke-miterlimit="1.45">
      <text x="443.4036" xml:space="preserve" y="367.366" clip-path="url(#clipPath2)" stroke="none">x</text>
    </g>
    <g fill="rgb(255,204,0)" text-rendering="geometricPrecision" shape-rendering="geometricPrecision" transform="matrix(1,0,0,1,-129,-134)" stroke="rgb(255,204,0)">
      <rect x="495" width="30" height="30" y="345" clip-path="url(#clipPath2)" stroke="none"/>
    </g>
    <g font-size="22px" stroke-linecap="butt" transform="matrix(1,0,0,1,-129,-134)" text-rendering="geometricPrecision" font-family="'Fira Mono'" shape-rendering="geometricPrecision" font-weight="bold" stroke-miterlimit="1.45">
      <text x="503.4036" xml:space="preserve" y="367.366" clip-path="url(#clipPath2)" stroke="none">y</text>
    </g>
    <g fill="rgb(255,204,0)" text-rendering="geometricPrecision" shape-rendering="geometricPrecision" transform="matrix(1,0,0,1,-129,-134)" stroke="rgb(255,204,0)">
      <rect x="555" width="30" height="30" y="345" clip-path="url(#clipPath2)" stroke="none"/>
    </g>
    <g font-size="22px" stroke-linecap="butt" transform="matrix(1,0,0,1,-129,-134)" text-rendering="geometricPrecision" font-family="'Fira Mono'" shape-rendering="geometricPrecision" font-weight="bold" stroke-miterlimit="1.45">
      <text x="563.4036" xml:space="preserve" y="367.366" clip-path="url(#clipPath2)" stroke="none">z</text>
    </g>
    <g fill="white" text-rendering="geometricPrecision" shape-rendering="geometricPrecision" transform="matrix(1,0,0,1,-129,-134)" stroke="white">
      <rect x="615" width="30" height="30" y="345" clip-path="url(#clipPath2)" stroke="none"/>
    </g>
    <g font-size="22px" stroke-linecap="butt" transform="matrix(1,0,0,1,-129,-134)" text-rendering="geometricPrecision" font-family="'Fira Mono'" shape-rendering="geometricPrecision" font-weight="bold" stroke-miterlimit="1.45">
      <text x="616.8073" xml:space="preserve" y="367.366" clip-path="url(#clipPath2)" stroke="none">[]</text>
    </g>
    <g fill="rgb(51,153,102)" text-rendering="geometricPrecision" shape-rendering="geometricPrecision" transform="matrix(1,0,0,1,-129,-134)" stroke="rgb(51,153,102)">
      <rect x="129" width="131" height="30" y="285" clip-path="url(#clipPath2)" stroke="none"/>
    </g>
    <g font-size="22px" stroke-linecap="butt" transform="matrix(1,0,0,1,-129,-134)" text-rendering="geometricPrecision" font-family="'Fira Mono'" shape-rendering="geometricPrecision" font-weight="bold" stroke-miterlimit="1.45">
      <text x="168.1145" xml:space="preserve" y="307.366" clip-path="url(#clipPath2)" stroke="none">que0</text>
    </g>
    <g fill="rgb(51,153,102)" text-rendering="geometricPrecision" shape-rendering="geometricPrecision" transform="matrix(1,0,0,1,-129,-134)" stroke="rgb(51,153,102)">
      <rect x="129" width="131" height="30" y="165" clip-path="url(#clipPath2)" stroke="none"/>
    </g>
    <g font-size="22px" stroke-linecap="butt" transform="matrix(1,0,0,1,-129,-134)" text-rendering="geometricPrecision" font-family="'Fira Mono'" shape-rendering="geometricPrecision" font-weight="bold" stroke-miterlimit="1.45">
      <text x="168.1145" xml:space="preserve" y="187.366" clip-path="url(#clipPath2)" stroke="none">que2</text>
    </g>
    <g fill="white" text-rendering="geometricPrecision" shape-rendering="geometricPrecision" transform="matrix(1,0,0,1,-129,-134)" stroke="white">
      <rect x="615" width="30" height="30" y="135" clip-path="url(#clipPath2)" stroke="none"/>
    </g>
    <g font-size="22px" stroke-linecap="butt" transform="matrix(1,0,0,1,-129,-134)" text-rendering="geometricPrecision" font-family="'Fira Mono'" shape-rendering="geometricPrecision" font-weight="bold" stroke-miterlimit="1.45">
      <text x="616.8073" xml:space="preserve" y="157.366" clip-path="url(#clipPath2)" stroke="none">[]</text>
    </g>
    <g fill="white" text-rendering="geometricPrecision" shape-rendering="geometricPrecision" transform="matrix(1,0,0,1,-129,-134)" stroke="white">
      <rect x="615" width="30" height="30" y="185" clip-path="url(#clipPath2)" stroke="none"/>
    </g>
    <g font-size="22px" stroke-linecap="butt" transform="matrix(1,0,0,1,-129,-134)" text-rendering="geometricPrecision" font-family="'Fira Mono'" shape-rendering="geometricPrecision" font-weight="bold" stroke-miterlimit="1.45">
      <text x="616.8073" xml:space="preserve" y="207.366" clip-path="url(#clipPath2)" stroke="none">[]</text>
    </g>
    <g fill="rgb(255,204,0)" text-rendering="geometricPrecision" shape-rendering="geometricPrecision" transform="matrix(1,0,0,1,-129,-134)" stroke="rgb(255,204,0)">
      <rect x="555" width="30" height="30" y="185" clip-path="url(#clipPath2)" stroke="none"/>
    </g>
    <g font-size="22px" stroke-linecap="butt" transform="matrix(1,0,0,1,-129,-134)" text-rendering="geometricPrecision" font-family="'Fira Mono'" shape-rendering="geometricPrecision" font-weight="bold" stroke-miterlimit="1.45">
      <text x="563.4036" xml:space="preserve" y="207.366" clip-path="url(#clipPath2)" stroke="none">c</text>
    </g>
    <g fill="rgb(255,204,0)" text-rendering="geometricPrecision" shape-rendering="geometricPrecision" transform="matrix(1,0,0,1,-129,-134)" stroke="rgb(255,204,0)">
      <rect x="495" width="30" height="30" y="185" clip-path="url(#clipPath2)" stroke="none"/>
    </g>
    <g font-size="22px" stroke-linecap="butt" transform="matrix(1,0,0,1,-129,-134)" text-rendering="geometricPrecision" font-family="'Fira Mono'" shape-rendering="geometricPrecision" font-weight="bold" stroke-miterlimit="1.45">
      <text x="503.4036" xml:space="preserve" y="207.366" clip-path="url(#clipPath2)" stroke="none">d</text>
    </g>
    <g fill="rgb(255,204,0)" text-rendering="geometricPrecision" shape-rendering="geometricPrecision" transform="matrix(1,0,0,1,-129,-134)" stroke="rgb(255,204,0)">
      <rect x="435" width="30" height="30" y="185" clip-path="url(#clipPath2)" stroke="none"/>
    </g>
    <g font-size="22px" stroke-linecap="butt" transform="matrix(1,0,0,1,-129,-134)" text-rendering="geometricPrecision" font-family="'Fira Mono'" shape-rendering="geometricPrecision" font-weight="bold" stroke-miterlimit="1.45">
      <text x="443.4036" xml:space="preserve" y="207.366" clip-path="url(#clipPath2)" stroke="none">e</text>
      <path fill="none" d="M465 300 L487 300" clip-path="url(#clipPath2)"/>
      <path d="M495 300 L483 295 L486 300 L483 305 Z" stroke="none" clip-path="url(#clipPath2)"/>
      <path fill="none" d="M525 300 L547 300" clip-path="url(#clipPath2)"/>
      <path d="M555 300 L543 295 L546 300 L543 305 Z" stroke="none" clip-path="url(#clipPath2)"/>
      <path fill="none" d="M585 300 L607 300" clip-path="url(#clipPath2)"/>
      <path d="M615 300 L603 295 L606 300 L603 305 Z" stroke="none" clip-path="url(#clipPath2)"/>
      <path fill="none" d="M465 360 L487 360" clip-path="url(#clipPath2)"/>
      <path d="M495 360 L483 355 L486 360 L483 365 Z" stroke="none" clip-path="url(#clipPath2)"/>
      <path fill="none" d="M525 360 L547 360" clip-path="url(#clipPath2)"/>
      <path d="M555 360 L543 355 L546 360 L543 365 Z" stroke="none" clip-path="url(#clipPath2)"/>
      <path fill="none" d="M585 360 L607 360" clip-path="url(#clipPath2)"/>
      <path d="M615 360 L603 355 L606 360 L603 365 Z" stroke="none" clip-path="url(#clipPath2)"/>
    </g>
    <g stroke-linecap="butt" transform="matrix(1,0,0,1,-129,-134)" fill="rgb(51,153,102)" text-rendering="geometricPrecision" shape-rendering="geometricPrecision" stroke="rgb(51,153,102)" stroke-width="2" stroke-miterlimit="1.45">
      <path fill="none" d="M260 300 L426 300" clip-path="url(#clipPath2)"/>
      <path d="M435 300 L421.5 294.375 L424.875 300 L421.5 305.625 Z" clip-path="url(#clipPath2)" stroke="none"/>
      <path fill="none" d="M204.3495 315.0215 L206.9062 318.5156 L211.6296 324.4445 L216.7141 330.1649 L222.25 335.625 L228.3275 340.7726 L235.037 345.5555 L242.4688 349.9219 L250.713 353.8195 L259.86 357.1962 L270 360 L281.1933 362.1962 L293.3796 363.8195 L306.4688 364.9219 L320.3704 365.5555 L334.9942 365.7726 L350.25 365.625 L366.0475 365.1649 L382.2963 364.4445 L398.9062 363.5156 L415.787 362.4305 L426.0222 361.7171 L426.1219 361.7099" clip-path="url(#clipPath2)"/>
      <path d="M435.0998 361.0786 L421.2384 356.4144 L424.9997 361.7888 L422.0276 367.6367 Z" clip-path="url(#clipPath2)" stroke="none"/>
      <path fill="none" d="M260.0035 171.4654 L265.4019 170.8058 L280.3125 169.0625 L295.5668 167.3712 L311.2222 165.7407 L327.3359 164.1797 L343.9653 162.6968 L361.1675 161.3006 L379 160 L397.5009 158.8006 L416.632 157.6968 L436.3359 156.6797 L456.5556 155.7407 L477.2335 154.8712 L498.3125 154.0625 L519.7352 153.3058 L541.4445 152.5926 L563.3828 151.9141 L585.493 151.2616 L606.0036 150.6754 L606.1036 150.6726" clip-path="url(#clipPath2)"/>
      <path d="M615.1 150.4189 L601.4468 145.1767 L604.979 150.7043 L601.7639 156.4223 Z" clip-path="url(#clipPath2)" stroke="none"/>
      <path fill="none" d="M585 200 L607 200" stroke-width="1" clip-path="url(#clipPath2)" stroke="black"/>
      <path fill="black" d="M615 200 L603 195 L606 200 L603 205 Z" stroke-width="1" clip-path="url(#clipPath2)" stroke="none"/>
      <path fill="none" d="M525 200 L547 200" stroke-width="1" clip-path="url(#clipPath2)" stroke="black"/>
      <path fill="black" d="M555 200 L543 195 L546 200 L543 205 Z" stroke-width="1" clip-path="url(#clipPath2)" stroke="none"/>
      <path fill="none" d="M205.9667 194.9818 L210.9453 200.8594 L216.9259 207.4074 L223.1913 213.6082 L229.8125 219.375 L236.8608 224.6209 L244.4074 229.2593 L252.5234 233.2031 L261.2801 236.3657 L270.7485 238.6603 L281 240 L292.0819 240.327 L303.9468 239.6991 L316.5234 238.2031 L329.7408 235.9259 L343.5275 232.9543 L357.8125 229.375 L372.5246 225.2749 L387.5926 220.7407 L402.9453 215.8594 L418.5116 210.7176 L426.4758 208.0227 L426.5704 207.9903" clip-path="url(#clipPath2)"/>
      <path d="M435.0947 205.1032 L420.5038 204.1062 L425.5049 208.3512 L424.1127 214.7616 Z" clip-path="url(#clipPath2)" stroke="none"/>
      <path fill="none" d="M465 200 L487 200" stroke-width="1" clip-path="url(#clipPath2)" stroke="black"/>
      <path fill="black" d="M495 200 L483 195 L486 200 L483 205 Z" stroke-width="1" clip-path="url(#clipPath2)" stroke="none"/>
    </g>
  </g>
</svg>
