<?xml version="1.0" encoding="UTF-8"?><svg xmlns="http://www.w3.org/2000/svg" xmlns:xlink="http://www.w3.org/1999/xlink" fill-opacity="1" color-rendering="auto" color-interpolation="auto" text-rendering="auto" stroke="black" stroke-linecap="square" width="615" stroke-miterlimit="10" shape-rendering="auto" stroke-opacity="1" fill="black" stroke-dasharray="none" font-weight="normal" stroke-width="1" height="500" font-family="'Dialog'" font-style="normal" stroke-linejoin="miter" font-size="12px" stroke-dashoffset="0" image-rendering="auto">
  <!--Generated by ySVG 2.5-->
  <defs id="genericDefs"/>
  <g>
    <defs id="defs1">
      <clipPath clipPathUnits="userSpaceOnUse" id="clipPath1">
        <path d="M0 0 L615 0 L615 500 L0 500 L0 0 Z"/>
      </clipPath>
      <clipPath clipPathUnits="userSpaceOnUse" id="clipPath2">
        <path d="M525 121 L875.55 121 L875.55 406 L525 406 L525 121 Z"/>
      </clipPath>
    </defs>
    <g fill="rgb(51,153,102)" text-rendering="geometricPrecision" shape-rendering="geometricPrecision" transform="matrix(1.7544,0,0,1.7544,-921.0526,-212.2807)" stroke="rgb(51,153,102)">
      <rect x="594.5" width="131" height="30" y="122" clip-path="url(#clipPath2)" stroke="none"/>
    </g>
    <g font-size="22px" stroke-linecap="butt" transform="matrix(1.7544,0,0,1.7544,-921.0526,-212.2807)" text-rendering="geometricPrecision" font-family="'Fira Mono'" shape-rendering="geometricPrecision" font-weight="bold" stroke-miterlimit="1.45">
      <text x="627.0181" xml:space="preserve" y="144.366" clip-path="url(#clipPath2)" stroke="none">tree0</text>
    </g>
    <g fill="rgb(255,204,0)" text-rendering="geometricPrecision" shape-rendering="geometricPrecision" transform="matrix(1.7544,0,0,1.7544,-921.0526,-212.2807)" stroke="rgb(255,204,0)">
      <rect x="585.5" width="30" height="30" y="268" clip-path="url(#clipPath2)" stroke="none"/>
    </g>
    <g font-size="22px" stroke-linecap="butt" transform="matrix(1.7544,0,0,1.7544,-921.0526,-212.2807)" text-rendering="geometricPrecision" font-family="'Fira Mono'" shape-rendering="geometricPrecision" font-weight="bold" stroke-miterlimit="1.45">
      <text x="593.9036" xml:space="preserve" y="290.366" clip-path="url(#clipPath2)" stroke="none">b</text>
    </g>
    <g stroke-linecap="butt" transform="matrix(1.7544,0,0,1.7544,-921.0526,-212.2807)" fill="red" text-rendering="geometricPrecision" shape-rendering="geometricPrecision" stroke="red" stroke-width="2" stroke-miterlimit="1.45">
      <rect fill="none" x="585.5" width="30" height="30" y="268" clip-path="url(#clipPath2)"/>
    </g>
    <g fill="rgb(255,204,0)" text-rendering="geometricPrecision" shape-rendering="geometricPrecision" transform="matrix(1.7544,0,0,1.7544,-921.0526,-212.2807)" stroke="rgb(255,204,0)">
      <rect x="705.5" width="30" height="30" y="268" clip-path="url(#clipPath2)" stroke="none"/>
    </g>
    <g font-size="22px" stroke-linecap="butt" transform="matrix(1.7544,0,0,1.7544,-921.0526,-212.2807)" text-rendering="geometricPrecision" font-family="'Fira Mono'" shape-rendering="geometricPrecision" font-weight="bold" stroke-miterlimit="1.45">
      <text x="713.9036" xml:space="preserve" y="290.366" clip-path="url(#clipPath2)" stroke="none">c</text>
    </g>
    <g fill="rgb(255,204,0)" text-rendering="geometricPrecision" shape-rendering="geometricPrecision" transform="matrix(1.7544,0,0,1.7544,-921.0526,-212.2807)" stroke="rgb(255,204,0)">
      <rect x="555.5" width="30" height="30" y="316" clip-path="url(#clipPath2)" stroke="none"/>
    </g>
    <g font-size="22px" stroke-linecap="butt" transform="matrix(1.7544,0,0,1.7544,-921.0526,-212.2807)" text-rendering="geometricPrecision" font-family="'Fira Mono'" shape-rendering="geometricPrecision" font-weight="bold" stroke-miterlimit="1.45">
      <text x="563.9036" xml:space="preserve" y="338.366" clip-path="url(#clipPath2)" stroke="none">e</text>
    </g>
    <g stroke-linecap="butt" transform="matrix(1.7544,0,0,1.7544,-921.0526,-212.2807)" fill="red" text-rendering="geometricPrecision" shape-rendering="geometricPrecision" stroke="red" stroke-width="2" stroke-miterlimit="1.45">
      <rect fill="none" x="555.5" width="30" height="30" y="316" clip-path="url(#clipPath2)"/>
    </g>
    <g fill="rgb(255,204,0)" text-rendering="geometricPrecision" shape-rendering="geometricPrecision" transform="matrix(1.7544,0,0,1.7544,-921.0526,-212.2807)" stroke="rgb(255,204,0)">
      <rect x="615.5" width="30" height="30" y="316" clip-path="url(#clipPath2)" stroke="none"/>
    </g>
    <g font-size="22px" stroke-linecap="butt" transform="matrix(1.7544,0,0,1.7544,-921.0526,-212.2807)" text-rendering="geometricPrecision" font-family="'Fira Mono'" shape-rendering="geometricPrecision" font-weight="bold" stroke-miterlimit="1.45">
      <text x="623.9036" xml:space="preserve" y="338.366" clip-path="url(#clipPath2)" stroke="none">i</text>
    </g>
    <g stroke-linecap="butt" transform="matrix(1.7544,0,0,1.7544,-921.0526,-212.2807)" fill="red" text-rendering="geometricPrecision" shape-rendering="geometricPrecision" stroke="red" stroke-width="2" stroke-miterlimit="1.45">
      <rect fill="none" x="615.5" width="30" height="30" y="316" clip-path="url(#clipPath2)"/>
    </g>
    <g fill="rgb(255,204,0)" text-rendering="geometricPrecision" shape-rendering="geometricPrecision" transform="matrix(1.7544,0,0,1.7544,-921.0526,-212.2807)" stroke="rgb(255,204,0)">
      <rect x="675.5" width="30" height="30" y="316" clip-path="url(#clipPath2)" stroke="none"/>
    </g>
    <g font-size="22px" stroke-linecap="butt" transform="matrix(1.7544,0,0,1.7544,-921.0526,-212.2807)" text-rendering="geometricPrecision" font-family="'Fira Mono'" shape-rendering="geometricPrecision" font-weight="bold" stroke-miterlimit="1.45">
      <text x="683.9036" xml:space="preserve" y="338.366" clip-path="url(#clipPath2)" stroke="none">h</text>
    </g>
    <g stroke-linecap="butt" transform="matrix(1.7544,0,0,1.7544,-921.0526,-212.2807)" fill="red" text-rendering="geometricPrecision" shape-rendering="geometricPrecision" stroke="red" stroke-width="2" stroke-miterlimit="1.45">
      <rect fill="none" x="675.5" width="30" height="30" y="316" clip-path="url(#clipPath2)"/>
    </g>
    <g fill="rgb(255,204,0)" text-rendering="geometricPrecision" shape-rendering="geometricPrecision" transform="matrix(1.7544,0,0,1.7544,-921.0526,-212.2807)" stroke="rgb(255,204,0)">
      <rect x="645.5" width="30" height="30" y="196" clip-path="url(#clipPath2)" stroke="none"/>
    </g>
    <g font-size="22px" stroke-linecap="butt" transform="matrix(1.7544,0,0,1.7544,-921.0526,-212.2807)" text-rendering="geometricPrecision" font-family="'Fira Mono'" shape-rendering="geometricPrecision" font-weight="bold" stroke-miterlimit="1.45">
      <text x="653.9036" xml:space="preserve" y="218.366" clip-path="url(#clipPath2)" stroke="none">a</text>
    </g>
    <g fill="rgb(255,204,0)" text-rendering="geometricPrecision" shape-rendering="geometricPrecision" transform="matrix(1.7544,0,0,1.7544,-921.0526,-212.2807)" stroke="rgb(255,204,0)">
      <rect x="750.5" width="30" height="30" y="315" clip-path="url(#clipPath2)" stroke="none"/>
    </g>
    <g font-size="22px" stroke-linecap="butt" transform="matrix(1.7544,0,0,1.7544,-921.0526,-212.2807)" text-rendering="geometricPrecision" font-family="'Fira Mono'" shape-rendering="geometricPrecision" font-weight="bold" stroke-miterlimit="1.45">
      <text x="758.9036" xml:space="preserve" y="337.366" clip-path="url(#clipPath2)" stroke="none">d</text>
    </g>
    <g fill="rgb(255,204,0)" text-rendering="geometricPrecision" shape-rendering="geometricPrecision" transform="matrix(1.7544,0,0,1.7544,-921.0526,-212.2807)" stroke="rgb(255,204,0)">
      <rect x="525" width="30" height="30" y="375" clip-path="url(#clipPath2)" stroke="none"/>
    </g>
    <g font-size="22px" stroke-linecap="butt" transform="matrix(1.7544,0,0,1.7544,-921.0526,-212.2807)" text-rendering="geometricPrecision" font-family="'Fira Mono'" shape-rendering="geometricPrecision" font-weight="bold" stroke-miterlimit="1.45">
      <text x="533.4036" xml:space="preserve" y="397.366" clip-path="url(#clipPath2)" stroke="none">k</text>
    </g>
    <g stroke-linecap="butt" transform="matrix(1.7544,0,0,1.7544,-921.0526,-212.2807)" fill="red" text-rendering="geometricPrecision" shape-rendering="geometricPrecision" stroke="red" stroke-width="2" stroke-miterlimit="1.45">
      <rect fill="none" x="525" width="30" height="30" y="375" clip-path="url(#clipPath2)"/>
    </g>
    <g fill="rgb(51,153,102)" text-rendering="geometricPrecision" shape-rendering="geometricPrecision" transform="matrix(1.7544,0,0,1.7544,-921.0526,-212.2807)" stroke="rgb(51,153,102)">
      <rect x="744.5" width="131" height="30" y="123" clip-path="url(#clipPath2)" stroke="none"/>
    </g>
    <g font-size="22px" stroke-linecap="butt" transform="matrix(1.7544,0,0,1.7544,-921.0526,-212.2807)" text-rendering="geometricPrecision" font-family="'Fira Mono'" shape-rendering="geometricPrecision" font-weight="bold" stroke-miterlimit="1.45">
      <text x="777.0181" xml:space="preserve" y="145.366" clip-path="url(#clipPath2)" stroke="none">tree1</text>
    </g>
    <g fill="rgb(255,204,0)" text-rendering="geometricPrecision" shape-rendering="geometricPrecision" transform="matrix(1.7544,0,0,1.7544,-921.0526,-212.2807)" stroke="rgb(255,204,0)">
      <rect x="765" width="30" height="30" y="269" clip-path="url(#clipPath2)" stroke="none"/>
    </g>
    <g font-size="22px" stroke-linecap="butt" transform="matrix(1.7544,0,0,1.7544,-921.0526,-212.2807)" text-rendering="geometricPrecision" font-family="'Fira Mono'" shape-rendering="geometricPrecision" font-weight="bold" stroke-miterlimit="1.45">
      <text x="773.4036" xml:space="preserve" y="291.366" clip-path="url(#clipPath2)" stroke="none">c</text>
    </g>
    <g fill="rgb(255,204,0)" text-rendering="geometricPrecision" shape-rendering="geometricPrecision" transform="matrix(1.7544,0,0,1.7544,-921.0526,-212.2807)" stroke="rgb(255,204,0)">
      <rect x="750.5" width="30" height="30" y="197" clip-path="url(#clipPath2)" stroke="none"/>
    </g>
    <g font-size="22px" stroke-linecap="butt" transform="matrix(1.7544,0,0,1.7544,-921.0526,-212.2807)" text-rendering="geometricPrecision" font-family="'Fira Mono'" shape-rendering="geometricPrecision" font-weight="bold" stroke-miterlimit="1.45">
      <text x="758.9036" xml:space="preserve" y="219.366" clip-path="url(#clipPath2)" stroke="none">a</text>
    </g>
    <g fill="rgb(255,204,0)" text-rendering="geometricPrecision" shape-rendering="geometricPrecision" transform="matrix(1.7544,0,0,1.7544,-921.0526,-212.2807)" stroke="rgb(255,204,0)">
      <rect x="795" width="30" height="30" y="316" clip-path="url(#clipPath2)" stroke="none"/>
    </g>
    <g font-size="22px" stroke-linecap="butt" transform="matrix(1.7544,0,0,1.7544,-921.0526,-212.2807)" text-rendering="geometricPrecision" font-family="'Fira Mono'" shape-rendering="geometricPrecision" font-weight="bold" stroke-miterlimit="1.45">
      <text x="803.4036" xml:space="preserve" y="338.366" clip-path="url(#clipPath2)" stroke="none">d</text>
    </g>
    <g fill="rgb(255,204,0)" text-rendering="geometricPrecision" shape-rendering="geometricPrecision" transform="matrix(1.7544,0,0,1.7544,-921.0526,-212.2807)" stroke="rgb(255,204,0)">
      <rect x="765" width="30" height="30" y="375" clip-path="url(#clipPath2)" stroke="none"/>
    </g>
    <g font-size="22px" stroke-linecap="butt" transform="matrix(1.7544,0,0,1.7544,-921.0526,-212.2807)" text-rendering="geometricPrecision" font-family="'Fira Mono'" shape-rendering="geometricPrecision" font-weight="bold" stroke-miterlimit="1.45">
      <text x="773.4036" xml:space="preserve" y="397.366" clip-path="url(#clipPath2)" stroke="none">f</text>
      <path fill="none" d="M591.125 298 L584.115 309.216" clip-path="url(#clipPath2)"/>
      <path d="M579.875 316 L590.475 308.474 L584.645 308.368 L581.995 303.174 Z" stroke="none" clip-path="url(#clipPath2)"/>
      <path fill="none" d="M609.875 298 L616.885 309.216" clip-path="url(#clipPath2)"/>
      <path d="M621.125 316 L619.005 303.174 L616.355 308.368 L610.525 308.474 Z" stroke="none" clip-path="url(#clipPath2)"/>
      <path fill="none" d="M711.125 298 L704.115 309.216" clip-path="url(#clipPath2)"/>
      <path d="M699.875 316 L710.475 308.474 L704.645 308.368 L701.995 303.174 Z" stroke="none" clip-path="url(#clipPath2)"/>
    </g>
    <g stroke-linecap="butt" transform="matrix(1.7544,0,0,1.7544,-921.0526,-212.2807)" fill="rgb(51,153,102)" text-rendering="geometricPrecision" shape-rendering="geometricPrecision" stroke="rgb(51,153,102)" stroke-width="2" stroke-miterlimit="1.45">
      <path fill="none" d="M660.1014 152 L660.3378 187.0002" clip-path="url(#clipPath2)"/>
      <path d="M660.3986 196 L665.9323 182.4623 L660.3303 185.8752 L654.6826 182.5383 Z" clip-path="url(#clipPath2)" stroke="none"/>
      <path fill="none" d="M648 226 L618.1215 261.8542" stroke-width="1" clip-path="url(#clipPath2)" stroke="black"/>
      <path fill="black" d="M613 268 L624.5233 261.9822 L618.7617 261.086 L616.8411 255.5804 Z" stroke-width="1" clip-path="url(#clipPath2)" stroke="none"/>
      <path fill="none" d="M673 226 L702.8785 261.8542" stroke-width="1" clip-path="url(#clipPath2)" stroke="black"/>
      <path fill="black" d="M708 268 L704.1589 255.5804 L702.2383 261.086 L696.4767 261.9822 Z" stroke-width="1" clip-path="url(#clipPath2)" stroke="none"/>
      <path fill="none" d="M734.8617 298 L745.6057 309.2215" stroke-width="1" clip-path="url(#clipPath2)" stroke="black"/>
      <path fill="black" d="M751.1383 315 L746.451 302.8745 L744.9142 308.4992 L739.2279 309.7902 Z" stroke-width="1" clip-path="url(#clipPath2)" stroke="none"/>
      <path fill="none" d="M562.7458 346 L551.428 367.8934" stroke-width="1" clip-path="url(#clipPath2)" stroke="black"/>
      <path fill="black" d="M547.7542 375 L557.7065 366.6362 L551.8872 367.0051 L548.8232 362.044 Z" stroke-width="1" clip-path="url(#clipPath2)" stroke="none"/>
      <path fill="none" d="M765 291.8771 L712.5828 319.4035" stroke-width="1" clip-path="url(#clipPath2)" stroke="black"/>
      <path fill="black" d="M705.5 323.1229 L718.4488 321.9705 L713.4681 318.9385 L713.7996 313.117 Z" stroke-width="1" clip-path="url(#clipPath2)" stroke="none"/>
      <path fill="none" d="M800.9797 153 L779.1584 189.2872" clip-path="url(#clipPath2)"/>
      <path d="M774.5203 197 L786.298 188.3296 L779.7382 188.3231 L776.6569 182.5319 Z" clip-path="url(#clipPath2)" stroke="none"/>
      <path fill="none" d="M768.5208 227 L775.3998 261.1575" stroke-width="1" clip-path="url(#clipPath2)" stroke="black"/>
      <path fill="black" d="M776.9792 269 L779.5117 256.2491 L775.2023 260.1772 L769.7085 258.2233 Z" stroke-width="1" clip-path="url(#clipPath2)" stroke="none"/>
      <path fill="none" d="M750.5 218.4545 L622.8486 273.3834" stroke-width="1" clip-path="url(#clipPath2)" stroke="black"/>
      <path fill="black" d="M615.5 276.5454 L628.4991 276.3952 L623.7672 272.9881 L624.5466 267.2095 Z" stroke-width="1" clip-path="url(#clipPath2)" stroke="none"/>
      <path fill="none" d="M789.5745 299 L796.1213 309.2566" stroke-width="1" clip-path="url(#clipPath2)" stroke="black"/>
      <path fill="black" d="M800.4255 316 L798.1838 303.1948 L795.5833 308.4137 L789.7545 308.5751 Z" stroke-width="1" clip-path="url(#clipPath2)" stroke="none"/>
      <path fill="none" d="M802.3729 346 L791.2531 367.8689" stroke-width="1" clip-path="url(#clipPath2)" stroke="black"/>
      <path fill="black" d="M787.6271 375 L797.523 366.5696 L791.7064 366.9775 L788.6092 362.0371 Z" stroke-width="1" clip-path="url(#clipPath2)" stroke="none"/>
    </g>
  </g>
</svg>
