<?xml version="1.0" encoding="UTF-8"?><svg xmlns="http://www.w3.org/2000/svg" xmlns:xlink="http://www.w3.org/1999/xlink" fill-opacity="1" color-rendering="auto" color-interpolation="auto" text-rendering="auto" stroke="black" stroke-linecap="square" width="642" stroke-miterlimit="10" shape-rendering="auto" stroke-opacity="1" fill="black" stroke-dasharray="none" font-weight="normal" stroke-width="1" height="242" font-family="'Dialog'" font-style="normal" stroke-linejoin="miter" font-size="12px" stroke-dashoffset="0" image-rendering="auto">
  <!--Generated by ySVG 2.5-->
  <defs id="genericDefs"/>
  <g>
    <defs id="defs1">
      <clipPath clipPathUnits="userSpaceOnUse" id="clipPath1">
        <path d="M0 0 L642 0 L642 242 L0 242 L0 0 Z"/>
      </clipPath>
      <clipPath clipPathUnits="userSpaceOnUse" id="clipPath2">
        <path d="M354 134 L996 134 L996 376 L354 376 L354 134 Z"/>
      </clipPath>
    </defs>
    <g fill="rgb(51,153,102)" text-rendering="geometricPrecision" shape-rendering="geometricPrecision" transform="matrix(1,0,0,1,-354,-134)" stroke="rgb(51,153,102)">
      <rect x="354.5" width="131" height="30" y="135" clip-path="url(#clipPath2)" stroke="none"/>
    </g>
    <g font-size="22px" stroke-linecap="butt" transform="matrix(1,0,0,1,-354,-134)" text-rendering="geometricPrecision" font-family="'Fira Mono'" shape-rendering="geometricPrecision" font-weight="bold" stroke-miterlimit="1.45">
      <text x="387.0181" xml:space="preserve" y="157.366" clip-path="url(#clipPath2)" stroke="none">tree0</text>
    </g>
    <g fill="rgb(255,204,0)" text-rendering="geometricPrecision" shape-rendering="geometricPrecision" transform="matrix(1,0,0,1,-354,-134)" stroke="rgb(255,204,0)">
      <rect x="555" width="30" height="30" y="237" clip-path="url(#clipPath2)" stroke="none"/>
    </g>
    <g font-size="22px" stroke-linecap="butt" transform="matrix(1,0,0,1,-354,-134)" text-rendering="geometricPrecision" font-family="'Fira Mono'" shape-rendering="geometricPrecision" font-weight="bold" stroke-miterlimit="1.45">
      <text x="563.4036" xml:space="preserve" y="259.366" clip-path="url(#clipPath2)" stroke="none">b</text>
    </g>
    <g stroke-linecap="butt" transform="matrix(1,0,0,1,-354,-134)" fill="red" text-rendering="geometricPrecision" shape-rendering="geometricPrecision" stroke="red" stroke-width="2" stroke-miterlimit="1.45">
      <rect fill="none" x="555" width="30" height="30" y="237" clip-path="url(#clipPath2)"/>
    </g>
    <g fill="rgb(255,204,0)" text-rendering="geometricPrecision" shape-rendering="geometricPrecision" transform="matrix(1,0,0,1,-354,-134)" stroke="rgb(255,204,0)">
      <rect x="675" width="30" height="30" y="237" clip-path="url(#clipPath2)" stroke="none"/>
    </g>
    <g font-size="22px" stroke-linecap="butt" transform="matrix(1,0,0,1,-354,-134)" text-rendering="geometricPrecision" font-family="'Fira Mono'" shape-rendering="geometricPrecision" font-weight="bold" stroke-miterlimit="1.45">
      <text x="683.4036" xml:space="preserve" y="259.366" clip-path="url(#clipPath2)" stroke="none">g</text>
    </g>
    <g fill="rgb(255,204,0)" text-rendering="geometricPrecision" shape-rendering="geometricPrecision" transform="matrix(1,0,0,1,-354,-134)" stroke="rgb(255,204,0)">
      <rect x="525" width="30" height="30" y="285" clip-path="url(#clipPath2)" stroke="none"/>
    </g>
    <g font-size="22px" stroke-linecap="butt" transform="matrix(1,0,0,1,-354,-134)" text-rendering="geometricPrecision" font-family="'Fira Mono'" shape-rendering="geometricPrecision" font-weight="bold" stroke-miterlimit="1.45">
      <text x="533.4036" xml:space="preserve" y="307.366" clip-path="url(#clipPath2)" stroke="none">a</text>
    </g>
    <g stroke-linecap="butt" transform="matrix(1,0,0,1,-354,-134)" fill="red" text-rendering="geometricPrecision" shape-rendering="geometricPrecision" stroke="red" stroke-width="2" stroke-miterlimit="1.45">
      <rect fill="none" x="525" width="30" height="30" y="285" clip-path="url(#clipPath2)"/>
    </g>
    <g fill="rgb(255,204,0)" text-rendering="geometricPrecision" shape-rendering="geometricPrecision" transform="matrix(1,0,0,1,-354,-134)" stroke="rgb(255,204,0)">
      <rect x="585" width="30" height="30" y="285" clip-path="url(#clipPath2)" stroke="none"/>
    </g>
    <g font-size="22px" stroke-linecap="butt" transform="matrix(1,0,0,1,-354,-134)" text-rendering="geometricPrecision" font-family="'Fira Mono'" shape-rendering="geometricPrecision" font-weight="bold" stroke-miterlimit="1.45">
      <text x="593.4036" xml:space="preserve" y="307.366" clip-path="url(#clipPath2)" stroke="none">c</text>
    </g>
    <g stroke-linecap="butt" transform="matrix(1,0,0,1,-354,-134)" fill="red" text-rendering="geometricPrecision" shape-rendering="geometricPrecision" stroke="red" stroke-width="2" stroke-miterlimit="1.45">
      <rect fill="none" x="585" width="30" height="30" y="285" clip-path="url(#clipPath2)"/>
    </g>
    <g fill="rgb(255,204,0)" text-rendering="geometricPrecision" shape-rendering="geometricPrecision" transform="matrix(1,0,0,1,-354,-134)" stroke="rgb(255,204,0)">
      <rect x="645" width="30" height="30" y="285" clip-path="url(#clipPath2)" stroke="none"/>
    </g>
    <g font-size="22px" stroke-linecap="butt" transform="matrix(1,0,0,1,-354,-134)" text-rendering="geometricPrecision" font-family="'Fira Mono'" shape-rendering="geometricPrecision" font-weight="bold" stroke-miterlimit="1.45">
      <text x="653.4036" xml:space="preserve" y="307.366" clip-path="url(#clipPath2)" stroke="none">f</text>
    </g>
    <g fill="rgb(255,204,0)" text-rendering="geometricPrecision" shape-rendering="geometricPrecision" transform="matrix(1,0,0,1,-354,-134)" stroke="rgb(255,204,0)">
      <rect x="615" width="30" height="30" y="165" clip-path="url(#clipPath2)" stroke="none"/>
    </g>
    <g font-size="22px" stroke-linecap="butt" transform="matrix(1,0,0,1,-354,-134)" text-rendering="geometricPrecision" font-family="'Fira Mono'" shape-rendering="geometricPrecision" font-weight="bold" stroke-miterlimit="1.45">
      <text x="623.4036" xml:space="preserve" y="187.366" clip-path="url(#clipPath2)" stroke="none">d</text>
    </g>
    <g fill="rgb(255,204,0)" text-rendering="geometricPrecision" shape-rendering="geometricPrecision" transform="matrix(1,0,0,1,-354,-134)" stroke="rgb(255,204,0)">
      <rect x="694" width="30" height="30" y="165" clip-path="url(#clipPath2)" stroke="none"/>
    </g>
    <g font-size="22px" stroke-linecap="butt" transform="matrix(1,0,0,1,-354,-134)" text-rendering="geometricPrecision" font-family="'Fira Mono'" shape-rendering="geometricPrecision" font-weight="bold" stroke-miterlimit="1.45">
      <text x="702.4036" xml:space="preserve" y="187.366" clip-path="url(#clipPath2)" stroke="none">d</text>
    </g>
    <g fill="rgb(51,153,102)" text-rendering="geometricPrecision" shape-rendering="geometricPrecision" transform="matrix(1,0,0,1,-354,-134)" stroke="rgb(51,153,102)">
      <rect x="864.5" width="131" height="30" y="135" clip-path="url(#clipPath2)" stroke="none"/>
    </g>
    <g font-size="22px" stroke-linecap="butt" transform="matrix(1,0,0,1,-354,-134)" text-rendering="geometricPrecision" font-family="'Fira Mono'" shape-rendering="geometricPrecision" font-weight="bold" stroke-miterlimit="1.45">
      <text x="897.0181" xml:space="preserve" y="157.366" clip-path="url(#clipPath2)" stroke="none">tree1</text>
    </g>
    <g fill="rgb(255,204,0)" text-rendering="geometricPrecision" shape-rendering="geometricPrecision" transform="matrix(1,0,0,1,-354,-134)" stroke="rgb(255,204,0)">
      <rect x="735" width="30" height="30" y="237" clip-path="url(#clipPath2)" stroke="none"/>
    </g>
    <g font-size="22px" stroke-linecap="butt" transform="matrix(1,0,0,1,-354,-134)" text-rendering="geometricPrecision" font-family="'Fira Mono'" shape-rendering="geometricPrecision" font-weight="bold" stroke-miterlimit="1.45">
      <text x="743.4036" xml:space="preserve" y="259.366" clip-path="url(#clipPath2)" stroke="none">g</text>
    </g>
    <g fill="rgb(255,204,0)" text-rendering="geometricPrecision" shape-rendering="geometricPrecision" transform="matrix(1,0,0,1,-354,-134)" stroke="rgb(255,204,0)">
      <rect x="694" width="30" height="30" y="285" clip-path="url(#clipPath2)" stroke="none"/>
    </g>
    <g font-size="22px" stroke-linecap="butt" transform="matrix(1,0,0,1,-354,-134)" text-rendering="geometricPrecision" font-family="'Fira Mono'" shape-rendering="geometricPrecision" font-weight="bold" stroke-miterlimit="1.45">
      <text x="702.4036" xml:space="preserve" y="307.366" clip-path="url(#clipPath2)" stroke="none">f</text>
    </g>
    <g fill="rgb(255,204,0)" text-rendering="geometricPrecision" shape-rendering="geometricPrecision" transform="matrix(1,0,0,1,-354,-134)" stroke="rgb(255,204,0)">
      <rect x="755.5" width="30" height="30" y="285" clip-path="url(#clipPath2)" stroke="none"/>
    </g>
    <g font-size="22px" stroke-linecap="butt" transform="matrix(1,0,0,1,-354,-134)" text-rendering="geometricPrecision" font-family="'Fira Mono'" shape-rendering="geometricPrecision" font-weight="bold" stroke-miterlimit="1.45">
      <text x="763.9036" xml:space="preserve" y="307.366" clip-path="url(#clipPath2)" stroke="none">h</text>
    </g>
    <g stroke-linecap="butt" transform="matrix(1,0,0,1,-354,-134)" fill="red" text-rendering="geometricPrecision" shape-rendering="geometricPrecision" stroke="red" stroke-width="2" stroke-miterlimit="1.45">
      <rect fill="none" x="755.5" width="30" height="30" y="285" clip-path="url(#clipPath2)"/>
    </g>
    <g fill="rgb(255,204,0)" text-rendering="geometricPrecision" shape-rendering="geometricPrecision" transform="matrix(1,0,0,1,-354,-134)" stroke="rgb(255,204,0)">
      <rect x="695.5" width="30" height="30" y="345" clip-path="url(#clipPath2)" stroke="none"/>
    </g>
    <g font-size="22px" stroke-linecap="butt" transform="matrix(1,0,0,1,-354,-134)" text-rendering="geometricPrecision" font-family="'Fira Mono'" shape-rendering="geometricPrecision" font-weight="bold" stroke-miterlimit="1.45">
      <text x="703.9036" xml:space="preserve" y="367.366" clip-path="url(#clipPath2)" stroke="none">e</text>
      <path fill="none" d="M560.625 267 L553.615 278.216" clip-path="url(#clipPath2)"/>
      <path d="M549.375 285 L559.975 277.474 L554.145 277.368 L551.495 272.174 Z" stroke="none" clip-path="url(#clipPath2)"/>
      <path fill="none" d="M579.375 267 L586.385 278.216" clip-path="url(#clipPath2)"/>
      <path d="M590.625 285 L588.505 272.174 L585.855 277.368 L580.025 277.474 Z" stroke="none" clip-path="url(#clipPath2)"/>
      <path fill="none" d="M680.625 267 L673.615 278.216" clip-path="url(#clipPath2)"/>
      <path d="M669.375 285 L679.975 277.474 L674.145 277.368 L671.495 272.174 Z" stroke="none" clip-path="url(#clipPath2)"/>
    </g>
    <g stroke-linecap="butt" transform="matrix(1,0,0,1,-354,-134)" fill="rgb(51,153,102)" text-rendering="geometricPrecision" shape-rendering="geometricPrecision" stroke="rgb(51,153,102)" stroke-width="2" stroke-miterlimit="1.45">
      <path fill="none" d="M485.5 159.3571 L606.0905 176.5844" clip-path="url(#clipPath2)"/>
      <path d="M615 177.8571 L602.4312 170.3795 L604.9767 176.4252 L600.8402 181.5164 Z" clip-path="url(#clipPath2)" stroke="none"/>
      <path fill="none" d="M617.5 195 L587.6215 230.8542" stroke-width="1" clip-path="url(#clipPath2)" stroke="black"/>
      <path fill="black" d="M582.5 237 L594.0233 230.9823 L588.2617 230.086 L586.3411 224.5804 Z" stroke-width="1" clip-path="url(#clipPath2)" stroke="none"/>
      <path fill="none" d="M642.5 195 L672.3785 230.8542" stroke-width="1" clip-path="url(#clipPath2)" stroke="black"/>
      <path fill="black" d="M677.5 237 L673.6589 224.5804 L671.7383 230.086 L665.9767 230.9823 Z" stroke-width="1" clip-path="url(#clipPath2)" stroke="none"/>
      <path fill="none" d="M694 187.7698 L592.1036 240.5507" stroke-width="1" clip-path="url(#clipPath2)" stroke="black"/>
      <path fill="black" d="M585 244.2302 L597.9551 243.1506 L592.9915 240.0907 L593.3557 234.2711 Z" stroke-width="1" clip-path="url(#clipPath2)" stroke="none"/>
      <path fill="none" d="M864.5 158.8914 L732.9182 176.7532" clip-path="url(#clipPath2)"/>
      <path d="M724 177.9638 L738.134 181.7218 L734.033 176.6019 L736.6207 170.574 Z" clip-path="url(#clipPath2)" stroke="none"/>
      <path fill="none" d="M717.5417 195 L737.4996 230.0481" stroke-width="1" clip-path="url(#clipPath2)" stroke="black"/>
      <path fill="black" d="M741.4583 237 L739.8652 224.098 L737.0048 229.1791 L731.1754 229.0464 Z" stroke-width="1" clip-path="url(#clipPath2)" stroke="none"/>
      <path fill="none" d="M737.1875 267 L727.0084 278.917" stroke-width="1" clip-path="url(#clipPath2)" stroke="black"/>
      <path fill="black" d="M721.8125 285 L733.4082 279.123 L727.6578 278.1566 L725.8044 272.6281 Z" stroke-width="1" clip-path="url(#clipPath2)" stroke="none"/>
      <path fill="none" d="M756.4062 267 L760.9517 277.6429" stroke-width="1" clip-path="url(#clipPath2)" stroke="black"/>
      <path fill="black" d="M764.0938 285 L763.9788 272.0005 L760.5589 276.7232 L754.7824 275.9281 Z" stroke-width="1" clip-path="url(#clipPath2)" stroke="none"/>
      <path fill="none" d="M705 260.9441 L748.6288 286.9588" stroke-width="1" clip-path="url(#clipPath2)" stroke="black"/>
      <path fill="black" d="M755.5 291.0559 L747.7539 280.6157 L747.7699 286.4466 L742.6325 289.2047 Z" stroke-width="1" clip-path="url(#clipPath2)" stroke="none"/>
      <path fill="none" d="M709.375 315 L709.925 337.0025" stroke-width="1" clip-path="url(#clipPath2)" stroke="black"/>
      <path fill="black" d="M710.125 345 L714.8235 332.8788 L709.9 336.0028 L704.8267 333.1287 Z" stroke-width="1" clip-path="url(#clipPath2)" stroke="none"/>
    </g>
  </g>
</svg>
