<?xml version="1.0" encoding="UTF-8"?><svg xmlns="http://www.w3.org/2000/svg" xmlns:xlink="http://www.w3.org/1999/xlink" fill-opacity="1" color-rendering="auto" color-interpolation="auto" text-rendering="auto" stroke="black" stroke-linecap="square" width="611" stroke-miterlimit="10" shape-rendering="auto" stroke-opacity="1" fill="black" stroke-dasharray="none" font-weight="normal" stroke-width="1" height="130" font-family="'Dialog'" font-style="normal" stroke-linejoin="miter" font-size="12px" stroke-dashoffset="0" image-rendering="auto">
  <!--Generated by ySVG 2.5-->
  <defs id="genericDefs"/>
  <g>
    <defs id="defs1">
      <clipPath clipPathUnits="userSpaceOnUse" id="clipPath1">
        <path d="M0 0 L611 0 L611 130 L0 130 L0 0 Z"/>
      </clipPath>
      <clipPath clipPathUnits="userSpaceOnUse" id="clipPath2">
        <path d="M120 265 L731 265 L731 395 L120 395 L120 265 Z"/>
      </clipPath>
    </defs>
    <g fill="rgb(255,204,0)" text-rendering="geometricPrecision" shape-rendering="geometricPrecision" transform="matrix(1,0,0,1,-120,-265)" stroke="rgb(255,204,0)">
      <rect x="315" width="30" height="30" y="285" clip-path="url(#clipPath2)" stroke="none"/>
    </g>
    <g font-size="22px" stroke-linecap="butt" transform="matrix(1,0,0,1,-120,-265)" text-rendering="geometricPrecision" font-family="'Fira Mono'" shape-rendering="geometricPrecision" font-weight="bold" stroke-miterlimit="1.45">
      <text x="323.4036" xml:space="preserve" y="307.366" clip-path="url(#clipPath2)" stroke="none">a</text>
    </g>
    <g fill="rgb(255,204,0)" text-rendering="geometricPrecision" shape-rendering="geometricPrecision" transform="matrix(1,0,0,1,-120,-265)" stroke="rgb(255,204,0)">
      <rect x="392" width="30" height="30" y="285" clip-path="url(#clipPath2)" stroke="none"/>
    </g>
    <g font-size="22px" stroke-linecap="butt" transform="matrix(1,0,0,1,-120,-265)" text-rendering="geometricPrecision" font-family="'Fira Mono'" shape-rendering="geometricPrecision" font-weight="bold" stroke-miterlimit="1.45">
      <text x="400.4036" xml:space="preserve" y="307.366" clip-path="url(#clipPath2)" stroke="none">b</text>
    </g>
    <g fill="rgb(255,204,0)" text-rendering="geometricPrecision" shape-rendering="geometricPrecision" transform="matrix(1,0,0,1,-120,-265)" stroke="rgb(255,204,0)">
      <rect x="469" width="30" height="30" y="285" clip-path="url(#clipPath2)" stroke="none"/>
    </g>
    <g font-size="22px" stroke-linecap="butt" transform="matrix(1,0,0,1,-120,-265)" text-rendering="geometricPrecision" font-family="'Fira Mono'" shape-rendering="geometricPrecision" font-weight="bold" stroke-miterlimit="1.45">
      <text x="477.4036" xml:space="preserve" y="307.366" clip-path="url(#clipPath2)" stroke="none">c</text>
    </g>
    <g fill="rgb(255,204,0)" text-rendering="geometricPrecision" shape-rendering="geometricPrecision" transform="matrix(1,0,0,1,-120,-265)" stroke="rgb(255,204,0)">
      <rect x="546" width="30" height="30" y="285" clip-path="url(#clipPath2)" stroke="none"/>
    </g>
    <g font-size="22px" stroke-linecap="butt" transform="matrix(1,0,0,1,-120,-265)" text-rendering="geometricPrecision" font-family="'Fira Mono'" shape-rendering="geometricPrecision" font-weight="bold" stroke-miterlimit="1.45">
      <text x="554.4036" xml:space="preserve" y="307.366" clip-path="url(#clipPath2)" stroke="none">d</text>
    </g>
    <g fill="rgb(255,204,0)" text-rendering="geometricPrecision" shape-rendering="geometricPrecision" transform="matrix(1,0,0,1,-120,-265)" stroke="rgb(255,204,0)">
      <rect x="623" width="30" height="30" y="285" clip-path="url(#clipPath2)" stroke="none"/>
    </g>
    <g font-size="22px" stroke-linecap="butt" transform="matrix(1,0,0,1,-120,-265)" text-rendering="geometricPrecision" font-family="'Fira Mono'" shape-rendering="geometricPrecision" font-weight="bold" stroke-miterlimit="1.45">
      <text x="631.4036" xml:space="preserve" y="307.366" clip-path="url(#clipPath2)" stroke="none">e</text>
    </g>
    <g fill="white" text-rendering="geometricPrecision" shape-rendering="geometricPrecision" transform="matrix(1,0,0,1,-120,-265)" stroke="white">
      <rect x="700" width="30" height="30" y="285" clip-path="url(#clipPath2)" stroke="none"/>
    </g>
    <g font-size="22px" stroke-linecap="butt" transform="matrix(1,0,0,1,-120,-265)" text-rendering="geometricPrecision" font-family="'Fira Mono'" shape-rendering="geometricPrecision" font-weight="bold" stroke-miterlimit="1.45">
      <text x="701.8073" xml:space="preserve" y="307.366" clip-path="url(#clipPath2)" stroke="none">[]</text>
    </g>
    <g fill="rgb(51,153,102)" text-rendering="geometricPrecision" shape-rendering="geometricPrecision" transform="matrix(1,0,0,1,-120,-265)" stroke="rgb(51,153,102)">
      <rect x="120.5" width="131" height="30" y="266" clip-path="url(#clipPath2)" stroke="none"/>
    </g>
    <g font-size="22px" stroke-linecap="butt" transform="matrix(1,0,0,1,-120,-265)" text-rendering="geometricPrecision" font-family="'Fira Mono'" shape-rendering="geometricPrecision" font-weight="bold" stroke-miterlimit="1.45">
      <text x="159.6145" xml:space="preserve" y="288.366" clip-path="url(#clipPath2)" stroke="none">lst0</text>
    </g>
    <g fill="rgb(51,153,102)" text-rendering="geometricPrecision" shape-rendering="geometricPrecision" transform="matrix(1,0,0,1,-120,-265)" stroke="rgb(51,153,102)">
      <rect x="120.5" width="131" height="30" y="315" clip-path="url(#clipPath2)" stroke="none"/>
    </g>
    <g font-size="22px" stroke-linecap="butt" transform="matrix(1,0,0,1,-120,-265)" text-rendering="geometricPrecision" font-family="'Fira Mono'" shape-rendering="geometricPrecision" font-weight="bold" stroke-miterlimit="1.45">
      <text x="126.6326" xml:space="preserve" y="337.366" clip-path="url(#clipPath2)" stroke="none">tail lst0</text>
    </g>
    <g fill="rgb(51,153,102)" text-rendering="geometricPrecision" shape-rendering="geometricPrecision" transform="matrix(1,0,0,1,-120,-265)" stroke="rgb(51,153,102)">
      <rect x="120.5" width="131" height="30" y="364" clip-path="url(#clipPath2)" stroke="none"/>
    </g>
    <g font-size="22px" stroke-linecap="butt" transform="matrix(1,0,0,1,-120,-265)" text-rendering="geometricPrecision" font-family="'Fira Mono'" shape-rendering="geometricPrecision" font-weight="bold" stroke-miterlimit="1.45">
      <text x="159.6145" xml:space="preserve" y="386.366" clip-path="url(#clipPath2)" stroke="none">lst1</text>
    </g>
    <g fill="rgb(255,204,0)" text-rendering="geometricPrecision" shape-rendering="geometricPrecision" transform="matrix(1,0,0,1,-120,-265)" stroke="rgb(255,204,0)">
      <rect x="315" width="30" height="30" y="364" clip-path="url(#clipPath2)" stroke="none"/>
    </g>
    <g font-size="22px" stroke-linecap="butt" transform="matrix(1,0,0,1,-120,-265)" text-rendering="geometricPrecision" font-family="'Fira Mono'" shape-rendering="geometricPrecision" font-weight="bold" stroke-miterlimit="1.45">
      <text x="323.4036" xml:space="preserve" y="386.366" clip-path="url(#clipPath2)" stroke="none">x</text>
      <path fill="none" d="M345 300 L384 300" clip-path="url(#clipPath2)"/>
      <path d="M392 300 L380 295 L383 300 L380 305 Z" stroke="none" clip-path="url(#clipPath2)"/>
      <path fill="none" d="M422 300 L461 300" clip-path="url(#clipPath2)"/>
      <path d="M469 300 L457 295 L460 300 L457 305 Z" stroke="none" clip-path="url(#clipPath2)"/>
      <path fill="none" d="M499 300 L538 300" clip-path="url(#clipPath2)"/>
      <path d="M546 300 L534 295 L537 300 L534 305 Z" stroke="none" clip-path="url(#clipPath2)"/>
      <path fill="none" d="M576 300 L615 300" clip-path="url(#clipPath2)"/>
      <path d="M623 300 L611 295 L614 300 L611 305 Z" stroke="none" clip-path="url(#clipPath2)"/>
      <path fill="none" d="M653 300 L692 300" clip-path="url(#clipPath2)"/>
      <path d="M700 300 L688 295 L691 300 L688 305 Z" stroke="none" clip-path="url(#clipPath2)"/>
    </g>
    <g stroke-linecap="butt" transform="matrix(1,0,0,1,-120,-265)" fill="rgb(51,153,102)" text-rendering="geometricPrecision" shape-rendering="geometricPrecision" stroke="rgb(51,153,102)" stroke-width="2" stroke-miterlimit="1.45">
      <path fill="none" d="M251.5068 279.47 L257.5278 279.7905 L263.8785 280.3045 L270 281 L275.8785 281.8879 L281.5278 282.9572 L286.9688 284.1914 L292.2222 285.5741 L297.309 287.0887 L302.25 288.7188 L306.6146 290.2857 L306.7076 290.3223" clip-path="url(#clipPath2)"/>
      <path d="M315.0891 293.6011 L304.5662 283.4445 L305.66 289.9124 L300.4677 293.9213 Z" clip-path="url(#clipPath2)" stroke="none"/>
      <path fill="none" d="M251.51 332.1687 L253.4074 332.2222 L269.4324 332.5825 L284.9062 332.8125 L299.7186 332.8863 L313.7593 332.7778 L326.918 332.4609 L339.0845 331.9097 L350.1486 331.0981 L360 330 L368.5652 328.5981 L375.9178 326.9097 L382.168 324.9609 L387.4259 322.7778 L391.3666 320.6242 L391.4442 320.5611" clip-path="url(#clipPath2)"/>
      <path d="M398.4834 314.9531 L384.4196 318.9656 L390.5643 321.2621 L391.4296 327.7646 Z" clip-path="url(#clipPath2)" stroke="none"/>
      <path fill="none" d="M251.5 379 L306 379" clip-path="url(#clipPath2)"/>
      <path d="M315 379 L301.5 373.375 L304.875 379 L301.5 384.625 Z" clip-path="url(#clipPath2)" stroke="none"/>
      <path fill="none" d="M345.037 377.0141 L347.5195 376.6523 L353.1852 375.7037 L358.7015 374.6127 L364.0312 373.3438 L369.137 371.8613 L373.9815 370.1296 L378.5273 368.1133 L382.7373 365.7766 L386.5739 363.084 L390 360 L392.9906 356.5007 L395.5706 352.61 L397.7773 348.3633 L399.6482 343.7963 L401.2203 338.9446 L402.5312 333.8438 L403.6182 328.5294 L404.5185 323.037 L404.5286 322.9616 L404.5396 322.8622" stroke-width="1" clip-path="url(#clipPath2)" stroke="black"/>
      <path fill="black" d="M405.5467 314.9258 L399.0759 326.2009 L404.4138 323.8542 L408.9963 327.4598 Z" stroke-width="1" clip-path="url(#clipPath2)" stroke="none"/>
    </g>
  </g>
</svg>
