<?xml version="1.0" encoding="UTF-8"?><svg xmlns="http://www.w3.org/2000/svg" xmlns:xlink="http://www.w3.org/1999/xlink" fill-opacity="1" color-rendering="auto" color-interpolation="auto" text-rendering="auto" stroke="black" stroke-linecap="square" width="564" stroke-miterlimit="10" shape-rendering="auto" stroke-opacity="1" fill="black" stroke-dasharray="none" font-weight="normal" stroke-width="1" height="224" font-family="'Dialog'" font-style="normal" stroke-linejoin="miter" font-size="12px" stroke-dashoffset="0" image-rendering="auto">
  <!--Generated by ySVG 2.5-->
  <defs id="genericDefs"/>
  <g>
    <defs id="defs1">
      <clipPath clipPathUnits="userSpaceOnUse" id="clipPath1">
        <path d="M0 0 L564 0 L564 224 L0 224 L0 0 Z"/>
      </clipPath>
      <clipPath clipPathUnits="userSpaceOnUse" id="clipPath2">
        <path d="M82 194 L646 194 L646 418 L82 418 L82 194 Z"/>
      </clipPath>
    </defs>
    <g fill="rgb(255,204,0)" text-rendering="geometricPrecision" shape-rendering="geometricPrecision" transform="matrix(1,0,0,1,-82,-194)" stroke="rgb(255,204,0)">
      <rect x="315" width="30" height="30" y="195" clip-path="url(#clipPath2)" stroke="none"/>
    </g>
    <g font-size="22px" stroke-linecap="butt" transform="matrix(1,0,0,1,-82,-194)" text-rendering="geometricPrecision" font-family="'Fira Mono'" shape-rendering="geometricPrecision" font-weight="bold" stroke-miterlimit="1.45">
      <text x="323.4036" xml:space="preserve" y="217.366" clip-path="url(#clipPath2)" stroke="none">a</text>
    </g>
    <g fill="rgb(255,204,0)" text-rendering="geometricPrecision" shape-rendering="geometricPrecision" transform="matrix(1,0,0,1,-82,-194)" stroke="rgb(255,204,0)">
      <rect x="375" width="30" height="30" y="195" clip-path="url(#clipPath2)" stroke="none"/>
    </g>
    <g font-size="22px" stroke-linecap="butt" transform="matrix(1,0,0,1,-82,-194)" text-rendering="geometricPrecision" font-family="'Fira Mono'" shape-rendering="geometricPrecision" font-weight="bold" stroke-miterlimit="1.45">
      <text x="383.4036" xml:space="preserve" y="217.366" clip-path="url(#clipPath2)" stroke="none">b</text>
    </g>
    <g fill="rgb(255,204,0)" text-rendering="geometricPrecision" shape-rendering="geometricPrecision" transform="matrix(1,0,0,1,-82,-194)" stroke="rgb(255,204,0)">
      <rect x="435" width="30" height="30" y="285" clip-path="url(#clipPath2)" stroke="none"/>
    </g>
    <g font-size="22px" stroke-linecap="butt" transform="matrix(1,0,0,1,-82,-194)" text-rendering="geometricPrecision" font-family="'Fira Mono'" shape-rendering="geometricPrecision" font-weight="bold" stroke-miterlimit="1.45">
      <text x="443.4036" xml:space="preserve" y="307.366" clip-path="url(#clipPath2)" stroke="none">c</text>
    </g>
    <g fill="rgb(255,204,0)" text-rendering="geometricPrecision" shape-rendering="geometricPrecision" transform="matrix(1,0,0,1,-82,-194)" stroke="rgb(255,204,0)">
      <rect x="495" width="30" height="30" y="285" clip-path="url(#clipPath2)" stroke="none"/>
    </g>
    <g font-size="22px" stroke-linecap="butt" transform="matrix(1,0,0,1,-82,-194)" text-rendering="geometricPrecision" font-family="'Fira Mono'" shape-rendering="geometricPrecision" font-weight="bold" stroke-miterlimit="1.45">
      <text x="503.4036" xml:space="preserve" y="307.366" clip-path="url(#clipPath2)" stroke="none">d</text>
    </g>
    <g fill="rgb(255,204,0)" text-rendering="geometricPrecision" shape-rendering="geometricPrecision" transform="matrix(1,0,0,1,-82,-194)" stroke="rgb(255,204,0)">
      <rect x="555" width="30" height="30" y="285" clip-path="url(#clipPath2)" stroke="none"/>
    </g>
    <g font-size="22px" stroke-linecap="butt" transform="matrix(1,0,0,1,-82,-194)" text-rendering="geometricPrecision" font-family="'Fira Mono'" shape-rendering="geometricPrecision" font-weight="bold" stroke-miterlimit="1.45">
      <text x="563.4036" xml:space="preserve" y="307.366" clip-path="url(#clipPath2)" stroke="none">e</text>
    </g>
    <g fill="white" text-rendering="geometricPrecision" shape-rendering="geometricPrecision" transform="matrix(1,0,0,1,-82,-194)" stroke="white">
      <rect x="615" width="30" height="30" y="285" clip-path="url(#clipPath2)" stroke="none"/>
    </g>
    <g font-size="22px" stroke-linecap="butt" transform="matrix(1,0,0,1,-82,-194)" text-rendering="geometricPrecision" font-family="'Fira Mono'" shape-rendering="geometricPrecision" font-weight="bold" stroke-miterlimit="1.45">
      <text x="616.8073" xml:space="preserve" y="307.366" clip-path="url(#clipPath2)" stroke="none">[]</text>
    </g>
    <g fill="rgb(255,204,0)" text-rendering="geometricPrecision" shape-rendering="geometricPrecision" transform="matrix(1,0,0,1,-82,-194)" stroke="rgb(255,204,0)">
      <rect x="435" width="30" height="30" y="345" clip-path="url(#clipPath2)" stroke="none"/>
    </g>
    <g font-size="22px" stroke-linecap="butt" transform="matrix(1,0,0,1,-82,-194)" text-rendering="geometricPrecision" font-family="'Fira Mono'" shape-rendering="geometricPrecision" font-weight="bold" stroke-miterlimit="1.45">
      <text x="443.4036" xml:space="preserve" y="367.366" clip-path="url(#clipPath2)" stroke="none">x</text>
    </g>
    <g fill="rgb(255,204,0)" text-rendering="geometricPrecision" shape-rendering="geometricPrecision" transform="matrix(1,0,0,1,-82,-194)" stroke="rgb(255,204,0)">
      <rect x="495" width="30" height="30" y="345" clip-path="url(#clipPath2)" stroke="none"/>
    </g>
    <g font-size="22px" stroke-linecap="butt" transform="matrix(1,0,0,1,-82,-194)" text-rendering="geometricPrecision" font-family="'Fira Mono'" shape-rendering="geometricPrecision" font-weight="bold" stroke-miterlimit="1.45">
      <text x="503.4036" xml:space="preserve" y="367.366" clip-path="url(#clipPath2)" stroke="none">y</text>
    </g>
    <g fill="rgb(255,204,0)" text-rendering="geometricPrecision" shape-rendering="geometricPrecision" transform="matrix(1,0,0,1,-82,-194)" stroke="rgb(255,204,0)">
      <rect x="555" width="30" height="30" y="345" clip-path="url(#clipPath2)" stroke="none"/>
    </g>
    <g font-size="22px" stroke-linecap="butt" transform="matrix(1,0,0,1,-82,-194)" text-rendering="geometricPrecision" font-family="'Fira Mono'" shape-rendering="geometricPrecision" font-weight="bold" stroke-miterlimit="1.45">
      <text x="563.4036" xml:space="preserve" y="367.366" clip-path="url(#clipPath2)" stroke="none">z</text>
    </g>
    <g fill="white" text-rendering="geometricPrecision" shape-rendering="geometricPrecision" transform="matrix(1,0,0,1,-82,-194)" stroke="white">
      <rect x="615" width="30" height="30" y="345" clip-path="url(#clipPath2)" stroke="none"/>
    </g>
    <g font-size="22px" stroke-linecap="butt" transform="matrix(1,0,0,1,-82,-194)" text-rendering="geometricPrecision" font-family="'Fira Mono'" shape-rendering="geometricPrecision" font-weight="bold" stroke-miterlimit="1.45">
      <text x="616.8073" xml:space="preserve" y="367.366" clip-path="url(#clipPath2)" stroke="none">[]</text>
    </g>
    <g fill="rgb(51,153,102)" text-rendering="geometricPrecision" shape-rendering="geometricPrecision" transform="matrix(1,0,0,1,-82,-194)" stroke="rgb(51,153,102)">
      <rect x="129" width="131" height="30" y="285" clip-path="url(#clipPath2)" stroke="none"/>
    </g>
    <g font-size="22px" stroke-linecap="butt" transform="matrix(1,0,0,1,-82,-194)" text-rendering="geometricPrecision" font-family="'Fira Mono'" shape-rendering="geometricPrecision" font-weight="bold" stroke-miterlimit="1.45">
      <text x="168.1145" xml:space="preserve" y="307.366" clip-path="url(#clipPath2)" stroke="none">que0</text>
    </g>
    <g fill="rgb(51,153,102)" text-rendering="geometricPrecision" shape-rendering="geometricPrecision" transform="matrix(1,0,0,1,-82,-194)" stroke="rgb(51,153,102)">
      <rect x="129" width="131" height="30" y="195" clip-path="url(#clipPath2)" stroke="none"/>
    </g>
    <g font-size="22px" stroke-linecap="butt" transform="matrix(1,0,0,1,-82,-194)" text-rendering="geometricPrecision" font-family="'Fira Mono'" shape-rendering="geometricPrecision" font-weight="bold" stroke-miterlimit="1.45">
      <text x="168.1145" xml:space="preserve" y="217.366" clip-path="url(#clipPath2)" stroke="none">que1</text>
      <path fill="none" d="M345 210 L367 210" clip-path="url(#clipPath2)"/>
      <path d="M375 210 L363 205 L366 210 L363 215 Z" stroke="none" clip-path="url(#clipPath2)"/>
      <path fill="none" d="M400 225 L435.5624 278.3436" clip-path="url(#clipPath2)"/>
      <path d="M440 285 L437.5039 272.2419 L435.0077 277.5115 L429.1833 277.7889 Z" stroke="none" clip-path="url(#clipPath2)"/>
      <path fill="none" d="M465 300 L487 300" clip-path="url(#clipPath2)"/>
      <path d="M495 300 L483 295 L486 300 L483 305 Z" stroke="none" clip-path="url(#clipPath2)"/>
      <path fill="none" d="M525 300 L547 300" clip-path="url(#clipPath2)"/>
      <path d="M555 300 L543 295 L546 300 L543 305 Z" stroke="none" clip-path="url(#clipPath2)"/>
      <path fill="none" d="M585 300 L607 300" clip-path="url(#clipPath2)"/>
      <path d="M615 300 L603 295 L606 300 L603 305 Z" stroke="none" clip-path="url(#clipPath2)"/>
      <path fill="none" d="M465 360 L487 360" clip-path="url(#clipPath2)"/>
      <path d="M495 360 L483 355 L486 360 L483 365 Z" stroke="none" clip-path="url(#clipPath2)"/>
      <path fill="none" d="M525 360 L547 360" clip-path="url(#clipPath2)"/>
      <path d="M555 360 L543 355 L546 360 L543 365 Z" stroke="none" clip-path="url(#clipPath2)"/>
      <path fill="none" d="M585 360 L607 360" clip-path="url(#clipPath2)"/>
      <path d="M615 360 L603 355 L606 360 L603 365 Z" stroke="none" clip-path="url(#clipPath2)"/>
    </g>
    <g stroke-linecap="butt" transform="matrix(1,0,0,1,-82,-194)" fill="rgb(51,153,102)" text-rendering="geometricPrecision" shape-rendering="geometricPrecision" stroke="rgb(51,153,102)" stroke-width="2" stroke-miterlimit="1.45">
      <path fill="none" d="M227.5339 284.9894 L234.379 282.3351 L242.875 279.375 L251.6001 276.7274 L260.5926 274.4445 L269.8906 272.5781 L279.5324 271.1805 L289.5562 270.3038 L300 270 L310.8895 270.3038 L322.1991 271.1805 L333.8906 272.5781 L345.9259 274.4445 L358.2668 276.7274 L370.875 279.375 L383.7124 282.3351 L396.7408 285.5555 L409.9219 288.9844 L423.2176 292.5695 L426.3207 293.4256" clip-path="url(#clipPath2)"/>
      <path d="M434.9966 295.8192 L423.4787 286.8064 L425.2362 293.1264 L420.4868 297.6512 Z" clip-path="url(#clipPath2)" stroke="none"/>
      <path fill="none" d="M204.3495 315.0215 L206.9062 318.5156 L211.6296 324.4445 L216.7141 330.1649 L222.25 335.625 L228.3275 340.7726 L235.037 345.5555 L242.4688 349.9219 L250.713 353.8195 L259.86 357.1962 L270 360 L281.1933 362.1962 L293.3796 363.8195 L306.4688 364.9219 L320.3704 365.5555 L334.9942 365.7726 L350.25 365.625 L366.0475 365.1649 L382.2963 364.4445 L398.9062 363.5156 L415.787 362.4305 L426.0222 361.7171 L426.1219 361.7099" clip-path="url(#clipPath2)"/>
      <path d="M435.0998 361.0786 L421.2384 356.4144 L424.9997 361.7888 L422.0276 367.6367 Z" clip-path="url(#clipPath2)" stroke="none"/>
      <path fill="none" d="M259.9962 210 L263.75 210 L274.0058 210 L283.6296 210 L292.5312 210 L300.6204 210 L306.0039 210 L306.1039 210" clip-path="url(#clipPath2)"/>
      <path d="M315.1039 210 L301.6039 204.375 L304.9789 210 L301.6039 215.625 Z" clip-path="url(#clipPath2)" stroke="none"/>
      <path fill="none" d="M128.9902 210.5913 L123.0252 211.9965 L114.746 215.0794 L107.2109 219.2812 L100.5129 224.7421 L94.7449 231.6017 L90 240 L86.3731 250.0065 L83.9666 261.4087 L82.885 273.9241 L83.2328 287.2698 L85.1143 301.1632 L88.6339 315.3214 L93.8961 329.4618 L101.0053 343.3016 L110.0659 356.558 L121.1822 368.9484 L134.4588 380.19 L150 390 L167.8344 398.1628 L187.6868 404.7308 L209.2065 409.8237 L232.0423 413.5609 L255.8435 416.0619 L280.2589 417.4464 L304.9378 417.8339 L329.5291 417.3439 L353.6819 416.096 L377.0453 414.2097 L399.2683 411.8045 L420 409 L438.9735 405.8997 L456.2583 402.543 L472.0078 398.9531 L486.3757 395.1534 L499.5153 391.1672 L511.5804 387.0179 L522.7242 382.7286 L533.1005 378.3228 L542.8627 373.8237 L546.9572 371.8125 L547.0461 371.7668" clip-path="url(#clipPath2)"/>
      <path d="M555.0998 367.7496 L540.5085 368.7419 L546.0394 372.269 L545.53 378.809 Z" clip-path="url(#clipPath2)" stroke="none"/>
    </g>
  </g>
</svg>
