<?xml version="1.0" encoding="UTF-8"?><svg xmlns="http://www.w3.org/2000/svg" xmlns:xlink="http://www.w3.org/1999/xlink" fill-opacity="1" color-rendering="auto" color-interpolation="auto" text-rendering="auto" stroke="black" stroke-linecap="square" width="553" stroke-miterlimit="10" shape-rendering="auto" stroke-opacity="1" fill="black" stroke-dasharray="none" font-weight="normal" stroke-width="1" height="196" font-family="'Dialog'" font-style="normal" stroke-linejoin="miter" font-size="12px" stroke-dashoffset="0" image-rendering="auto">
  <!--Generated by ySVG 2.5-->
  <defs id="genericDefs"/>
  <g>
    <defs id="defs1">
      <clipPath clipPathUnits="userSpaceOnUse" id="clipPath1">
        <path d="M0 0 L553 0 L553 196 L0 196 L0 0 Z"/>
      </clipPath>
      <clipPath clipPathUnits="userSpaceOnUse" id="clipPath2">
        <path d="M205 74 L758 74 L758 270 L205 270 L205 74 Z"/>
      </clipPath>
    </defs>
    <g fill="rgb(255,204,0)" text-rendering="geometricPrecision" shape-rendering="geometricPrecision" transform="matrix(1,0,0,1,-205,-74)" stroke="rgb(255,204,0)">
      <rect x="266" width="30" height="30" y="135" clip-path="url(#clipPath2)" stroke="none"/>
    </g>
    <g font-size="22px" stroke-linecap="butt" transform="matrix(1,0,0,1,-205,-74)" text-rendering="geometricPrecision" font-family="'Fira Mono'" shape-rendering="geometricPrecision" font-weight="bold" stroke-miterlimit="1.45">
      <text x="274.4036" xml:space="preserve" y="157.366" clip-path="url(#clipPath2)" stroke="none">a</text>
    </g>
    <g fill="rgb(255,204,0)" text-rendering="geometricPrecision" shape-rendering="geometricPrecision" transform="matrix(1,0,0,1,-205,-74)" stroke="rgb(255,204,0)">
      <rect x="326" width="30" height="30" y="135" clip-path="url(#clipPath2)" stroke="none"/>
    </g>
    <g font-size="22px" stroke-linecap="butt" transform="matrix(1,0,0,1,-205,-74)" text-rendering="geometricPrecision" font-family="'Fira Mono'" shape-rendering="geometricPrecision" font-weight="bold" stroke-miterlimit="1.45">
      <text x="334.4036" xml:space="preserve" y="157.366" clip-path="url(#clipPath2)" stroke="none">b</text>
    </g>
    <g fill="rgb(255,204,0)" text-rendering="geometricPrecision" shape-rendering="geometricPrecision" transform="matrix(1,0,0,1,-205,-74)" stroke="rgb(255,204,0)">
      <rect x="386" width="30" height="30" y="135" clip-path="url(#clipPath2)" stroke="none"/>
    </g>
    <g font-size="22px" stroke-linecap="butt" transform="matrix(1,0,0,1,-205,-74)" text-rendering="geometricPrecision" font-family="'Fira Mono'" shape-rendering="geometricPrecision" font-weight="bold" stroke-miterlimit="1.45">
      <text x="394.4036" xml:space="preserve" y="157.366" clip-path="url(#clipPath2)" stroke="none">c</text>
    </g>
    <g fill="rgb(255,204,0)" text-rendering="geometricPrecision" shape-rendering="geometricPrecision" transform="matrix(1,0,0,1,-205,-74)" stroke="rgb(255,204,0)">
      <rect x="487" width="30" height="30" y="135" clip-path="url(#clipPath2)" stroke="none"/>
    </g>
    <g font-size="22px" stroke-linecap="butt" transform="matrix(1,0,0,1,-205,-74)" text-rendering="geometricPrecision" font-family="'Fira Mono'" shape-rendering="geometricPrecision" font-weight="bold" stroke-miterlimit="1.45">
      <text x="495.4036" xml:space="preserve" y="157.366" clip-path="url(#clipPath2)" stroke="none">d</text>
    </g>
    <g fill="rgb(255,204,0)" text-rendering="geometricPrecision" shape-rendering="geometricPrecision" transform="matrix(1,0,0,1,-205,-74)" stroke="rgb(255,204,0)">
      <rect x="547" width="30" height="30" y="135" clip-path="url(#clipPath2)" stroke="none"/>
    </g>
    <g font-size="22px" stroke-linecap="butt" transform="matrix(1,0,0,1,-205,-74)" text-rendering="geometricPrecision" font-family="'Fira Mono'" shape-rendering="geometricPrecision" font-weight="bold" stroke-miterlimit="1.45">
      <text x="555.4036" xml:space="preserve" y="157.366" clip-path="url(#clipPath2)" stroke="none">e</text>
    </g>
    <g fill="white" text-rendering="geometricPrecision" shape-rendering="geometricPrecision" transform="matrix(1,0,0,1,-205,-74)" stroke="white">
      <rect x="727" width="30" height="30" y="135" clip-path="url(#clipPath2)" stroke="none"/>
    </g>
    <g font-size="22px" stroke-linecap="butt" transform="matrix(1,0,0,1,-205,-74)" text-rendering="geometricPrecision" font-family="'Fira Mono'" shape-rendering="geometricPrecision" font-weight="bold" stroke-miterlimit="1.45">
      <text x="728.8073" xml:space="preserve" y="157.366" clip-path="url(#clipPath2)" stroke="none">[]</text>
    </g>
    <g fill="rgb(255,204,0)" text-rendering="geometricPrecision" shape-rendering="geometricPrecision" transform="matrix(1,0,0,1,-205,-74)" stroke="rgb(255,204,0)">
      <rect x="667" width="30" height="30" y="135" clip-path="url(#clipPath2)" stroke="none"/>
    </g>
    <g font-size="22px" stroke-linecap="butt" transform="matrix(1,0,0,1,-205,-74)" text-rendering="geometricPrecision" font-family="'Fira Mono'" shape-rendering="geometricPrecision" font-weight="bold" stroke-miterlimit="1.45">
      <text x="675.4036" xml:space="preserve" y="157.366" clip-path="url(#clipPath2)" stroke="none">g</text>
    </g>
    <g fill="rgb(255,204,0)" text-rendering="geometricPrecision" shape-rendering="geometricPrecision" transform="matrix(1,0,0,1,-205,-74)" stroke="rgb(255,204,0)">
      <rect x="607" width="30" height="30" y="135" clip-path="url(#clipPath2)" stroke="none"/>
    </g>
    <g font-size="22px" stroke-linecap="butt" transform="matrix(1,0,0,1,-205,-74)" text-rendering="geometricPrecision" font-family="'Fira Mono'" shape-rendering="geometricPrecision" font-weight="bold" stroke-miterlimit="1.45">
      <text x="615.4036" xml:space="preserve" y="157.366" clip-path="url(#clipPath2)" stroke="none">f</text>
    </g>
    <g fill="white" text-rendering="geometricPrecision" shape-rendering="geometricPrecision" transform="matrix(1,0,0,1,-205,-74)" stroke="white">
      <rect x="206" width="30" height="30" y="135" clip-path="url(#clipPath2)" stroke="none"/>
    </g>
    <g font-size="22px" stroke-linecap="butt" transform="matrix(1,0,0,1,-205,-74)" text-rendering="geometricPrecision" font-family="'Fira Mono'" shape-rendering="geometricPrecision" font-weight="bold" stroke-miterlimit="1.45">
      <text x="207.8073" xml:space="preserve" y="157.366" clip-path="url(#clipPath2)" stroke="none">[]</text>
    </g>
    <g fill="rgb(51,153,102)" text-rendering="geometricPrecision" shape-rendering="geometricPrecision" transform="matrix(1,0,0,1,-205,-74)" stroke="rgb(51,153,102)">
      <rect x="375" width="131" height="30" y="75" clip-path="url(#clipPath2)" stroke="none"/>
    </g>
    <g font-size="22px" stroke-linecap="butt" transform="matrix(1,0,0,1,-205,-74)" text-rendering="geometricPrecision" font-family="'Fira Mono'" shape-rendering="geometricPrecision" font-weight="bold" stroke-miterlimit="1.45">
      <text x="414.1145" xml:space="preserve" y="97.366" clip-path="url(#clipPath2)" stroke="none">zip0</text>
    </g>
    <g fill="rgb(51,153,102)" text-rendering="geometricPrecision" shape-rendering="geometricPrecision" transform="matrix(1,0,0,1,-205,-74)" stroke="rgb(51,153,102)">
      <rect x="423.7" width="131" height="30" y="239.4" clip-path="url(#clipPath2)" stroke="none"/>
    </g>
    <g font-size="22px" stroke-linecap="butt" transform="matrix(1,0,0,1,-205,-74)" text-rendering="geometricPrecision" font-family="'Fira Mono'" shape-rendering="geometricPrecision" font-weight="bold" stroke-miterlimit="1.45">
      <text x="462.8145" xml:space="preserve" y="261.766" clip-path="url(#clipPath2)" stroke="none">zip1</text>
    </g>
    <g fill="rgb(255,204,0)" text-rendering="geometricPrecision" shape-rendering="geometricPrecision" transform="matrix(1,0,0,1,-205,-74)" stroke="rgb(255,204,0)">
      <rect x="416" width="30" height="30" y="185.2" clip-path="url(#clipPath2)" stroke="none"/>
    </g>
    <g font-size="22px" stroke-linecap="butt" transform="matrix(1,0,0,1,-205,-74)" text-rendering="geometricPrecision" font-family="'Fira Mono'" shape-rendering="geometricPrecision" font-weight="bold" stroke-miterlimit="1.45">
      <text x="424.4036" xml:space="preserve" y="207.5659" clip-path="url(#clipPath2)" stroke="none">x</text>
    </g>
    <g fill="rgb(51,153,102)" text-rendering="geometricPrecision" shape-rendering="geometricPrecision" transform="matrix(1,0,0,1,-205,-74)" stroke="rgb(51,153,102)">
      <rect x="584.7" width="131" height="30" y="239.4" clip-path="url(#clipPath2)" stroke="none"/>
    </g>
    <g font-size="22px" stroke-linecap="butt" transform="matrix(1,0,0,1,-205,-74)" text-rendering="geometricPrecision" font-family="'Fira Mono'" shape-rendering="geometricPrecision" font-weight="bold" stroke-miterlimit="1.45">
      <text x="623.8145" xml:space="preserve" y="261.766" clip-path="url(#clipPath2)" stroke="none">zip2</text>
    </g>
    <g fill="rgb(255,204,0)" text-rendering="geometricPrecision" shape-rendering="geometricPrecision" transform="matrix(1,0,0,1,-205,-74)" stroke="rgb(255,204,0)">
      <rect x="554.7" width="30" height="30" y="187.2" clip-path="url(#clipPath2)" stroke="none"/>
    </g>
    <g font-size="22px" stroke-linecap="butt" transform="matrix(1,0,0,1,-205,-74)" text-rendering="geometricPrecision" font-family="'Fira Mono'" shape-rendering="geometricPrecision" font-weight="bold" stroke-miterlimit="1.45">
      <text x="563.1036" xml:space="preserve" y="209.5659" clip-path="url(#clipPath2)" stroke="none">e</text>
      <path fill="none" d="M326 150 L304 150" clip-path="url(#clipPath2)"/>
      <path d="M296 150 L308 155 L305 150 L308 145 Z" stroke="none" clip-path="url(#clipPath2)"/>
      <path fill="none" d="M386 150 L364 150" clip-path="url(#clipPath2)"/>
      <path d="M356 150 L368 155 L365 150 L368 145 Z" stroke="none" clip-path="url(#clipPath2)"/>
      <path fill="none" d="M517 150 L539 150" clip-path="url(#clipPath2)"/>
      <path d="M547 150 L535 145 L538 150 L535 155 Z" stroke="none" clip-path="url(#clipPath2)"/>
      <path fill="none" d="M697 150 L719 150" clip-path="url(#clipPath2)"/>
      <path d="M727 150 L715 145 L718 150 L715 155 Z" stroke="none" clip-path="url(#clipPath2)"/>
      <path fill="none" d="M577 150 L599 150" clip-path="url(#clipPath2)"/>
      <path d="M607 150 L595 145 L598 150 L595 155 Z" stroke="none" clip-path="url(#clipPath2)"/>
      <path fill="none" d="M637 150 L659 150" clip-path="url(#clipPath2)"/>
      <path d="M667 150 L655 145 L658 150 L655 155 Z" stroke="none" clip-path="url(#clipPath2)"/>
      <path fill="none" d="M266 150 L244 150" clip-path="url(#clipPath2)"/>
      <path d="M236 150 L248 155 L245 150 L248 145 Z" stroke="none" clip-path="url(#clipPath2)"/>
    </g>
    <g stroke-linecap="butt" transform="matrix(1,0,0,1,-205,-74)" fill="rgb(51,153,102)" text-rendering="geometricPrecision" shape-rendering="geometricPrecision" stroke="rgb(51,153,102)" stroke-width="2" stroke-miterlimit="1.45">
      <path fill="none" d="M430.625 105 L415.8239 127.4828" clip-path="url(#clipPath2)"/>
      <path d="M410.875 135 L422.9966 126.8172 L416.4424 126.5431 L413.6 120.6311 Z" clip-path="url(#clipPath2)" stroke="none"/>
      <path fill="none" d="M455.875 105 L480.558 129.0809" clip-path="url(#clipPath2)"/>
      <path d="M487 135.3658 L481.265 121.9122 L479.7527 128.2953 L473.4089 129.9647 Z" clip-path="url(#clipPath2)" stroke="none"/>
      <path fill="none" d="M501.7364 239.3809 L502.207 238.7656 L504.5266 235.6435 L507.1153 232.07 L510 228 L513.1987 223.4034 L516.6933 218.3102 L520.457 212.7656 L524.463 206.8148 L528.6841 200.5029 L533.0938 193.875 L537.6648 186.9763 L542.3704 179.8519 L547.1836 172.5469 L547.1898 172.5375 L547.2447 172.4539" clip-path="url(#clipPath2)"/>
      <path d="M552.1904 164.9347 L540.0723 173.1225 L546.6265 173.3938 L549.4713 179.3047 Z" clip-path="url(#clipPath2)" stroke="none"/>
      <path fill="none" d="M473.093 239.4 L452.5863 220.3027" clip-path="url(#clipPath2)"/>
      <path d="M446 214.1691 L452.0459 227.4859 L453.4095 221.0694 L459.7129 219.2531 Z" clip-path="url(#clipPath2)" stroke="none"/>
      <path fill="none" d="M433.3489 185.2228 L433.5825 183.1062 L433.8125 179.9375 L433.8863 176.8834 L433.7778 173.963 L433.4609 171.1953 L432.9097 168.5995 L432.0981 166.1947 L431 164 L429.5981 162.0281 L427.9097 160.2662 L425.9609 158.6953 L423.7778 157.2963 L423.3846 157.0914 L423.2917 157.0545" stroke-width="1" clip-path="url(#clipPath2)" stroke="black"/>
      <path fill="black" d="M415.946 153.8858 L424.9842 163.2299 L424.2099 157.4506 L428.945 154.0478 Z" stroke-width="1" clip-path="url(#clipPath2)" stroke="none"/>
      <path fill="none" d="M641.8644 239.4056 L640.6337 237.044 L638.875 233.5 L637.1788 229.8727 L635.5555 226.1481 L634.0156 222.3125 L632.5695 218.3519 L631.2274 214.2523 L630 210 L628.8941 205.5856 L627.9028 201.0185 L627.0156 196.3125 L626.2222 191.4815 L625.5121 186.5394 L624.875 181.5 L624.3004 176.3773 L624.0558 173.9478 L624.0468 173.8482" clip-path="url(#clipPath2)"/>
      <path d="M623.2067 164.8875 L618.8664 178.8536 L624.1518 174.9683 L630.0673 177.8035 Z" clip-path="url(#clipPath2)" stroke="none"/>
      <path fill="none" d="M627.0678 239.4 L592.2513 216.8234" clip-path="url(#clipPath2)"/>
      <path d="M584.7 211.9267 L592.9666 223.9913 L593.1953 217.4355 L599.0875 214.5521 Z" clip-path="url(#clipPath2)" stroke="none"/>
      <path fill="none" d="M554.7 202.1481 L453.9983 201.8" stroke-width="1" clip-path="url(#clipPath2)" stroke="black"/>
      <path fill="black" d="M445.9984 201.7724 L457.981 206.8138 L454.9983 201.8035 L458.0156 196.8139 Z" stroke-width="1" clip-path="url(#clipPath2)" stroke="none"/>
    </g>
  </g>
</svg>
