<?xml version="1.0" encoding="UTF-8" standalone="no"?>
<!-- Created with Inkscape (http://www.inkscape.org/) -->

<svg
   width="192.577mm"
   height="192.46062mm"
   viewBox="0 0 192.577 192.46062"
   version="1.1"
   id="svg5"
   inkscape:version="1.1.1 (3bf5ae0d25, 2021-09-20)"
   sodipodi:docname="qr2022.svg"
   xmlns:inkscape="http://www.inkscape.org/namespaces/inkscape"
   xmlns:sodipodi="http://sodipodi.sourceforge.net/DTD/sodipodi-0.dtd"
   xmlns="http://www.w3.org/2000/svg"
   xmlns:svg="http://www.w3.org/2000/svg">
  <sodipodi:namedview
     id="namedview7"
     pagecolor="#ffffff"
     bordercolor="#666666"
     borderopacity="1.0"
     inkscape:pageshadow="2"
     inkscape:pageopacity="0.0"
     inkscape:pagecheckerboard="0"
     inkscape:document-units="mm"
     showgrid="false"
     fit-margin-top="0"
     fit-margin-left="0"
     fit-margin-right="0"
     fit-margin-bottom="0"
     inkscape:zoom="0.26205012"
     inkscape:cx="-705.97181"
     inkscape:cy="124.02208"
     inkscape:window-width="1920"
     inkscape:window-height="1017"
     inkscape:window-x="-8"
     inkscape:window-y="-8"
     inkscape:window-maximized="1"
     inkscape:current-layer="layer1" />
  <defs
     id="defs2" />
  <g
     inkscape:label="Слой 1"
     inkscape:groupmode="layer"
     id="layer1"
     transform="translate(-8.0911818,-6.2599903)">
    <path
       style="fill:#020202;stroke:none;stroke-width:0.264583"
       d="M 19.850407,6.6747278 C 6.48521,8.7622378 8.473324,22.982268 8.473324,33.016908 c 0,5.02867 -0.603038,10.26927 2.582545,14.55208 5.200385,6.99162 14.665139,5.29167 22.288288,5.29167 3.269721,0 6.821223,0.38867 10.054166,-0.11615 13.365163,-2.08756 11.377084,-16.3076 11.377084,-26.34218 0,-5.02875 0.602985,-10.26933 -2.582598,-14.55209 C 46.992423,4.8587078 37.527748,6.5585778 29.904574,6.5585778 c -3.269642,0 -6.821276,-0.38878 -10.054167,0.11615 m 50.535681,0.0566 c -2.682346,0.84539 -1.835944,3.6664902 -3.496469,5.3269902 -1.387211,1.38718 -3.566848,0.85164 -4.79769,2.46554 -0.911754,1.19544 -0.701939,2.79437 -0.701939,4.20558 v 8.46667 c 0,1.3725 -0.237331,3.00461 0.531548,4.22195 1.226873,1.94204 3.745177,1.26709 5.185039,2.94958 1.390386,1.62507 0.674158,4.03992 3.015721,4.99692 1.246452,0.50932 2.697692,0.13732 3.598862,-0.84799 1.547548,-1.69228 0.716757,-4.18968 3.279511,-5.23267 2.850621,-1.15993 6.926262,0.99166 9.496954,-0.9689 2.078037,-1.58459 1.009914,-5.23745 4.261114,-5.79689 4.687619,-0.80661 2.792939,7.92044 7.937239,6.32579 2.828402,-0.87656 1.857372,-4.19293 3.980392,-5.73966 2.94137,-2.14294 7.76261,0.91745 10.51534,-1.59996 2.6035,-2.3808 0.18626,-7.01127 1.38192,-9.94963 1.07606,-2.6443 3.8219,-1.71656 5.44962,-3.49633 1.69809,-1.85706 0.66516,-4.8400802 -1.74784,-5.3953902 -2.29103,-0.52723 -8.00338,-0.82862 -9.68534,1.01055 -1.24195,1.35816 -0.762,3.3294102 -2.24869,4.6016402 -1.22687,1.04981 -2.95725,0.70633 -4.14893,1.79615 -1.72191,1.5745 -1.3343,6.60542 -5.083712,5.53971 -5.1144,-1.4537 -0.96864,-8.58221 -3.34777,-11.7017002 -1.33218,-1.74694 -3.715281,-1.35067 -5.648062,-1.35067 h -11.90625 c -1.800489,0 -4.090458,-0.37262 -5.820568,0.17272 m 59.531252,2.1e-4 c -4.04707,1.25428 -2.14974,7.5088702 1.85156,6.2687202 4.04706,-1.25429 2.14974,-7.5088802 -1.85156,-6.2687202 m 35.4539,-0.0568 c -13.36516,2.08751 -11.37708,16.3075402 -11.37708,26.3421802 0,5.02867 -0.60299,10.26927 2.5826,14.55208 5.20038,6.99162 14.66506,5.29167 22.28823,5.29167 3.26972,0 6.82123,0.38867 10.05417,-0.11615 13.36516,-2.08756 11.37708,-16.3076 11.37708,-26.34218 0,-5.02875 0.60299,-10.26933 -2.5826,-14.55209 -5.20038,-6.9915102 -14.66506,-5.2916602 -22.28823,-5.2916602 -3.26972,0 -6.82122,-0.38878 -10.05417,0.11615 M 23.819157,13.249738 c 2.494941,-0.32501 5.158634,-0.0766 7.672917,-0.0766 5.430572,0 11.313847,-0.79362 14.91271,4.23333 2.167202,3.02737 1.756039,6.80675 1.756039,10.31875 0,7.28319 0.966523,17.18099 -8.73125,18.44437 -2.49502,0.32491 -5.158581,0.0765 -7.672916,0.0765 -5.43052,0 -11.313821,0.79349 -14.912631,-4.23333 -2.167281,-3.02736 -1.756119,-6.80667 -1.756119,-10.31875 0,-7.28311 -0.966549,-17.18096 8.73125,-18.44426 m 53.445832,0.0288 c 5.484019,-1.18753 5.658115,12.07973 1.322917,13.0185 -5.484019,1.18753 -5.658114,-12.07974 -1.322917,-13.0185 m 46.037771,0.0676 c -4.04707,1.25428 -2.14974,7.50887 1.85155,6.26872 4.04707,-1.25429 2.14974,-7.50888 -1.85155,-6.26872 m 19.84375,0 c -3.18215,0.9862 -3.17871,8.34551 -2.11455,10.93856 0.62865,1.53167 2.35823,2.44308 3.9661,1.94474 3.18215,-0.98621 3.17871,-8.34551 2.11455,-10.93856 -0.62865,-1.53168 -2.35823,-2.44311 -3.9661,-1.94474 m 26.19348,-0.0964 c 2.49502,-0.32502 5.15858,-0.0766 7.67292,-0.0766 5.43057,0 11.31385,-0.79362 14.91271,4.23333 2.1672,3.02736 1.75604,6.80675 1.75604,10.31875 0,7.28318 0.96652,17.18098 -8.73125,18.44437 -2.49502,0.32491 -5.15858,0.0765 -7.67292,0.0765 -5.43057,0 -11.31384,0.79348 -14.91271,-4.23334 -2.1672,-3.02736 -1.75604,-6.80667 -1.75604,-10.31875 0,-7.2831 -0.96652,-17.18095 8.73125,-18.44426 m -142.345833,6.67502 c -5.427689,1.16004 -5.291667,6.30259 -5.291667,10.71092 0,2.24525 -0.110622,4.43944 1.306777,6.33968 2.565771,3.43932 9.385036,3.34433 13.245307,2.5191 5.427662,-1.15993 5.291666,-6.30264 5.291666,-10.71086 0,-2.24518 0.110596,-4.43953 -1.306777,-6.33958 -2.565665,-3.43948 -9.385035,-3.34431 -13.245306,-2.51926 m 145.520833,0 c -5.42766,1.16004 -5.29166,6.30259 -5.29166,10.71092 0,2.24525 -0.1106,4.43944 1.30677,6.33968 2.56567,3.43932 9.38504,3.34433 13.24531,2.5191 5.42766,-1.15993 5.29167,-6.30264 5.29167,-10.71086 0,-2.24518 0.11059,-4.43953 -1.30678,-6.33958 -2.56567,-3.43948 -9.38504,-3.34431 -13.24531,-2.51926 m -49.21223,6.65031 c -2.5228,0.7951 -3.14405,4.12808 -1.03082,5.73992 1.37478,1.04854 3.14405,0.62468 4.36589,2.05264 1.18586,1.38589 0.70273,3.38296 2.24869,4.56194 1.27344,0.97129 2.95275,0.62045 4.14894,1.8169 1.79943,1.79943 1.33164,6.57172 5.34802,5.32659 1.24592,-0.38603 2.12381,-1.46209 2.32489,-2.73738 0.55801,-3.53563 0.0566,-7.53216 0.0566,-11.1125 0,-1.47823 0.254,-3.2168 -0.70194,-4.47016 -1.0234,-1.34192 -2.52571,-1.35006 -4.06056,-1.35067 -3.78116,-0.001 -9.09267,-0.9642 -12.69973,0.17272 m -6.61458,6.6149 c -4.04707,1.25412 -2.14974,7.50887 1.85155,6.26851 4.04707,-1.25413 2.14974,-7.50888 -1.85155,-6.26851 m -52.916676,6.61458 c -3.182143,0.9861 -3.178704,8.34549 -2.11455,10.9384 0.62865,1.53168 2.358232,2.44317 3.966104,1.94469 3.182144,-0.9861 3.178705,-8.34549 2.11455,-10.9384 -0.62865,-1.53167 -2.358231,-2.44316 -3.966104,-1.94469 m 19.84375,-2.6e-4 c -2.128838,0.67098 -3.052498,3.29088 -1.679575,5.09111 1.808692,2.37172 5.669756,1.04537 5.901267,5.05486 0.243945,4.22566 -1.08929,9.71788 0.18415,13.75807 0.868362,2.75511 3.930382,1.84679 5.543812,3.73221 0.99007,1.15703 0.70035,2.73394 1.59994,3.91319 1.23084,1.61396 3.41048,1.07844 4.79769,2.46565 1.254922,1.25492 0.850642,3.11388 2.012952,4.38468 1.62904,1.78117 8.06688,1.72879 10.21345,0.84799 2.20927,-0.90673 2.77839,-3.82588 1.00277,-5.44962 -1.2708,-1.16232 -3.12976,-0.75804 -4.38468,-2.01295 -1.19644,-1.19619 -0.84561,-2.8755 -1.81689,-4.14894 -1.23084,-1.61395 -3.41048,-1.07844 -4.79769,-2.46565 -1.25492,-1.25492 -0.85064,-3.11388 -2.01295,-4.38467 -1.561582,-1.70736 -4.134652,-0.87181 -5.331092,-3.23268 -1.48458,-2.92867 -0.3855,-8.65029 -0.3855,-11.90519 0,-1.47823 0.254,-3.21681 -0.70194,-4.47014 -1.5748,-2.06507 -7.832197,-1.90712 -10.145714,-1.17792 m 19.843756,2.6e-4 c -1.24592,0.38603 -2.12381,1.46209 -2.3249,2.73738 -0.47889,3.03477 -0.0566,6.45266 -0.0566,9.525 0,1.56977 -0.30347,3.51578 0.17278,5.02682 0.52811,1.67613 2.35161,2.73817 4.06029,2.20848 1.24593,-0.38603 2.12381,-1.46209 2.3249,-2.73738 0.47889,-3.03477 0.0566,-6.45266 0.0566,-9.525 0,-1.56978 0.30347,-3.51579 -0.17278,-5.02682 -0.5281,-1.6764 -2.35161,-2.73818 -4.06029,-2.20848 m 19.84375,0 c -4.04707,1.25413 -2.14974,7.50888 1.85155,6.26851 4.04707,-1.25413 2.14974,-7.50888 -1.85155,-6.26851 m -46.302089,6.61458 c -3.182144,0.98611 -3.178704,8.34549 -2.11455,10.93841 0.62865,1.53167 2.358231,2.44316 3.966104,1.94469 3.182144,-0.98611 3.178704,-8.34549 2.11455,-10.93841 -0.62865,-1.53167 -2.358231,-2.44316 -3.966104,-1.94469 m 39.687509,0 c -4.33282,1.34276 -1.40309,7.61445 -2.64848,10.67462 -1.18454,2.91041 -4.93369,1.6928 -6.08066,4.49924 -1.75604,4.29683 4.02881,3.87667 5.64568,6.09573 1.31657,1.80711 0.65008,4.57597 3.61236,4.95512 5.26309,0.67363 3.30676,-7.11623 3.76078,-9.99358 0.27226,-1.7264 2.05132,-3.52716 3.91213,-2.99826 2.92074,0.83027 1.94866,3.88276 3.76079,5.53985 1.44939,1.3253 3.52875,0.75512 4.79769,2.49687 1.39991,1.92114 1.18983,6.00366 4.93501,4.84267 2.82839,-0.87656 1.85737,-4.19285 3.98039,-5.7396 2.74188,-1.99761 12.34228,1.63062 11.5697,-4.40611 -0.45905,-3.5851 -5.04428,-2.23811 -6.28703,-5.29193 -1.23798,-3.04192 1.73884,-9.73508 -2.9128,-10.74235 -1.86637,-0.40402 -3.62294,0.97182 -3.91213,2.80511 -0.43524,2.75723 1.45627,10.52116 -3.4962,10.23435 -5.8166,-0.33655 -1.34779,-9.55622 -4.28995,-12.24677 -4.98793,-4.56141 -5.02815,6.31931 -9.2038,5.6007 -3.74729,-0.64479 -2.39607,-7.79727 -7.14348,-6.32566 m -99.218791,13.22891 c -2.65684,0.8374 -3.142351,4.4196 -0.782532,5.91026 1.807316,1.14141 7.231539,0.99457 9.248775,0.35877 2.656866,-0.8374 3.142324,-4.4196 0.782532,-5.91026 -1.807343,-1.14141 -7.231539,-0.99457 -9.248775,-0.35877 m 33.072969,2.6e-4 c -4.047067,1.25413 -2.14974,7.50888 1.851554,6.26851 4.047067,-1.25413 2.14974,-7.50888 -1.851554,-6.26851 m 112.447922,0 c -4.04707,1.25413 -2.14974,7.50888 1.85155,6.26851 4.04707,-1.25413 2.14974,-7.50888 -1.85155,-6.26851 m 13.22916,-2.6e-4 c -2.5228,0.79507 -3.1443,4.12802 -1.03081,5.73987 1.37477,1.04854 3.14404,0.62468 4.36589,2.05263 1.18586,1.38589 0.70273,3.38297 2.24869,4.56195 1.19539,0.91175 2.79427,0.70194 4.20555,0.70194 3.45678,0 8.96223,1.04934 12.16978,-0.26697 2.33627,-0.95885 2.78368,-4.10765 0.76702,-5.64567 -1.37477,-1.04855 -3.14404,-0.62469 -4.36588,-2.05264 -1.18587,-1.38589 -0.70274,-3.38296 -2.2487,-4.56195 -1.19539,-0.91175 -2.79426,-0.70194 -4.20555,-0.70194 -3.55388,0 -8.51376,-0.89641 -11.90599,0.17278 m -165.364634,6.61484 c -2.591965,0.80328 -2.381462,3.46737 -2.381462,5.6478 0,5.69621 -0.830527,12.10522 0.05654,17.72708 0.289269,1.8333 2.045865,3.20913 3.912209,2.80511 3.16484,-0.68527 2.067957,-4.48442 4.501991,-5.97773 2.761456,-1.69386 6.684592,0.54266 9.516851,-0.91704 2.953464,-1.52189 2.954787,-10.93655 0,-12.45817 -5.49738,-2.83078 -4.110435,8.42407 -9.25531,5.84332 -3.520149,-1.76556 -1.686798,-6.84371 -2.17424,-9.93299 -0.30488,-1.93198 -2.246154,-3.33586 -4.17658,-2.73738 m 46.302135,-2.6e-4 c -2.522802,0.79507 -3.144044,4.12803 -1.030817,5.73987 1.374775,1.04854 3.144044,0.62468 4.36589,2.05264 1.185862,1.38588 0.702733,3.38296 2.248694,4.56194 1.273439,0.97129 2.95275,0.62045 4.148931,1.8169 1.799431,1.79943 1.331648,6.57145 5.348023,5.32659 2.682345,-0.83132 1.841235,-3.67136 3.496468,-5.32659 1.196182,-1.19645 2.875492,-0.84561 4.148932,-1.8169 1.54596,-1.17898 1.062831,-3.17606 2.248693,-4.56194 1.596496,-1.86558 8.636265,-2.67573 4.818592,-6.85033 -1.64465,-1.79837 -5.108046,-1.11495 -7.304088,-1.11495 H 64.300406 c -2.183077,0 -5.050102,-0.4871 -7.143485,0.17277 m -19.84375,6.61458 c -1.779587,0.56065 -2.833422,2.56487 -2.11455,4.32409 1.146969,2.80643 4.896115,1.58882 6.080655,4.49924 1.258093,3.09165 0.266964,8.31585 0.266964,11.6414 0,1.70206 -0.275431,3.65151 1.114954,4.92284 5.532702,5.059632 5.667375,-9.93378 10.999258,-4.60164 1.503098,1.5031 1.200944,3.57003 -0.483923,4.7977 -1.921139,1.39991 -6.00366,1.18983 -4.842668,4.935002 0.73951,2.38628 3.059641,2.38152 5.118629,2.38152 h 13.49375 c 1.750483,0 4.217193,0.43894 5.816864,-0.3855 1.787261,-0.92101 2.388394,-3.25993 1.154113,-4.87839 -1.482461,-1.943892 -4.297892,-1.042982 -5.527146,-3.468422 -1.311804,-2.58789 0.297392,-6.01504 -0.558271,-8.72993 -0.868362,-2.75511 -3.930385,-1.84679 -5.543814,-3.73221 -1.258094,-1.47029 -0.692415,-3.59251 -2.496873,-4.73234 -5.545931,-3.50255 -4.986073,9.71418 -10.279592,5.18504 -5.12101,-4.38176 5.080265,-5.45994 5.224727,-8.89159 0.06218,-1.47981 -0.942446,-2.82575 -2.342356,-3.26681 -2.959894,-0.93292 -7.221008,-0.17277 -10.318485,-0.17277 -1.492779,0 -3.32449,-0.28046 -4.762236,0.17277 m 92.604169,2.7e-4 c -3.23559,1.00277 -3.50414,9.73164 -1.48352,11.94117 1.2581,1.37583 3.28375,0.91176 4.60164,2.22991 1.66052,1.66052 0.81412,4.48151 3.49646,5.32686 2.82972,0.89191 6.71592,-0.9705 9.24878,0.87471 3.84783,2.80326 -1.14035,10.740762 3.98039,12.354452 1.43775,0.45324 3.26946,0.17278 4.76224,0.17278 1.25915,0 2.77812,0.22119 3.96769,-0.26697 1.63036,-0.66913 2.52915,-2.57016 1.85076,-4.22989 -1.11205,-2.720712 -4.63762,-1.622162 -5.96212,-4.235452 -1.46235,-2.88502 0.94879,-7.09084 -1.08744,-9.76075 -1.54226,-2.02221 -4.54025,-1.016 -5.64568,-3.73221 -1.17819,-2.89507 1.10966,-7.24535 -1.16496,-9.7327 -4.73234,-5.17498 -5.46285,6.06478 -9.42075,5.38375 -3.7473,-0.64479 -2.39607,-7.79728 -7.14349,-6.32566 m 26.45833,-2.7e-4 c -1.77932,0.56065 -2.83342,2.56487 -2.11455,4.32409 1.14697,2.80643 4.89612,1.58882 6.08066,4.49924 1.28429,3.15595 0.26696,8.51006 0.26696,11.90598 0,1.95448 -0.18097,4.12195 1.85606,5.17076 2.14074,1.10225 4.50506,-0.52811 4.73075,-2.78951 0.23203,-2.3233 -0.39238,-4.86172 0.13202,-7.14375 0.84349,-3.66924 7.58164,-3.64754 10.47909,-2.73764 2.91624,0.91572 1.92035,3.8608 3.76079,5.54381 1.44938,1.3253 3.52874,0.75512 4.79769,2.49688 1.39991,1.92114 1.18983,6.003662 4.935,4.84267 2.60139,-0.80619 1.83595,-3.40387 3.27952,-5.09085 1.32397,-1.54702 3.48879,-1.01151 4.81859,-2.46566 1.89944,-2.07724 1.70233,-10.3587 -0.95806,-11.72871 -5.41152,-2.78659 -3.87667,7.43109 -8.72728,6.05234 -3.1578,-0.89746 -1.90553,-4.71434 -4.50189,-6.05234 -1.29751,-0.6686 -3.08107,-0.3855 -4.49394,-0.3855 -3.30782,0 -7.35912,0.63685 -10.58334,-0.10424 -3.06731,-0.70512 -2.15847,-3.59093 -3.80841,-5.39539 -1.64862,-1.80287 -7.72954,-1.642 -9.94966,-0.94218 m -125.677082,13.2294 c -4.046961,1.25413 -2.14966,7.50861 1.851554,6.26851 4.047067,-1.25412 2.14974,-7.50861 -1.851554,-6.26851 m 46.302083,0 c -3.182144,0.98611 -3.178704,8.34549 -2.11455,10.93841 0.62865,1.53167 2.358231,2.44316 3.966104,1.94469 3.182144,-0.98611 3.178704,-8.34549 2.11455,-10.93841 -0.62865,-1.53167 -2.358231,-2.44316 -3.966104,-1.94469 m 99.218749,6.61459 c -3.29829,1.02208 -3.5433,10.075862 -1.26656,12.158132 1.7325,1.58433 4.85828,0.75433 5.38375,3.80841 0.69902,4.06215 -5.36867,2.998 -6.32566,6.08569 -1.24513,4.01637 3.52716,3.54859 5.32659,5.34802 1.79943,1.79943 1.33165,6.57145 5.34802,5.32659 2.50852,-0.77735 1.84044,-3.13664 3.08346,-4.84267 1.5949,-2.1889 7.76869,-2.00422 5.52714,-6.35741 -1.30625,-2.53656 -4.80324,-1.38985 -5.96212,-4.23756 -1.19565,-2.9382 1.22158,-7.56867 -1.38192,-9.94966 -0.99245,-0.907522 -2.25689,-0.711202 -3.3819,-1.283492 -2.74029,-1.39357 -1.98914,-7.40807 -6.3508,-6.05605 m -165.364634,6.61458 c -3.182038,0.986102 -3.178625,8.345492 -2.114418,10.938412 0.628597,1.53167 2.358178,2.44316 3.966078,1.94468 3.182037,-0.9861 3.178624,-8.34548 2.114417,-10.9384 -0.628597,-1.531672 -2.358178,-2.443162 -3.966077,-1.944692 m 119.062554,0 c -2.38628,0.739512 -2.38151,3.059642 -2.38151,5.118632 v 13.49375 c 0,1.75048 -0.43895,4.21719 0.38549,5.81687 1.17767,2.2852 4.07141,1.45679 5.52715,3.45492 1.20729,1.65735 0.70194,4.39976 0.70194,6.33863 0,1.78144 -0.0101,3.43217 -1.59888,4.58972 -1.84467,1.34409 -4.84319,0.71438 -4.97654,3.87694 -0.1823,4.32991 7.69461,2.84904 6.39868,7.40834 -0.80328,2.82548 -3.60257,1.97061 -5.32289,3.54383 -1.82483,1.66872 -1.88648,9.04848 -0.41301,10.98047 2.68393,3.51922 8.74104,-0.67363 11.62923,2.70139 1.11495,1.30308 0.70776,3.17209 2.01295,4.36589 1.44939,1.3253 3.52875,0.75513 4.79769,2.49688 1.31656,1.8071 0.65008,4.57597 3.61235,4.95511 3.85075,0.49292 3.03028,-3.9235 5.05487,-5.65599 1.80763,-1.54676 6.4516,-1.19671 8.70347,-0.84138 3.98806,0.62892 4.47119,9.25751 2.277,11.82185 -1.46632,1.71344 -3.69808,1.55892 -5.01465,-0.24818 -1.39409,-1.91347 -1.03372,-5.6978 -4.67069,-4.9104 -3.5306,0.76464 -1.91214,6.19866 -5.82083,6.42487 -3.86265,0.22358 -2.71013,-5.09481 -5.55731,-6.26321 -4.61724,-1.89495 -11.13181,1.6166 -15.6083,-0.65246 -2.20689,-1.11866 -1.55231,-3.21707 -2.81966,-4.87839 -1.23084,-1.61396 -3.41048,-1.07844 -4.79769,-2.46565 -1.38721,-1.38721 -0.8517,-3.56685 -2.46565,-4.79769 -3.21681,-2.45322 -9.25672,1.59199 -11.49297,-2.81967 -1.32477,-2.61329 -1.04326,-9.60755 1.99601,-10.84447 2.37437,-0.96626 5.43931,0.0706 7.93724,-0.32359 2.15476,-0.33999 3.55944,-2.69266 2.52492,-4.70191 -1.0676,-2.07301 -3.32687,-1.42637 -4.87839,-2.75405 -1.88013,-1.60893 -0.97711,-4.68974 -3.73221,-5.54355 -4.01638,-1.24486 -3.5486,3.52716 -5.34803,5.32659 -1.31789,1.31816 -3.34354,0.85408 -4.60163,2.22991 -1.3253,1.44939 -0.75512,3.52875 -2.496872,4.79769 -1.28456,0.93583 -2.98239,0.57547 -4.11772,1.81689 -1.70153,1.86082 -0.7739,4.92258 -4.07299,5.44301 -2.084919,0.32888 -6.365083,0.64955 -8.198117,-0.47492 -2.012949,-1.23481 -1.346464,-3.42874 -2.754047,-4.96809 -1.767946,-1.93304 -9.665494,-1.93304 -11.433175,0 -1.061509,1.16073 -0.897996,2.72071 -0.897996,4.17672 0,3.63008 -0.919163,8.70638 0.172773,12.17057 0.413014,1.31048 1.619514,2.28414 3.002227,2.34235 3.924829,0.16537 2.76516,-4.77467 5.557308,-6.18993 1.730904,-0.87735 4.455848,-0.38549 6.348942,-0.38549 4.737364,0 9.558605,-0.26168 14.287495,0.0114 1.63407,0.0945 3.293542,1.18481 3.588292,2.89904 0.55827,3.24327 -3.129762,3.11706 -4.899832,4.23572 -1.87139,1.18295 -1.25359,3.50784 -2.71383,4.96808 -1.5322,1.53247 -4.010286,0.82894 -5.114127,2.97101 -1.459707,2.83236 0.776816,6.7556 -0.917046,9.51706 -1.416579,2.30875 -8.747125,2.70642 -5.381096,7.11994 1.666081,2.18466 9.798309,2.23784 11.629229,0.23574 1.55046,-1.69545 0.93557,-5.61208 4.33758,-5.41523 3.245912,0.18786 2.498992,3.69385 4.073002,5.41523 1.71318,1.87325 9.36149,1.9132 11.21622,0.21696 4.16718,-3.8108 -2.38469,-5.10487 -4.14893,-6.61459 -1.4867,-1.27238 -1.00674,-3.24352 -2.2487,-4.60163 -1.13533,-1.24142 -2.83316,-0.88106 -4.11771,-1.81689 -2.03279,-1.48114 -1.87298,-4.07432 0.25718,-5.3811 1.17342,-0.71967 2.64874,-0.53155 3.96478,-0.53155 3.20331,0 9.76048,-1.23851 12.42404,0.70194 2.18942,1.59518 1.15199,5.09667 4.24471,5.8084 4.60798,1.06045 10.03538,-1.14141 14.55208,0.27702 3.13981,0.9861 1.88992,4.71011 4.50189,6.05631 1.29751,0.6686 3.08107,0.3855 4.49394,0.3855 3.32634,0 7.03342,-0.4617 10.31875,0.0566 3.83382,0.60457 2.25055,5.36046 5.55652,6.38493 4.44711,1.37847 3.59304,-4.9448 6.61458,-6.17459 2.80538,-1.14167 6.61538,0.86466 9.24878,-0.79851 2.44713,-1.54596 2.55957,-9.9015 0.48392,-11.79962 -1.72138,-1.57401 -5.22737,-0.82709 -5.41523,-4.073 -0.24738,-4.27381 6.31666,-2.47755 6.49102,-6.61458 0.17331,-4.11268 -5.33611,-2.68922 -6.40265,-6.08542 -0.49821,-1.58591 -0.17277,-3.64357 -0.17277,-5.29166 v -10.84792 c 0,-1.82139 0.48313,-4.46749 -0.53155,-6.07404 -1.90976,-3.02339 -6.88948,-1.03717 -9.7872,-1.70312 -3.17262,-0.72919 -2.13095,-3.87985 -4.02537,-5.61234 -1.68143,-1.53776 -4.22143,-0.7112 -5.23161,-3.27951 -1.35493,-3.44514 2.96387,-3.63723 4.74769,-4.76462 1.80419,-1.14035 1.23851,-3.26178 2.49687,-4.73234 1.54411,-1.80446 9.01012,-3.03583 4.60163,-7.06728 -1.68063,-1.53697 -4.98395,-0.898 -7.08713,-0.898 -2.72282,0 -7.33107,-0.87947 -9.78561,0.3855 -2.07275,1.06812 -1.42611,3.32661 -2.75405,4.87839 -1.68963,1.97458 -7.33002,1.9177 -9.68534,1.17792 -1.33985,-0.42069 -2.37119,-1.61925 -2.58921,-3.00223 -0.62494,-3.9616 -0.036,-8.42354 -0.0569,-12.43541 -0.0122,-2.33019 -1.4777,-4.914372 -4.23281,-4.060302 M 24.083932,105.95011 c -3.447679,1.08664 -3.604524,10.74261 -0.782532,12.52485 5.58038,3.52425 4.721384,-9.24746 10.03136,-5.3811 0.427037,0.31089 0.791633,0.70353 1.067329,1.15411 2.509308,4.10263 -3.911256,4.18174 -5.381149,6.10923 -1.734529,2.27436 0.13843,5.10223 2.737697,5.25251 1.052777,0.0609 2.1209,0.0114 3.175,0.0114 1.275292,0 2.719387,0.18309 3.96875,-0.10425 4.926277,-1.13374 1.290108,-8.19203 3.177381,-11.26887 1.532731,-2.49819 5.890683,-1.39594 6.043877,-5.03105 0.07699,-1.82615 -1.384035,-3.23691 -3.135842,-3.4118 -4.493947,-0.44873 -9.240572,-0.0278 -13.758333,-0.0278 -2.182971,0 -5.050208,-0.4871 -7.143538,0.17277 m 52.916719,2.7e-4 c -4.047067,1.25412 -2.14974,7.50861 1.851554,6.2685 4.047066,-1.25412 2.149739,-7.50861 -1.851554,-6.2685 m 119.062499,0 c -4.04706,1.25412 -2.14974,7.50861 1.85156,6.2685 4.04706,-1.25412 2.14974,-7.50861 -1.85156,-6.2685 m -145.520832,6.61431 c -2.522802,0.79508 -3.144044,4.12803 -1.030817,5.73987 1.27344,0.97129 2.95275,0.62045 4.148931,1.8169 1.799432,1.79943 1.331648,6.57145 5.348023,5.32659 3.189023,-0.98822 3.451225,-9.38239 1.679575,-11.70543 -1.5748,-2.06507 -7.832196,-1.90712 -10.145712,-1.17793 m 19.84375,2.7e-4 c -4.047067,1.25412 -2.14974,7.50861 1.851554,6.26851 4.047066,-1.25413 2.149739,-7.50861 -1.851554,-6.26851 m -59.531302,6.61432 c -3.290094,1.0369 -3.552085,10.06819 -1.266587,12.15839 1.160727,1.06151 2.720895,0.898 4.176792,0.898 3.52671,0 9.162732,1.0758 12.434384,-0.26696 2.336192,-0.95885 2.783708,-4.10766 0.767027,-5.64568 -1.179274,-0.89959 -2.756138,-0.60987 -3.91324,-1.59994 -1.486747,-1.27238 -1.00674,-3.24353 -2.248747,-4.60163 -1.648619,-1.80287 -7.729458,-1.64201 -9.949629,-0.94218 m 66.145885,2.6e-4 c -2.828396,0.8763 -1.857375,4.19285 -3.980392,5.73961 -3.066785,2.2344 -9.183952,-1.44383 -11.244791,2.55799 -1.102254,2.14074 0.528108,4.50506 2.789502,4.73075 6.304756,0.62971 12.975695,0.0278 19.314583,0.0278 2.474118,0 6.156325,0.68077 8.465605,-0.26696 2.46301,-1.01098 2.77336,-4.39209 0.51885,-5.81607 -2.810403,-1.77509 -6.939226,0.67574 -9.774237,-1.0631 -2.483114,-1.52321 -1.803929,-7.23821 -6.08912,-5.91 m -33.072916,6.61432 c -2.828132,0.89138 -1.852084,4.18941 -3.980392,5.73987 -3.023923,2.20292 -8.446029,-1.20253 -10.928403,2.05264 -1.372896,1.80022 -0.449183,4.42013 1.679628,5.09111 2.959894,0.93292 7.221008,0.17277 10.318485,0.17277 1.49278,0 3.32449,0.28046 4.762236,-0.17277 2.601118,-0.81968 1.831181,-3.39831 3.27951,-5.09111 1.558661,-1.82139 4.433888,-0.98319 5.449623,-3.46842 2.164292,-5.29537 -7.714985,-5.22738 -10.580687,-4.32409 m 59.531255,2.7e-4 c -2.60138,0.80618 -1.83595,3.40386 -3.27951,5.09084 -1.786472,2.08757 -5.336922,1.00145 -5.688812,4.5257 -0.28655,2.86967 -1.01071,11.498 4.20529,9.88113 2.601382,-0.80619 1.835942,-3.40386 3.279512,-5.09085 1.78647,-2.08756 5.33691,-1.00145 5.68881,-4.5257 0.28654,-2.86967 1.0107,-11.49799 -4.20529,-9.88112 m 13.22917,-2.7e-4 c -2.65695,0.83741 -3.14246,4.4196 -0.78264,5.91026 1.80737,1.14142 7.23159,0.99457 9.24877,0.35878 2.65695,-0.83741 3.14246,-4.4196 0.78264,-5.91026 -1.80737,-1.14142 -7.23159,-0.99457 -9.24877,-0.35878 m 26.72265,-0.0675 c 4.09998,-0.88768 5.46073,5.50783 1.32291,6.40398 -4.09998,0.88767 -5.46073,-5.50783 -1.32291,-6.40398 m 19.57943,0.0675 c -2.65695,0.83741 -3.14246,4.4196 -0.78264,5.91026 1.80737,1.14142 7.23159,0.99457 9.24878,0.35878 2.65694,-0.83741 3.14245,-4.4196 0.78263,-5.91026 -1.80737,-1.14142 -7.23159,-0.99457 -9.24877,-0.35878 m 33.07291,2.7e-4 c -2.68234,0.83132 -1.84123,3.67135 -3.49646,5.32659 -1.31789,1.31815 -3.34354,0.85407 -4.60164,2.2299 -1.3253,1.44939 -0.75512,3.52875 -2.49687,4.79769 -1.92114,1.39991 -6.00366,1.18984 -4.84267,4.93501 0.77735,2.50852 3.13664,1.84044 4.84267,3.08346 1.74175,1.26894 1.17157,3.3483 2.49687,4.79769 1.2581,1.37583 3.28375,0.91175 4.60164,2.2299 2.33494,2.33495 0.55271,6.57199 1.2192,9.46838 0.41671,1.81055 2.31431,3.0353 4.12882,2.4728 3.25093,-1.00753 2.38151,-5.42581 2.38151,-8.02905 v -24.87083 c 0,-2.60879 -0.0243,-7.74594 -4.23307,-6.44154 m -138.906249,6.61458 c -4.047067,1.25412 -2.149739,7.50887 1.851554,6.26851 4.047067,-1.25413 2.14974,-7.50861 -1.851554,-6.26851 m 119.062499,0 c -4.04706,1.25412 -2.14974,7.50887 1.85156,6.26851 4.0468,-1.25413 2.14974,-7.50888 -1.85156,-6.26851 m -165.364634,6.61432 c -2.918249,0.91969 -3.095572,5.01253 -0.263764,6.17484 1.258306,0.51647 2.899649,0.26697 4.232302,0.26697 3.246517,0 8.360383,0.97049 11.376051,-0.26697 2.831809,-1.16231 2.654459,-5.25515 -0.263763,-6.17484 -1.437772,-0.45323 -3.269536,-0.17278 -4.762288,-0.17278 -3.09753,0 -7.358592,-0.76014 -10.318538,0.17278 m 39.687552,2.6e-4 c -4.047067,1.25413 -2.14974,7.50888 1.851554,6.26851 4.047067,-1.25413 2.14974,-7.50888 -1.851554,-6.26851 m 19.84375,-2.6e-4 c -2.656946,0.8374 -3.142457,4.4196 -0.782638,5.91026 1.807369,1.14141 7.231592,0.99457 9.248775,0.35877 2.656946,-0.8374 3.142456,-4.4196 0.782637,-5.91026 -1.807368,-1.14141 -7.231591,-0.99457 -9.248774,-0.35877 m 19.843749,6.61484 c -4.047066,1.25413 -2.149739,7.50888 1.851551,6.26851 4.04707,-1.25412 2.14974,-7.50887 -1.851551,-6.26851 m 59.795573,-0.0688 c 3.61712,-0.83238 8.19362,-0.10424 11.90625,-0.10424 1.56951,0 3.23003,-0.15769 4.39367,1.11495 1.11443,1.21867 0.898,2.91703 0.898,4.4413 0,3.66501 0.51461,7.75811 -0.0566,11.37708 -0.20188,1.27979 -1.0795,2.34527 -2.3249,2.73764 -3.67559,1.15861 -9.11066,0.17913 -12.96432,0.17278 -1.56263,-0.003 -3.04853,-0.14579 -3.96637,-1.59888 -0.80645,-1.27688 -0.53154,-3.04668 -0.53154,-4.48654 0,-3.46922 -0.67363,-7.73139 0.10424,-11.1125 0.29131,-1.26497 1.27662,-2.25028 2.54159,-2.54159 m -130.175003,6.62649 c -13.365191,2.08757 -11.377083,16.3076 -11.377083,26.34218 0,5.02867 -0.603012,10.26928 2.582545,14.55209 5.200385,6.99161 14.665139,5.29166 22.288288,5.29166 3.269721,0 6.821223,0.38868 10.054166,-0.11615 13.365163,-2.08756 11.377084,-16.30759 11.377084,-26.34218 0,-5.02867 0.602985,-10.26927 -2.582598,-14.55208 -5.200386,-6.99162 -14.665061,-5.29167 -22.288235,-5.29167 -3.269642,0 -6.82125,-0.38867 -10.054167,0.11615 m 136.525263,0.0569 c -4.0468,1.25412 -2.14974,7.50887 1.85156,6.26851 4.04707,-1.25413 2.14974,-7.50888 -1.85156,-6.26851 m -132.556513,6.51801 c 2.494941,-0.32491 5.158634,-0.0765 7.672917,-0.0765 5.430572,0 11.313847,-0.79348 14.91271,4.23334 2.167202,3.02736 1.756039,6.80667 1.756039,10.31875 0,7.28318 0.966523,17.18098 -8.73125,18.44437 -2.49502,0.3249 -5.158581,0.0765 -7.672916,0.0765 -5.43052,0 -11.313821,0.79349 -14.912631,-4.23333 -2.167281,-3.02737 -1.756119,-6.80667 -1.756119,-10.31875 0,-7.28319 -0.966549,-17.18099 8.73125,-18.44437 m 159.014853,0.0966 c -4.04707,1.25413 -2.14974,7.50888 1.85155,6.26851 4.04707,-1.25413 2.14974,-7.50888 -1.85155,-6.26851 m -155.839853,6.5786 c -5.427689,1.15993 -5.291667,6.30264 -5.291667,10.71086 0,2.24526 -0.110622,4.43945 1.306777,6.33968 2.565744,3.43932 9.385036,3.34434 13.245307,2.5191 5.427662,-1.15993 5.291666,-6.30264 5.291666,-10.71086 0,-2.24525 0.110596,-4.43944 -1.306777,-6.33968 -2.565665,-3.43932 -9.385035,-3.34433 -13.245306,-2.5191 m 162.454433,0.036 c -3.18214,0.98611 -3.1787,8.34549 -2.11455,10.93841 0.62865,1.53167 2.35823,2.44316 3.9661,1.94469 3.18215,-0.98611 3.17871,-8.34549 2.11455,-10.93841 -0.62865,-1.53167 -2.35823,-2.44316 -3.9661,-1.94469 m -112.447919,6.61459 c -2.828396,0.87656 -1.857375,4.19285 -3.980392,5.7396 -2.741348,1.99734 -6.869906,-0.40931 -9.774237,1.08744 -3.091392,1.59306 -3.015456,11.57341 0.525462,12.67063 5.144294,1.59465 3.249613,-7.13237 7.937236,-6.32566 3.747293,0.64453 2.396066,7.79727 7.143485,6.32566 1.245923,-0.38602 2.12381,-1.46209 2.324894,-2.73738 0.478895,-3.03477 0.05662,-6.45266 0.05662,-9.525 0,-1.56977 0.303477,-3.51578 -0.172772,-5.02682 -0.528109,-1.6764 -2.351617,-2.73817 -4.060296,-2.20847 m 119.062499,6.61458 c -2.60138,0.80619 -1.83594,3.40387 -3.27951,5.09085 -1.55866,1.82139 -4.43388,0.98319 -5.44962,3.46842 -2.16403,5.29537 7.71499,5.22737 10.58069,4.32409 3.17791,-1.00145 3.1832,-8.33491 2.11455,-10.93867 -0.62865,-1.53167 -2.35823,-2.44316 -3.96611,-1.94469 m -79.37499,6.61458 c -4.04707,1.25413 -2.14974,7.50888 1.85155,6.26851 4.04707,-1.25412 2.14974,-7.50887 -1.85155,-6.26851 m -46.302092,6.61459 c -4.047067,1.25412 -2.14974,7.50887 1.851554,6.26851 4.047066,-1.25413 2.149739,-7.50888 -1.851554,-6.26851 m 66.145832,0 c -4.04706,1.25412 -2.14973,7.50887 1.85156,6.26851 4.04707,-1.25413 2.14974,-7.50888 -1.85156,-6.26851 m 46.30209,0 c -4.04707,1.25412 -2.14974,7.50887 1.85155,6.26851 4.04707,-1.25413 2.14974,-7.50888 -1.85155,-6.26851 z"
       id="path1148" />
    <path
       style="fill:#ff0202;fill-opacity:1;stroke:none;stroke-width:0.0452697"
       d="m 95.857979,92.032812 h 0.916073 c 0.003,-0.87852 0.330398,-1.851025 1.041525,-2.536864 1.060614,-1.02296 3.027013,-1.404214 4.404023,-0.55211 1.74344,1.078851 2.3823,3.11857 2.89443,4.739948 0.17564,0.555936 0.45657,1.197078 0.47326,1.771778 0.0134,0.462112 -0.57056,1.071241 -0.80146,1.489904 -0.71022,1.287881 -1.50419,2.54842 -2.24514,3.825422 -1.79439,3.0924 -3.631529,6.16925 -5.426113,9.26157 -0.783955,1.3509 -1.696721,2.68118 -2.376244,4.06703 h 3.460723 c 0.332845,0 1.017555,0.10309 1.303375,-0.0414 0.31385,-0.1587 0.47681,-0.74298 0.623439,-1.00556 0.50205,-0.89914 1.00905,-1.79655 1.50459,-2.69794 1.8036,-3.28057 3.73906,-6.52215 5.47487,-9.82531 h 0.0509 c 0.0746,0.72288 0.39137,1.46602 0.58914,2.17445 0.40476,1.45004 0.81877,2.89851 1.22144,4.34891 0.5471,1.97078 0.94783,4.40766 2.56699,6.04015 1.70726,1.72133 5.10197,1.67176 6.69532,-0.0805 1.20663,-1.32702 1.39591,-3.12622 1.39591,-4.71132 h -0.91608 c -0.0919,0.57506 -0.21187,1.15447 -0.50247,1.69124 -0.84762,1.56581 -3.16513,1.9217 -4.7904,0.86721 -0.97923,-0.63535 -1.48033,-1.56376 -1.91236,-2.47792 -0.86161,-1.82332 -1.29532,-3.78238 -1.8244,-5.67774 -0.79175,-2.836047 -1.61804,-5.665898 -2.43905,-8.496474 -0.63861,-2.201796 -1.22245,-4.602877 -2.59351,-6.603899 -1.10601,-1.61425 -3.50302,-2.708863 -5.684289,-1.633853 -0.44964,0.221609 -0.821972,0.504264 -1.154761,0.8285 -1.466074,1.428375 -1.949711,3.437289 -1.949711,5.234798 z"
       id="path1340" />
    <circle
       style="fill:#ffff02;fill-opacity:0.268041;stroke:#ff0000;stroke-width:0.765;stroke-miterlimit:4;stroke-dasharray:0.0765, 0.0765;stroke-dashoffset:5.1255;stroke-opacity:1"
       id="path2562"
       cx="106.02886"
       cy="101.54732"
       r="19.436087" />
  </g>
</svg>
