<?xml version="1.0" encoding="UTF-8"?><svg xmlns="http://www.w3.org/2000/svg" xmlns:xlink="http://www.w3.org/1999/xlink" fill-opacity="1" color-rendering="auto" color-interpolation="auto" text-rendering="auto" stroke="black" stroke-linecap="square" width="299" stroke-miterlimit="10" shape-rendering="auto" stroke-opacity="1" fill="black" stroke-dasharray="none" font-weight="normal" stroke-width="1" height="130" font-family="'Dialog'" font-style="normal" stroke-linejoin="miter" font-size="12px" stroke-dashoffset="0" image-rendering="auto">
  <!--Generated by ySVG 2.5-->
  <defs id="genericDefs"/>
  <g>
    <defs id="defs1">
      <clipPath clipPathUnits="userSpaceOnUse" id="clipPath1">
        <path d="M0 0 L299 0 L299 130 L0 130 L0 0 Z"/>
      </clipPath>
      <clipPath clipPathUnits="userSpaceOnUse" id="clipPath2">
        <path d="M320 310 L619 310 L619 440 L320 440 L320 310 Z"/>
      </clipPath>
    </defs>
    <g fill="rgb(153,204,0)" text-rendering="geometricPrecision" shape-rendering="geometricPrecision" transform="matrix(1,0,0,1,-320,-310)" stroke="rgb(153,204,0)">
      <rect x="472" width="30" height="30" y="310" clip-path="url(#clipPath2)" stroke="none"/>
    </g>
    <g font-size="15px" stroke-linecap="butt" transform="matrix(1,0,0,1,-320,-310)" text-rendering="geometricPrecision" font-family="'Fira Code'" shape-rendering="geometricPrecision" font-weight="bold" stroke-miterlimit="1.45">
      <text x="482.5002" xml:space="preserve" y="330.0248" clip-path="url(#clipPath2)" stroke="none">B</text>
    </g>
    <g fill="rgb(153,204,0)" text-rendering="geometricPrecision" shape-rendering="geometricPrecision" transform="matrix(1,0,0,1,-320,-310)" stroke="rgb(153,204,0)">
      <rect x="426" width="30" height="30" y="310" clip-path="url(#clipPath2)" stroke="none"/>
    </g>
    <g font-size="15px" stroke-linecap="butt" transform="matrix(1,0,0,1,-320,-310)" text-rendering="geometricPrecision" font-family="'Fira Code'" shape-rendering="geometricPrecision" font-weight="bold" stroke-miterlimit="1.45">
      <text x="436.5002" xml:space="preserve" y="330.0248" clip-path="url(#clipPath2)" stroke="none">C</text>
    </g>
    <g fill="rgb(153,204,0)" text-rendering="geometricPrecision" shape-rendering="geometricPrecision" transform="matrix(1,0,0,1,-320,-310)" stroke="rgb(153,204,0)">
      <rect x="380" width="30" height="30" y="310" clip-path="url(#clipPath2)" stroke="none"/>
    </g>
    <g font-size="15px" stroke-linecap="butt" transform="matrix(1,0,0,1,-320,-310)" text-rendering="geometricPrecision" font-family="'Fira Code'" shape-rendering="geometricPrecision" font-weight="bold" stroke-miterlimit="1.45">
      <text x="390.5002" xml:space="preserve" y="330.0248" clip-path="url(#clipPath2)" stroke="none">D</text>
    </g>
    <g fill="rgb(255,153,204)" text-rendering="geometricPrecision" shape-rendering="geometricPrecision" transform="matrix(1,0,0,1,-320,-310)" stroke="rgb(255,153,204)">
      <rect x="518" width="30" height="30" y="310" clip-path="url(#clipPath2)" stroke="none"/>
    </g>
    <g font-size="15px" stroke-linecap="butt" transform="matrix(1,0,0,1,-320,-310)" text-rendering="geometricPrecision" font-family="'Fira Code'" shape-rendering="geometricPrecision" font-weight="bold" stroke-miterlimit="1.45">
      <text x="528.5002" xml:space="preserve" y="330.0248" clip-path="url(#clipPath2)" stroke="none">A</text>
    </g>
    <g fill="rgb(255,153,204)" text-rendering="geometricPrecision" shape-rendering="geometricPrecision" transform="matrix(1,0,0,1,-320,-310)" stroke="rgb(255,153,204)">
      <rect x="518" width="30" height="30" y="359.9072" clip-path="url(#clipPath2)" stroke="none"/>
    </g>
    <g font-size="15px" stroke-linecap="butt" transform="matrix(1,0,0,1,-320,-310)" text-rendering="geometricPrecision" font-family="'Fira Code'" shape-rendering="geometricPrecision" font-weight="bold" stroke-miterlimit="1.45">
      <text x="528.5002" xml:space="preserve" y="379.932" clip-path="url(#clipPath2)" stroke="none">B</text>
    </g>
    <g fill="rgb(255,153,204)" text-rendering="geometricPrecision" shape-rendering="geometricPrecision" transform="matrix(1,0,0,1,-320,-310)" stroke="rgb(255,153,204)">
      <rect x="472" width="30" height="30" y="359.9072" clip-path="url(#clipPath2)" stroke="none"/>
    </g>
    <g font-size="15px" stroke-linecap="butt" transform="matrix(1,0,0,1,-320,-310)" text-rendering="geometricPrecision" font-family="'Fira Code'" shape-rendering="geometricPrecision" font-weight="bold" stroke-miterlimit="1.45">
      <text x="482.5002" xml:space="preserve" y="379.932" clip-path="url(#clipPath2)" stroke="none">C</text>
    </g>
    <g fill="rgb(255,153,204)" text-rendering="geometricPrecision" shape-rendering="geometricPrecision" transform="matrix(1,0,0,1,-320,-310)" stroke="rgb(255,153,204)">
      <rect x="426" width="30" height="30" y="359.9072" clip-path="url(#clipPath2)" stroke="none"/>
    </g>
    <g font-size="15px" stroke-linecap="butt" transform="matrix(1,0,0,1,-320,-310)" text-rendering="geometricPrecision" font-family="'Fira Code'" shape-rendering="geometricPrecision" font-weight="bold" stroke-miterlimit="1.45">
      <text x="436.5002" xml:space="preserve" y="379.932" clip-path="url(#clipPath2)" stroke="none">D</text>
    </g>
    <g fill="rgb(153,204,0)" text-rendering="geometricPrecision" shape-rendering="geometricPrecision" transform="matrix(1,0,0,1,-320,-310)" stroke="rgb(153,204,0)">
      <rect x="380" width="30" height="30" y="359.9072" clip-path="url(#clipPath2)" stroke="none"/>
    </g>
    <g font-size="15px" stroke-linecap="butt" transform="matrix(1,0,0,1,-320,-310)" text-rendering="geometricPrecision" font-family="'Fira Code'" shape-rendering="geometricPrecision" font-weight="bold" stroke-miterlimit="1.45">
      <text x="386.0004" xml:space="preserve" y="379.932" clip-path="url(#clipPath2)" stroke="none">[]</text>
    </g>
    <g fill="rgb(255,153,204)" text-rendering="geometricPrecision" shape-rendering="geometricPrecision" transform="matrix(1,0,0,1,-320,-310)" stroke="rgb(255,153,204)">
      <rect x="518" width="30" height="30" y="409.8144" clip-path="url(#clipPath2)" stroke="none"/>
    </g>
    <g font-size="15px" stroke-linecap="butt" transform="matrix(1,0,0,1,-320,-310)" text-rendering="geometricPrecision" font-family="'Fira Code'" shape-rendering="geometricPrecision" font-weight="bold" stroke-miterlimit="1.45">
      <text x="528.5002" xml:space="preserve" y="429.8392" clip-path="url(#clipPath2)" stroke="none">C</text>
    </g>
    <g fill="rgb(255,153,204)" text-rendering="geometricPrecision" shape-rendering="geometricPrecision" transform="matrix(1,0,0,1,-320,-310)" stroke="rgb(255,153,204)">
      <rect x="472" width="30" height="30" y="409.8144" clip-path="url(#clipPath2)" stroke="none"/>
    </g>
    <g font-size="15px" stroke-linecap="butt" transform="matrix(1,0,0,1,-320,-310)" text-rendering="geometricPrecision" font-family="'Fira Code'" shape-rendering="geometricPrecision" font-weight="bold" stroke-miterlimit="1.45">
      <text x="482.5002" xml:space="preserve" y="429.8392" clip-path="url(#clipPath2)" stroke="none">D</text>
    </g>
    <g fill="rgb(153,204,0)" text-rendering="geometricPrecision" shape-rendering="geometricPrecision" transform="matrix(1,0,0,1,-320,-310)" stroke="rgb(153,204,0)">
      <rect x="426" width="30" height="30" y="409.8144" clip-path="url(#clipPath2)" stroke="none"/>
    </g>
    <g font-size="15px" stroke-linecap="butt" transform="matrix(1,0,0,1,-320,-310)" text-rendering="geometricPrecision" font-family="'Fira Code'" shape-rendering="geometricPrecision" font-weight="bold" stroke-miterlimit="1.45">
      <text x="436.5002" xml:space="preserve" y="429.8392" clip-path="url(#clipPath2)" stroke="none">E</text>
    </g>
    <g fill="rgb(153,204,0)" text-rendering="geometricPrecision" shape-rendering="geometricPrecision" transform="matrix(1,0,0,1,-320,-310)" stroke="rgb(153,204,0)">
      <rect x="380" width="30" height="30" y="409.8144" clip-path="url(#clipPath2)" stroke="none"/>
    </g>
    <g font-size="15px" stroke-linecap="butt" transform="matrix(1,0,0,1,-320,-310)" text-rendering="geometricPrecision" font-family="'Fira Code'" shape-rendering="geometricPrecision" font-weight="bold" stroke-miterlimit="1.45">
      <text x="390.5002" xml:space="preserve" y="429.8392" clip-path="url(#clipPath2)" stroke="none">F</text>
      <path fill="none" d="M456 325 L464 325" clip-path="url(#clipPath2)"/>
      <path d="M472 325 L460 320 L463 325 L460 330 Z" stroke="none" clip-path="url(#clipPath2)"/>
      <path fill="none" d="M410 325 L418 325" clip-path="url(#clipPath2)"/>
      <path d="M426 325 L414 320 L417 325 L414 330 Z" stroke="none" clip-path="url(#clipPath2)"/>
    </g>
    <g text-rendering="geometricPrecision" stroke-miterlimit="1.45" stroke-width="4" shape-rendering="geometricPrecision" transform="matrix(1,0,0,1,-320,-310)" stroke-linecap="butt">
      <path fill="none" d="M350 325 L359.375 325" clip-path="url(#clipPath2)"/>
      <path fill="white" d="M380 325 L358 316.75 L358 333.25 Z" clip-path="url(#clipPath2)" stroke="none"/>
      <path fill="none" d="M380 325 L358 316.75 L358 333.25 Z" stroke-width="1" clip-path="url(#clipPath2)"/>
      <path fill="none" d="M548 325 L568.3527 325" clip-path="url(#clipPath2)"/>
      <path fill="white" d="M588.9777 325 L566.9777 316.75 L566.9777 333.25 Z" clip-path="url(#clipPath2)" stroke="none"/>
      <path fill="none" d="M588.9777 325 L566.9777 316.75 L566.9777 333.25 Z" stroke-width="1" clip-path="url(#clipPath2)"/>
      <path fill="none" d="M518 374.9072 L510 374.9072" stroke-width="1" clip-path="url(#clipPath2)"/>
      <path d="M502 374.9072 L514 379.9072 L511 374.9072 L514 369.9072 Z" stroke-width="1" clip-path="url(#clipPath2)" stroke="none"/>
      <path fill="none" d="M472 374.9072 L464 374.9072" stroke-width="1" clip-path="url(#clipPath2)"/>
      <path d="M456 374.9072 L468 379.9072 L465 374.9072 L468 369.9072 Z" stroke-width="1" clip-path="url(#clipPath2)" stroke="none"/>
      <path fill="none" d="M548.0082 374.9072 L568.3549 374.9072" clip-path="url(#clipPath2)"/>
      <path fill="white" d="M588.9799 374.9072 L566.9799 366.6572 L566.9799 383.1572 Z" clip-path="url(#clipPath2)" stroke="none"/>
      <path fill="none" d="M588.9799 374.9072 L566.9799 366.6572 L566.9799 383.1572 Z" stroke-width="1" clip-path="url(#clipPath2)"/>
      <path fill="none" d="M349.9707 374.9072 L359.3799 374.9072" clip-path="url(#clipPath2)"/>
      <path fill="white" d="M380.0049 374.9072 L358.0049 366.6572 L358.0049 383.1572 Z" clip-path="url(#clipPath2)" stroke="none"/>
      <path fill="none" d="M380.0049 374.9072 L358.0049 366.6572 L358.0049 383.1572 Z" stroke-width="1" clip-path="url(#clipPath2)"/>
      <path fill="none" d="M518 424.8144 L510 424.8144" stroke-width="1" clip-path="url(#clipPath2)"/>
      <path d="M502 424.8144 L514 429.8144 L511 424.8144 L514 419.8144 Z" stroke-width="1" clip-path="url(#clipPath2)" stroke="none"/>
      <path fill="none" d="M548.0082 424.8144 L568.3549 424.8144" clip-path="url(#clipPath2)"/>
      <path fill="white" d="M588.9799 424.8144 L566.9799 416.5644 L566.9799 433.0644 Z" clip-path="url(#clipPath2)" stroke="none"/>
      <path fill="none" d="M588.9799 424.8144 L566.9799 416.5644 L566.9799 433.0644 Z" stroke-width="1" clip-path="url(#clipPath2)"/>
      <path fill="none" d="M349.9707 424.8144 L359.3799 424.8144" clip-path="url(#clipPath2)"/>
      <path fill="white" d="M380.0049 424.8144 L358.0049 416.5644 L358.0049 433.0644 Z" clip-path="url(#clipPath2)" stroke="none"/>
      <path fill="none" d="M380.0049 424.8144 L358.0049 416.5644 L358.0049 433.0644 Z" stroke-width="1" clip-path="url(#clipPath2)"/>
      <path fill="none" d="M410 424.8144 L418 424.8144" stroke-width="1" clip-path="url(#clipPath2)"/>
      <path d="M426 424.8144 L414 419.8144 L417 424.8144 L414 429.8144 Z" stroke-width="1" clip-path="url(#clipPath2)" stroke="none"/>
    </g>
  </g>
</svg>
