<?xml version="1.0" encoding="UTF-8"?><svg xmlns="http://www.w3.org/2000/svg" xmlns:xlink="http://www.w3.org/1999/xlink" fill-opacity="1" color-rendering="auto" color-interpolation="auto" text-rendering="auto" stroke="black" stroke-linecap="square" width="700" stroke-miterlimit="10" shape-rendering="auto" stroke-opacity="1" fill="black" stroke-dasharray="none" font-weight="normal" stroke-width="1" height="224" font-family="'Dialog'" font-style="normal" stroke-linejoin="miter" font-size="12px" stroke-dashoffset="0" image-rendering="auto">
  <!--Generated by ySVG 2.5-->
  <defs id="genericDefs"/>
  <g>
    <defs id="defs1">
      <clipPath clipPathUnits="userSpaceOnUse" id="clipPath1">
        <path d="M0 0 L700 0 L700 224 L0 224 L0 0 Z"/>
      </clipPath>
      <clipPath clipPathUnits="userSpaceOnUse" id="clipPath2">
        <path d="M100 135 L800 135 L800 359 L100 359 L100 135 Z"/>
      </clipPath>
    </defs>
    <g fill="silver" text-rendering="geometricPrecision" shape-rendering="geometricPrecision" transform="matrix(1,0,0,1,-100,-135)" stroke="silver">
      <rect x="265.5" width="123" height="39" y="319.5" clip-path="url(#clipPath2)" stroke="none"/>
    </g>
    <g font-size="18px" stroke-linecap="butt" transform="matrix(1,0,0,1,-100,-135)" text-rendering="geometricPrecision" font-family="'Fira Sans'" shape-rendering="geometricPrecision" font-weight="bold" stroke-miterlimit="1.45">
      <text x="297.7031" xml:space="preserve" y="345.0267" clip-path="url(#clipPath2)" stroke="none">Stack...</text>
      <rect fill="none" x="265.5" width="123" height="39" y="319.5" clip-path="url(#clipPath2)"/>
    </g>
    <g fill="green" text-rendering="geometricPrecision" shape-rendering="geometricPrecision" transform="matrix(1,0,0,1,-100,-135)" stroke="green">
      <rect x="265.5" width="123" height="39" y="280.5" clip-path="url(#clipPath2)" stroke="none"/>
    </g>
    <g font-size="18px" stroke-linecap="butt" transform="matrix(1,0,0,1,-100,-135)" text-rendering="geometricPrecision" font-family="'Fira Sans'" shape-rendering="geometricPrecision" font-weight="bold" stroke-miterlimit="1.45">
      <text x="286.8371" xml:space="preserve" y="306.0267" clip-path="url(#clipPath2)" stroke="none">foo frame</text>
      <rect fill="none" x="265.5" width="123" height="39" y="280.5" clip-path="url(#clipPath2)"/>
    </g>
    <g fill="silver" text-rendering="geometricPrecision" shape-rendering="geometricPrecision" transform="matrix(1,0,0,1,-100,-135)" stroke="silver">
      <rect x="430.3" width="123" height="39" y="319.5" clip-path="url(#clipPath2)" stroke="none"/>
    </g>
    <g font-size="18px" stroke-linecap="butt" transform="matrix(1,0,0,1,-100,-135)" text-rendering="geometricPrecision" font-family="'Fira Sans'" shape-rendering="geometricPrecision" font-weight="bold" stroke-miterlimit="1.45">
      <text x="462.5031" xml:space="preserve" y="345.0267" clip-path="url(#clipPath2)" stroke="none">Stack...</text>
      <rect fill="none" x="430.3" width="123" height="39" y="319.5" clip-path="url(#clipPath2)"/>
    </g>
    <g fill="rgb(204,255,204)" text-rendering="geometricPrecision" shape-rendering="geometricPrecision" transform="matrix(1,0,0,1,-100,-135)" stroke="rgb(204,255,204)">
      <rect x="430.3" width="123" height="39" y="280.5" clip-path="url(#clipPath2)" stroke="none"/>
    </g>
    <g font-size="18px" stroke-linecap="butt" transform="matrix(1,0,0,1,-100,-135)" text-rendering="geometricPrecision" font-family="'Fira Sans'" shape-rendering="geometricPrecision" font-weight="bold" stroke-miterlimit="1.45">
      <text x="451.6371" xml:space="preserve" y="306.0267" clip-path="url(#clipPath2)" stroke="none">foo frame</text>
      <rect fill="none" x="430.3" width="123" height="39" y="280.5" clip-path="url(#clipPath2)"/>
    </g>
    <g fill="silver" text-rendering="geometricPrecision" shape-rendering="geometricPrecision" transform="matrix(1,0,0,1,-100,-135)" stroke="silver">
      <rect x="100.7" width="123" height="39" y="319.5" clip-path="url(#clipPath2)" stroke="none"/>
    </g>
    <g font-size="18px" stroke-linecap="butt" transform="matrix(1,0,0,1,-100,-135)" text-rendering="geometricPrecision" font-family="'Fira Sans'" shape-rendering="geometricPrecision" font-weight="bold" stroke-miterlimit="1.45">
      <text x="132.9031" xml:space="preserve" y="345.0267" clip-path="url(#clipPath2)" stroke="none">Stack...</text>
      <rect fill="none" x="100.7" width="123" height="39" y="319.5" clip-path="url(#clipPath2)"/>
    </g>
    <g fill="green" text-rendering="geometricPrecision" shape-rendering="geometricPrecision" transform="matrix(1,0,0,1,-100,-135)" stroke="green">
      <rect x="430.3" width="123" height="39" y="241.5" clip-path="url(#clipPath2)" stroke="none"/>
    </g>
    <g font-size="18px" stroke-linecap="butt" transform="matrix(1,0,0,1,-100,-135)" text-rendering="geometricPrecision" font-family="'Fira Sans'" shape-rendering="geometricPrecision" font-weight="bold" stroke-miterlimit="1.45">
      <text x="451.6371" xml:space="preserve" y="267.0267" clip-path="url(#clipPath2)" stroke="none">foo frame</text>
      <rect fill="none" x="430.3" width="123" height="39" y="241.5" clip-path="url(#clipPath2)"/>
    </g>
    <g fill="silver" text-rendering="geometricPrecision" shape-rendering="geometricPrecision" transform="matrix(1,0,0,1,-100,-135)" stroke="silver">
      <rect x="595.1" width="123" height="39" y="319.5" clip-path="url(#clipPath2)" stroke="none"/>
    </g>
    <g font-size="18px" stroke-linecap="butt" transform="matrix(1,0,0,1,-100,-135)" text-rendering="geometricPrecision" font-family="'Fira Sans'" shape-rendering="geometricPrecision" font-weight="bold" stroke-miterlimit="1.45">
      <text x="627.3031" xml:space="preserve" y="345.0267" clip-path="url(#clipPath2)" stroke="none">Stack...</text>
      <rect fill="none" x="595.1" width="123" height="39" y="319.5" clip-path="url(#clipPath2)"/>
    </g>
    <g fill="rgb(204,255,204)" text-rendering="geometricPrecision" shape-rendering="geometricPrecision" transform="matrix(1,0,0,1,-100,-135)" stroke="rgb(204,255,204)">
      <rect x="595.1" width="123" height="39" y="280.5" clip-path="url(#clipPath2)" stroke="none"/>
    </g>
    <g font-size="18px" stroke-linecap="butt" transform="matrix(1,0,0,1,-100,-135)" text-rendering="geometricPrecision" font-family="'Fira Sans'" shape-rendering="geometricPrecision" font-weight="bold" stroke-miterlimit="1.45">
      <text x="616.4371" xml:space="preserve" y="306.0267" clip-path="url(#clipPath2)" stroke="none">foo frame</text>
      <rect fill="none" x="595.1" width="123" height="39" y="280.5" clip-path="url(#clipPath2)"/>
    </g>
    <g fill="green" text-rendering="geometricPrecision" shape-rendering="geometricPrecision" transform="matrix(1,0,0,1,-100,-135)" stroke="green">
      <rect x="595.1" width="123" height="39" y="203.0057" clip-path="url(#clipPath2)" stroke="none"/>
    </g>
    <g font-size="18px" stroke-linecap="butt" transform="matrix(1,0,0,1,-100,-135)" text-rendering="geometricPrecision" font-family="'Fira Sans'" shape-rendering="geometricPrecision" font-weight="bold" stroke-miterlimit="1.45">
      <text x="616.4371" xml:space="preserve" y="228.5324" clip-path="url(#clipPath2)" stroke="none">foo frame</text>
      <rect fill="none" x="595.1" width="123" height="39" y="203.0057" clip-path="url(#clipPath2)"/>
    </g>
    <g fill="rgb(204,255,204)" text-rendering="geometricPrecision" shape-rendering="geometricPrecision" transform="matrix(1,0,0,1,-100,-135)" stroke="rgb(204,255,204)">
      <rect x="595.1" width="123" height="39" y="241.5" clip-path="url(#clipPath2)" stroke="none"/>
    </g>
    <g font-size="18px" stroke-linecap="butt" transform="matrix(1,0,0,1,-100,-135)" text-rendering="geometricPrecision" font-family="'Fira Sans'" shape-rendering="geometricPrecision" font-weight="bold" stroke-miterlimit="1.45">
      <text x="616.4371" xml:space="preserve" y="267.0267" clip-path="url(#clipPath2)" stroke="none">foo frame</text>
      <rect fill="none" x="595.1" width="123" height="39" y="241.5" clip-path="url(#clipPath2)"/>
      <text x="762.724" font-size="48px" y="320.5763" clip-path="url(#clipPath2)" stroke="none" font-weight="normal" xml:space="preserve">...</text>
      <path fill="none" d="M327 280.5 L327 250.4943" clip-path="url(#clipPath2)"/>
      <path d="M327 242.4943 L322 254.4943 L327 251.4943 L332 254.4943 Z" stroke="none" clip-path="url(#clipPath2)"/>
      <text x="333.2122" y="266.3151" clip-path="url(#clipPath2)" font-family="'Fira Mono'" stroke="none" font-weight="normal" xml:space="preserve">foo()</text>
      <path fill="none" d="M162.2 319.5 L162.2 293" clip-path="url(#clipPath2)"/>
      <path d="M162.2 285 L157.2 297 L162.2 294 L167.2 297 Z" stroke="none" clip-path="url(#clipPath2)"/>
      <text x="168.4122" y="307.2767" clip-path="url(#clipPath2)" font-family="'Fira Mono'" stroke="none" font-weight="normal" xml:space="preserve">foo()</text>
      <path fill="none" d="M491.8 241.5 L491.8 211.4943" clip-path="url(#clipPath2)"/>
      <path d="M491.8 203.4943 L486.8 215.4943 L491.8 212.4943 L496.8 215.4943 Z" stroke="none" clip-path="url(#clipPath2)"/>
      <text x="498.0122" y="227.3151" clip-path="url(#clipPath2)" font-family="'Fira Mono'" stroke="none" font-weight="normal" xml:space="preserve">foo()</text>
      <path fill="none" d="M656.6 203.0057 L656.6 173" clip-path="url(#clipPath2)"/>
      <path d="M656.6 165 L651.6 177 L656.6 174 L661.6 177 Z" stroke="none" clip-path="url(#clipPath2)"/>
      <text x="662.8122" y="188.8208" clip-path="url(#clipPath2)" font-family="'Fira Mono'" stroke="none" font-weight="normal" xml:space="preserve">foo()</text>
    </g>
  </g>
</svg>
