<?xml version="1.0" encoding="UTF-8"?><svg xmlns="http://www.w3.org/2000/svg" xmlns:xlink="http://www.w3.org/1999/xlink" fill-opacity="1" color-rendering="auto" color-interpolation="auto" text-rendering="auto" stroke="black" stroke-linecap="square" width="450" stroke-miterlimit="10" shape-rendering="auto" stroke-opacity="1" fill="black" stroke-dasharray="none" font-weight="normal" stroke-width="1" height="135" font-family="'Dialog'" font-style="normal" stroke-linejoin="miter" font-size="12px" stroke-dashoffset="0" image-rendering="auto">
  <!--Generated by ySVG 2.5-->
  <defs id="genericDefs"/>
  <g>
    <defs id="defs1">
      <clipPath clipPathUnits="userSpaceOnUse" id="clipPath1">
        <path d="M0 0 L450 0 L450 135 L0 135 L0 0 Z"/>
      </clipPath>
      <clipPath clipPathUnits="userSpaceOnUse" id="clipPath2">
        <path d="M179 234 L629 234 L629 369 L179 369 L179 234 Z"/>
      </clipPath>
    </defs>
    <g fill="rgb(255,204,0)" text-rendering="geometricPrecision" shape-rendering="geometricPrecision" transform="matrix(1,0,0,1,-179,-234)" stroke="rgb(255,204,0)">
      <rect x="179" width="30" height="30" y="339" clip-path="url(#clipPath2)" stroke="none"/>
    </g>
    <g font-size="15px" stroke-linecap="butt" transform="matrix(1,0,0,1,-179,-234)" text-rendering="geometricPrecision" font-family="'Fira Code'" shape-rendering="geometricPrecision" font-weight="bold" stroke-miterlimit="1.45">
      <text x="189.5002" xml:space="preserve" y="359.0248" clip-path="url(#clipPath2)" stroke="none">1</text>
    </g>
    <g fill="rgb(255,204,0)" text-rendering="geometricPrecision" shape-rendering="geometricPrecision" transform="matrix(1,0,0,1,-179,-234)" stroke="rgb(255,204,0)">
      <rect x="239" width="30" height="30" y="339" clip-path="url(#clipPath2)" stroke="none"/>
    </g>
    <g font-size="15px" stroke-linecap="butt" transform="matrix(1,0,0,1,-179,-234)" text-rendering="geometricPrecision" font-family="'Fira Code'" shape-rendering="geometricPrecision" font-weight="bold" stroke-miterlimit="1.45">
      <text x="249.5002" xml:space="preserve" y="359.0248" clip-path="url(#clipPath2)" stroke="none">2</text>
    </g>
    <g fill="rgb(255,204,0)" text-rendering="geometricPrecision" shape-rendering="geometricPrecision" transform="matrix(1,0,0,1,-179,-234)" stroke="rgb(255,204,0)">
      <rect x="299" width="30" height="30" y="339" clip-path="url(#clipPath2)" stroke="none"/>
    </g>
    <g font-size="15px" stroke-linecap="butt" transform="matrix(1,0,0,1,-179,-234)" text-rendering="geometricPrecision" font-family="'Fira Code'" shape-rendering="geometricPrecision" font-weight="bold" stroke-miterlimit="1.45">
      <text x="309.5002" xml:space="preserve" y="359.0248" clip-path="url(#clipPath2)" stroke="none">3</text>
    </g>
    <g fill="rgb(255,204,0)" text-rendering="geometricPrecision" shape-rendering="geometricPrecision" transform="matrix(1,0,0,1,-179,-234)" stroke="rgb(255,204,0)">
      <rect x="359" width="30" height="30" y="339" clip-path="url(#clipPath2)" stroke="none"/>
    </g>
    <g font-size="15px" stroke-linecap="butt" transform="matrix(1,0,0,1,-179,-234)" text-rendering="geometricPrecision" font-family="'Fira Code'" shape-rendering="geometricPrecision" font-weight="bold" stroke-miterlimit="1.45">
      <text x="369.5002" xml:space="preserve" y="359.0248" clip-path="url(#clipPath2)" stroke="none">4</text>
    </g>
    <g fill="rgb(255,204,0)" text-rendering="geometricPrecision" shape-rendering="geometricPrecision" transform="matrix(1,0,0,1,-179,-234)" stroke="rgb(255,204,0)">
      <rect x="419" width="30" height="30" y="339" clip-path="url(#clipPath2)" stroke="none"/>
    </g>
    <g font-size="15px" stroke-linecap="butt" transform="matrix(1,0,0,1,-179,-234)" text-rendering="geometricPrecision" font-family="'Fira Code'" shape-rendering="geometricPrecision" font-weight="bold" stroke-miterlimit="1.45">
      <text x="429.5002" xml:space="preserve" y="359.0248" clip-path="url(#clipPath2)" stroke="none">5</text>
    </g>
    <g fill="rgb(255,204,0)" text-rendering="geometricPrecision" shape-rendering="geometricPrecision" transform="matrix(1,0,0,1,-179,-234)" stroke="rgb(255,204,0)">
      <rect x="479" width="30" height="30" y="339" clip-path="url(#clipPath2)" stroke="none"/>
    </g>
    <g font-size="15px" stroke-linecap="butt" transform="matrix(1,0,0,1,-179,-234)" text-rendering="geometricPrecision" font-family="'Fira Code'" shape-rendering="geometricPrecision" font-weight="bold" stroke-miterlimit="1.45">
      <text x="489.5002" xml:space="preserve" y="359.0248" clip-path="url(#clipPath2)" stroke="none">6</text>
    </g>
    <g fill="rgb(255,204,0)" text-rendering="geometricPrecision" shape-rendering="geometricPrecision" transform="matrix(1,0,0,1,-179,-234)" stroke="rgb(255,204,0)">
      <rect x="539" width="30" height="30" y="339" clip-path="url(#clipPath2)" stroke="none"/>
    </g>
    <g font-size="15px" stroke-linecap="butt" transform="matrix(1,0,0,1,-179,-234)" text-rendering="geometricPrecision" font-family="'Fira Code'" shape-rendering="geometricPrecision" font-weight="bold" stroke-miterlimit="1.45">
      <text x="549.5002" xml:space="preserve" y="359.0248" clip-path="url(#clipPath2)" stroke="none">7</text>
    </g>
    <g fill="rgb(0,204,255)" text-rendering="geometricPrecision" shape-rendering="geometricPrecision" transform="matrix(1,0,0,1,-179,-234)" stroke="rgb(0,204,255)">
      <rect x="599" width="30" height="30" y="339" clip-path="url(#clipPath2)" stroke="none"/>
    </g>
    <g font-size="15px" stroke-linecap="butt" transform="matrix(1,0,0,1,-179,-234)" text-rendering="geometricPrecision" font-family="'Fira Code'" shape-rendering="geometricPrecision" font-weight="bold" stroke-miterlimit="1.45">
      <text x="605.0004" xml:space="preserve" y="359.0248" clip-path="url(#clipPath2)" stroke="none">[]</text>
    </g>
    <g fill="rgb(255,204,0)" text-rendering="geometricPrecision" shape-rendering="geometricPrecision" transform="matrix(1,0,0,1,-179,-234)" stroke="rgb(255,204,0)">
      <rect x="179" width="30" height="30" y="304" clip-path="url(#clipPath2)" stroke="none"/>
    </g>
    <g font-size="15px" stroke-linecap="butt" transform="matrix(1,0,0,1,-179,-234)" text-rendering="geometricPrecision" font-family="'Fira Code'" shape-rendering="geometricPrecision" font-weight="bold" stroke-miterlimit="1.45">
      <text x="189.5002" xml:space="preserve" y="324.0248" clip-path="url(#clipPath2)" stroke="none">1</text>
    </g>
    <g fill="rgb(255,204,0)" text-rendering="geometricPrecision" shape-rendering="geometricPrecision" transform="matrix(1,0,0,1,-179,-234)" stroke="rgb(255,204,0)">
      <rect x="179" width="30" height="30" y="269" clip-path="url(#clipPath2)" stroke="none"/>
    </g>
    <g font-size="15px" stroke-linecap="butt" transform="matrix(1,0,0,1,-179,-234)" text-rendering="geometricPrecision" font-family="'Fira Code'" shape-rendering="geometricPrecision" font-weight="bold" stroke-miterlimit="1.45">
      <text x="189.5002" xml:space="preserve" y="289.0248" clip-path="url(#clipPath2)" stroke="none">1</text>
    </g>
    <g fill="rgb(255,204,0)" text-rendering="geometricPrecision" shape-rendering="geometricPrecision" transform="matrix(1,0,0,1,-179,-234)" stroke="rgb(255,204,0)">
      <rect x="179" width="30" height="30" y="234" clip-path="url(#clipPath2)" stroke="none"/>
    </g>
    <g font-size="15px" stroke-linecap="butt" transform="matrix(1,0,0,1,-179,-234)" text-rendering="geometricPrecision" font-family="'Fira Code'" shape-rendering="geometricPrecision" font-weight="bold" stroke-miterlimit="1.45">
      <text x="189.5002" xml:space="preserve" y="254.0248" clip-path="url(#clipPath2)" stroke="none">1</text>
    </g>
    <g fill="rgb(255,204,0)" text-rendering="geometricPrecision" shape-rendering="geometricPrecision" transform="matrix(1,0,0,1,-179,-234)" stroke="rgb(255,204,0)">
      <rect x="299" width="30" height="30" y="304" clip-path="url(#clipPath2)" stroke="none"/>
    </g>
    <g font-size="15px" stroke-linecap="butt" transform="matrix(1,0,0,1,-179,-234)" text-rendering="geometricPrecision" font-family="'Fira Code'" shape-rendering="geometricPrecision" font-weight="bold" stroke-miterlimit="1.45">
      <text x="309.5002" xml:space="preserve" y="324.0248" clip-path="url(#clipPath2)" stroke="none">3</text>
    </g>
    <g fill="rgb(255,204,0)" text-rendering="geometricPrecision" shape-rendering="geometricPrecision" transform="matrix(1,0,0,1,-179,-234)" stroke="rgb(255,204,0)">
      <rect x="299" width="30" height="30" y="269" clip-path="url(#clipPath2)" stroke="none"/>
    </g>
    <g font-size="15px" stroke-linecap="butt" transform="matrix(1,0,0,1,-179,-234)" text-rendering="geometricPrecision" font-family="'Fira Code'" shape-rendering="geometricPrecision" font-weight="bold" stroke-miterlimit="1.45">
      <text x="309.5002" xml:space="preserve" y="289.0248" clip-path="url(#clipPath2)" stroke="none">3</text>
    </g>
    <g fill="rgb(255,204,0)" text-rendering="geometricPrecision" shape-rendering="geometricPrecision" transform="matrix(1,0,0,1,-179,-234)" stroke="rgb(255,204,0)">
      <rect x="419" width="30" height="30" y="304" clip-path="url(#clipPath2)" stroke="none"/>
    </g>
    <g font-size="15px" stroke-linecap="butt" transform="matrix(1,0,0,1,-179,-234)" text-rendering="geometricPrecision" font-family="'Fira Code'" shape-rendering="geometricPrecision" font-weight="bold" stroke-miterlimit="1.45">
      <text x="429.5002" xml:space="preserve" y="324.0248" clip-path="url(#clipPath2)" stroke="none">5</text>
    </g>
    <g fill="rgb(255,204,0)" text-rendering="geometricPrecision" shape-rendering="geometricPrecision" transform="matrix(1,0,0,1,-179,-234)" stroke="rgb(255,204,0)">
      <rect x="479" width="30" height="30" y="304" clip-path="url(#clipPath2)" stroke="none"/>
    </g>
    <g font-size="15px" stroke-linecap="butt" transform="matrix(1,0,0,1,-179,-234)" text-rendering="geometricPrecision" font-family="'Fira Code'" shape-rendering="geometricPrecision" font-weight="bold" stroke-miterlimit="1.45">
      <text x="489.5002" xml:space="preserve" y="324.0248" clip-path="url(#clipPath2)" stroke="none">6</text>
    </g>
    <g fill="rgb(0,204,255)" text-rendering="geometricPrecision" shape-rendering="geometricPrecision" transform="matrix(1,0,0,1,-179,-234)" stroke="rgb(0,204,255)">
      <rect x="599" width="30" height="30" y="304" clip-path="url(#clipPath2)" stroke="none"/>
    </g>
    <g font-size="15px" stroke-linecap="butt" transform="matrix(1,0,0,1,-179,-234)" text-rendering="geometricPrecision" font-family="'Fira Code'" shape-rendering="geometricPrecision" font-weight="bold" stroke-miterlimit="1.45">
      <text x="605.0004" xml:space="preserve" y="324.0248" clip-path="url(#clipPath2)" stroke="none">[]</text>
    </g>
    <g fill="rgb(0,204,255)" text-rendering="geometricPrecision" shape-rendering="geometricPrecision" transform="matrix(1,0,0,1,-179,-234)" stroke="rgb(0,204,255)">
      <rect x="599" width="30" height="30" y="269" clip-path="url(#clipPath2)" stroke="none"/>
    </g>
    <g font-size="15px" stroke-linecap="butt" transform="matrix(1,0,0,1,-179,-234)" text-rendering="geometricPrecision" font-family="'Fira Code'" shape-rendering="geometricPrecision" font-weight="bold" stroke-miterlimit="1.45">
      <text x="605.0004" xml:space="preserve" y="289.0248" clip-path="url(#clipPath2)" stroke="none">[]</text>
    </g>
    <g fill="rgb(0,204,255)" text-rendering="geometricPrecision" shape-rendering="geometricPrecision" transform="matrix(1,0,0,1,-179,-234)" stroke="rgb(0,204,255)">
      <rect x="599" width="30" height="30" y="234" clip-path="url(#clipPath2)" stroke="none"/>
    </g>
    <g font-size="15px" stroke-linecap="butt" transform="matrix(1,0,0,1,-179,-234)" text-rendering="geometricPrecision" font-family="'Fira Code'" shape-rendering="geometricPrecision" font-weight="bold" stroke-miterlimit="1.45">
      <text x="605.0004" xml:space="preserve" y="254.0248" clip-path="url(#clipPath2)" stroke="none">[]</text>
      <path fill="none" d="M209 354 L231 354" clip-path="url(#clipPath2)"/>
      <path d="M239 354 L227 349 L230 354 L227 359 Z" stroke="none" clip-path="url(#clipPath2)"/>
      <path fill="none" d="M269 354 L291 354" clip-path="url(#clipPath2)"/>
      <path d="M299 354 L287 349 L290 354 L287 359 Z" stroke="none" clip-path="url(#clipPath2)"/>
      <path fill="none" d="M329 354 L351 354" clip-path="url(#clipPath2)"/>
      <path d="M359 354 L347 349 L350 354 L347 359 Z" stroke="none" clip-path="url(#clipPath2)"/>
      <path fill="none" d="M389 354 L411 354" clip-path="url(#clipPath2)"/>
      <path d="M419 354 L407 349 L410 354 L407 359 Z" stroke="none" clip-path="url(#clipPath2)"/>
      <path fill="none" d="M449 354 L471 354" clip-path="url(#clipPath2)"/>
      <path d="M479 354 L467 349 L470 354 L467 359 Z" stroke="none" clip-path="url(#clipPath2)"/>
      <path fill="none" d="M509 354 L531 354" clip-path="url(#clipPath2)"/>
      <path d="M539 354 L527 349 L530 354 L527 359 Z" stroke="none" clip-path="url(#clipPath2)"/>
      <path fill="none" d="M569 354 L591 354" clip-path="url(#clipPath2)"/>
      <path d="M599 354 L587 349 L590 354 L587 359 Z" stroke="none" clip-path="url(#clipPath2)"/>
      <path fill="none" d="M209 319 L291 319" clip-path="url(#clipPath2)"/>
      <path d="M299 319 L287 314 L290 319 L287 324 Z" stroke="none" clip-path="url(#clipPath2)"/>
      <path fill="none" d="M209 284 L291 284" clip-path="url(#clipPath2)"/>
      <path d="M299 284 L287 279 L290 284 L287 289 Z" stroke="none" clip-path="url(#clipPath2)"/>
      <path fill="none" d="M329 319 L411 319" clip-path="url(#clipPath2)"/>
      <path d="M419 319 L407 314 L410 319 L407 324 Z" stroke="none" clip-path="url(#clipPath2)"/>
      <path fill="none" d="M449 319 L471 319" clip-path="url(#clipPath2)"/>
      <path d="M479 319 L467 314 L470 319 L467 324 Z" stroke="none" clip-path="url(#clipPath2)"/>
      <path fill="none" d="M509 319 L591 319" clip-path="url(#clipPath2)"/>
      <path d="M599 319 L587 314 L590 319 L587 324 Z" stroke="none" clip-path="url(#clipPath2)"/>
      <path fill="none" d="M329 284 L591 284" clip-path="url(#clipPath2)"/>
      <path d="M599 284 L587 279 L590 284 L587 289 Z" stroke="none" clip-path="url(#clipPath2)"/>
      <path fill="none" d="M209 249 L591 249" clip-path="url(#clipPath2)"/>
      <path d="M599 249 L587 244 L590 249 L587 254 Z" stroke="none" clip-path="url(#clipPath2)"/>
    </g>
  </g>
</svg>
