<?xml version="1.0" encoding="UTF-8"?><svg xmlns="http://www.w3.org/2000/svg" xmlns:xlink="http://www.w3.org/1999/xlink" fill-opacity="1" color-rendering="auto" color-interpolation="auto" text-rendering="auto" stroke="black" stroke-linecap="square" width="709" stroke-miterlimit="10" shape-rendering="auto" stroke-opacity="1" fill="black" stroke-dasharray="none" font-weight="normal" stroke-width="1" height="158" font-family="'Dialog'" font-style="normal" stroke-linejoin="miter" font-size="12px" stroke-dashoffset="0" image-rendering="auto">
  <!--Generated by ySVG 2.5-->
  <defs id="genericDefs"/>
  <g>
    <defs id="defs1">
      <clipPath clipPathUnits="userSpaceOnUse" id="clipPath1">
        <path d="M0 0 L709 0 L709 158 L0 158 L0 0 Z"/>
      </clipPath>
      <clipPath clipPathUnits="userSpaceOnUse" id="clipPath2">
        <path d="M131 231 L840 231 L840 389 L131 389 L131 231 Z"/>
      </clipPath>
    </defs>
    <g fill="rgb(204,255,204)" text-rendering="geometricPrecision" shape-rendering="geometricPrecision" transform="matrix(1,0,0,1,-131,-231)" stroke="rgb(204,255,204)">
      <rect x="630.6" width="123" height="39" y="310.5" clip-path="url(#clipPath2)" stroke="none"/>
    </g>
    <g font-size="18px" stroke-linecap="butt" transform="matrix(1,0,0,1,-131,-231)" text-rendering="geometricPrecision" font-family="'Fira Sans'" shape-rendering="geometricPrecision" font-weight="bold" stroke-miterlimit="1.45">
      <text x="651.9371" xml:space="preserve" y="336.0267" clip-path="url(#clipPath2)" stroke="none">foo frame</text>
      <rect fill="none" x="630.6" width="123" height="39" y="310.5" clip-path="url(#clipPath2)"/>
    </g>
    <g fill="rgb(204,255,204)" text-rendering="geometricPrecision" shape-rendering="geometricPrecision" transform="matrix(1,0,0,1,-131,-231)" stroke="rgb(204,255,204)">
      <rect x="636.24" width="123" height="39" y="303.88" clip-path="url(#clipPath2)" stroke="none"/>
    </g>
    <g font-size="18px" stroke-linecap="butt" transform="matrix(1,0,0,1,-131,-231)" text-rendering="geometricPrecision" font-family="'Fira Sans'" shape-rendering="geometricPrecision" font-weight="bold" stroke-miterlimit="1.45">
      <text x="657.5771" xml:space="preserve" y="329.4067" clip-path="url(#clipPath2)" stroke="none">foo frame</text>
      <rect fill="none" x="636.24" width="123" height="39" y="303.88" clip-path="url(#clipPath2)"/>
    </g>
    <g fill="silver" text-rendering="geometricPrecision" shape-rendering="geometricPrecision" transform="matrix(1,0,0,1,-131,-231)" stroke="silver">
      <rect x="296.2" width="123" height="39" y="349.5" clip-path="url(#clipPath2)" stroke="none"/>
    </g>
    <g font-size="18px" stroke-linecap="butt" transform="matrix(1,0,0,1,-131,-231)" text-rendering="geometricPrecision" font-family="'Fira Sans'" shape-rendering="geometricPrecision" font-weight="bold" stroke-miterlimit="1.45">
      <text x="328.4031" xml:space="preserve" y="375.0267" clip-path="url(#clipPath2)" stroke="none">Stack...</text>
      <rect fill="none" x="296.2" width="123" height="39" y="349.5" clip-path="url(#clipPath2)"/>
    </g>
    <g fill="green" text-rendering="geometricPrecision" shape-rendering="geometricPrecision" transform="matrix(1,0,0,1,-131,-231)" stroke="green">
      <rect x="296.2" width="123" height="39" y="310.5" clip-path="url(#clipPath2)" stroke="none"/>
    </g>
    <g font-size="18px" stroke-linecap="butt" transform="matrix(1,0,0,1,-131,-231)" text-rendering="geometricPrecision" font-family="'Fira Sans'" shape-rendering="geometricPrecision" font-weight="bold" stroke-miterlimit="1.45">
      <text x="317.5371" xml:space="preserve" y="336.0267" clip-path="url(#clipPath2)" stroke="none">foo frame</text>
      <rect fill="none" x="296.2" width="123" height="39" y="310.5" clip-path="url(#clipPath2)"/>
    </g>
    <g fill="silver" text-rendering="geometricPrecision" shape-rendering="geometricPrecision" transform="matrix(1,0,0,1,-131,-231)" stroke="silver">
      <rect x="461" width="123" height="39" y="349.5" clip-path="url(#clipPath2)" stroke="none"/>
    </g>
    <g font-size="18px" stroke-linecap="butt" transform="matrix(1,0,0,1,-131,-231)" text-rendering="geometricPrecision" font-family="'Fira Sans'" shape-rendering="geometricPrecision" font-weight="bold" stroke-miterlimit="1.45">
      <text x="493.2031" xml:space="preserve" y="375.0267" clip-path="url(#clipPath2)" stroke="none">Stack...</text>
      <rect fill="none" x="461" width="123" height="39" y="349.5" clip-path="url(#clipPath2)"/>
    </g>
    <g fill="rgb(204,255,204)" text-rendering="geometricPrecision" shape-rendering="geometricPrecision" transform="matrix(1,0,0,1,-131,-231)" stroke="rgb(204,255,204)">
      <rect x="461" width="123" height="39" y="310.5" clip-path="url(#clipPath2)" stroke="none"/>
    </g>
    <g font-size="18px" stroke-linecap="butt" transform="matrix(1,0,0,1,-131,-231)" text-rendering="geometricPrecision" font-family="'Fira Sans'" shape-rendering="geometricPrecision" font-weight="bold" stroke-miterlimit="1.45">
      <text x="482.3371" xml:space="preserve" y="336.0267" clip-path="url(#clipPath2)" stroke="none">foo frame</text>
      <rect fill="none" x="461" width="123" height="39" y="310.5" clip-path="url(#clipPath2)"/>
    </g>
    <g fill="silver" text-rendering="geometricPrecision" shape-rendering="geometricPrecision" transform="matrix(1,0,0,1,-131,-231)" stroke="silver">
      <rect x="131.4" width="123" height="39" y="349.5" clip-path="url(#clipPath2)" stroke="none"/>
    </g>
    <g font-size="18px" stroke-linecap="butt" transform="matrix(1,0,0,1,-131,-231)" text-rendering="geometricPrecision" font-family="'Fira Sans'" shape-rendering="geometricPrecision" font-weight="bold" stroke-miterlimit="1.45">
      <text x="163.6031" xml:space="preserve" y="375.0267" clip-path="url(#clipPath2)" stroke="none">Stack...</text>
      <rect fill="none" x="131.4" width="123" height="39" y="349.5" clip-path="url(#clipPath2)"/>
    </g>
    <g fill="green" text-rendering="geometricPrecision" shape-rendering="geometricPrecision" transform="matrix(1,0,0,1,-131,-231)" stroke="green">
      <rect x="465.8" width="123" height="39" y="305.5114" clip-path="url(#clipPath2)" stroke="none"/>
    </g>
    <g font-size="18px" stroke-linecap="butt" transform="matrix(1,0,0,1,-131,-231)" text-rendering="geometricPrecision" font-family="'Fira Sans'" shape-rendering="geometricPrecision" font-weight="bold" stroke-miterlimit="1.45">
      <text x="487.1371" xml:space="preserve" y="331.0381" clip-path="url(#clipPath2)" stroke="none">foo frame</text>
      <rect fill="none" x="465.8" width="123" height="39" y="305.5114" clip-path="url(#clipPath2)"/>
    </g>
    <g fill="silver" text-rendering="geometricPrecision" shape-rendering="geometricPrecision" transform="matrix(1,0,0,1,-131,-231)" stroke="silver">
      <rect x="630.6" width="123" height="39" y="349.5" clip-path="url(#clipPath2)" stroke="none"/>
    </g>
    <g font-size="18px" stroke-linecap="butt" transform="matrix(1,0,0,1,-131,-231)" text-rendering="geometricPrecision" font-family="'Fira Sans'" shape-rendering="geometricPrecision" font-weight="bold" stroke-miterlimit="1.45">
      <text x="662.8031" xml:space="preserve" y="375.0267" clip-path="url(#clipPath2)" stroke="none">Stack...</text>
      <rect fill="none" x="630.6" width="123" height="39" y="349.5" clip-path="url(#clipPath2)"/>
    </g>
    <g fill="green" text-rendering="geometricPrecision" shape-rendering="geometricPrecision" transform="matrix(1,0,0,1,-131,-231)" stroke="green">
      <rect x="641.8" width="123" height="39" y="299.5457" clip-path="url(#clipPath2)" stroke="none"/>
    </g>
    <g font-size="18px" stroke-linecap="butt" transform="matrix(1,0,0,1,-131,-231)" text-rendering="geometricPrecision" font-family="'Fira Sans'" shape-rendering="geometricPrecision" font-weight="bold" stroke-miterlimit="1.45">
      <text x="663.1371" xml:space="preserve" y="325.0724" clip-path="url(#clipPath2)" stroke="none">foo frame</text>
      <rect fill="none" x="641.8" width="123" height="39" y="299.5457" clip-path="url(#clipPath2)"/>
      <text x="802.724" font-size="48px" y="366.0763" clip-path="url(#clipPath2)" stroke="none" font-weight="normal" xml:space="preserve">...</text>
      <path fill="none" d="M357.7 310.5 L357.7 280.4943" clip-path="url(#clipPath2)"/>
      <path d="M357.7 272.4943 L352.7 284.4943 L357.7 281.4943 L362.7 284.4943 Z" stroke="none" clip-path="url(#clipPath2)"/>
      <text x="363.9122" y="296.3151" clip-path="url(#clipPath2)" font-family="'Fira Mono'" stroke="none" font-weight="normal" xml:space="preserve">foo()</text>
      <path fill="none" d="M192.9 349.5 L192.9 323" clip-path="url(#clipPath2)"/>
      <path d="M192.9 315 L187.9 327 L192.9 324 L197.9 327 Z" stroke="none" clip-path="url(#clipPath2)"/>
      <text x="199.1122" y="337.2767" clip-path="url(#clipPath2)" font-family="'Fira Mono'" stroke="none" font-weight="normal" xml:space="preserve">foo()</text>
      <path fill="none" d="M527.3 305.5114 L527.3 275.5057" clip-path="url(#clipPath2)"/>
      <path d="M527.3 267.5057 L522.3 279.5057 L527.3 276.5057 L532.3 279.5057 Z" stroke="none" clip-path="url(#clipPath2)"/>
      <text x="533.5122" y="291.3264" clip-path="url(#clipPath2)" font-family="'Fira Mono'" stroke="none" font-weight="normal" xml:space="preserve">foo()</text>
      <path fill="none" d="M703.3 299.5457 L703.3 269.54" clip-path="url(#clipPath2)"/>
      <path d="M703.3 261.54 L698.3 273.54 L703.3 270.54 L708.3 273.54 Z" stroke="none" clip-path="url(#clipPath2)"/>
      <text x="709.5122" y="285.3607" clip-path="url(#clipPath2)" font-family="'Fira Mono'" stroke="none" font-weight="normal" xml:space="preserve">foo()</text>
    </g>
  </g>
</svg>
