<?xml version="1.0" encoding="UTF-8"?><svg xmlns="http://www.w3.org/2000/svg" xmlns:xlink="http://www.w3.org/1999/xlink" fill-opacity="1" color-rendering="auto" color-interpolation="auto" text-rendering="auto" stroke="black" stroke-linecap="square" width="318" stroke-miterlimit="10" shape-rendering="auto" stroke-opacity="1" fill="black" stroke-dasharray="none" font-weight="normal" stroke-width="1" height="270" font-family="'Dialog'" font-style="normal" stroke-linejoin="miter" font-size="12px" stroke-dashoffset="0" image-rendering="auto">
  <!--Generated by ySVG 2.5-->
  <defs id="genericDefs"/>
  <g>
    <defs id="defs1">
      <clipPath clipPathUnits="userSpaceOnUse" id="clipPath1">
        <path d="M0 0 L318 0 L318 270 L0 270 L0 0 Z"/>
      </clipPath>
      <clipPath clipPathUnits="userSpaceOnUse" id="clipPath2">
        <path d="M288 155 L606 155 L606 425 L288 425 L288 155 Z"/>
      </clipPath>
    </defs>
    <g fill="rgb(255,204,0)" text-rendering="geometricPrecision" shape-rendering="geometricPrecision" transform="matrix(1,0,0,1,-288,-155)" stroke="rgb(255,204,0)">
      <rect x="387" width="41" height="30" y="155" clip-path="url(#clipPath2)" stroke="none"/>
    </g>
    <g font-size="16px" stroke-linecap="butt" transform="matrix(1,0,0,1,-288,-155)" text-rendering="geometricPrecision" font-family="'Fira Code'" shape-rendering="geometricPrecision" stroke-miterlimit="1.45">
      <text x="388.3105" xml:space="preserve" y="175.3571" clip-path="url(#clipPath2)" stroke="none">3, 1</text>
    </g>
    <g fill="rgb(255,204,0)" text-rendering="geometricPrecision" shape-rendering="geometricPrecision" transform="matrix(1,0,0,1,-288,-155)" stroke="rgb(255,204,0)">
      <rect x="327" width="41" height="30" y="215" clip-path="url(#clipPath2)" stroke="none"/>
    </g>
    <g font-size="16px" stroke-linecap="butt" transform="matrix(1,0,0,1,-288,-155)" text-rendering="geometricPrecision" font-family="'Fira Code'" shape-rendering="geometricPrecision" stroke-miterlimit="1.45">
      <text x="328.3105" xml:space="preserve" y="235.3571" clip-path="url(#clipPath2)" stroke="none">1, 6</text>
    </g>
    <g fill="rgb(255,204,0)" text-rendering="geometricPrecision" shape-rendering="geometricPrecision" transform="matrix(1,0,0,1,-288,-155)" stroke="rgb(255,204,0)">
      <rect x="439.34" width="52" height="30" y="215" clip-path="url(#clipPath2)" stroke="none"/>
    </g>
    <g font-size="16px" stroke-linecap="butt" transform="matrix(1,0,0,1,-288,-155)" text-rendering="geometricPrecision" font-family="'Fira Code'" shape-rendering="geometricPrecision" stroke-miterlimit="1.45">
      <text x="441.3532" xml:space="preserve" y="235.3571" clip-path="url(#clipPath2)" stroke="none">5, 11</text>
    </g>
    <g fill="rgb(255,204,0)" text-rendering="geometricPrecision" shape-rendering="geometricPrecision" transform="matrix(1,0,0,1,-288,-155)" stroke="rgb(255,204,0)">
      <rect x="289" width="41" height="30" y="275" clip-path="url(#clipPath2)" stroke="none"/>
    </g>
    <g font-size="16px" stroke-linecap="butt" transform="matrix(1,0,0,1,-288,-155)" text-rendering="geometricPrecision" font-family="'Fira Code'" shape-rendering="geometricPrecision" stroke-miterlimit="1.45">
      <text x="290.3105" xml:space="preserve" y="295.3571" clip-path="url(#clipPath2)" stroke="none">0, 9</text>
    </g>
    <g fill="rgb(255,204,0)" text-rendering="geometricPrecision" shape-rendering="geometricPrecision" transform="matrix(1,0,0,1,-288,-155)" stroke="rgb(255,204,0)">
      <rect x="347.904" width="52" height="30" y="275" clip-path="url(#clipPath2)" stroke="none"/>
    </g>
    <g font-size="16px" stroke-linecap="butt" transform="matrix(1,0,0,1,-288,-155)" text-rendering="geometricPrecision" font-family="'Fira Code'" shape-rendering="geometricPrecision" stroke-miterlimit="1.45">
      <text x="349.9172" xml:space="preserve" y="295.3571" clip-path="url(#clipPath2)" stroke="none">2, 99</text>
    </g>
    <g fill="rgb(255,204,0)" text-rendering="geometricPrecision" shape-rendering="geometricPrecision" transform="matrix(1,0,0,1,-288,-155)" stroke="rgb(255,204,0)">
      <rect x="417.808" width="52" height="30" y="275" clip-path="url(#clipPath2)" stroke="none"/>
    </g>
    <g font-size="16px" stroke-linecap="butt" transform="matrix(1,0,0,1,-288,-155)" text-rendering="geometricPrecision" font-family="'Fira Code'" shape-rendering="geometricPrecision" stroke-miterlimit="1.45">
      <text x="419.8212" xml:space="preserve" y="295.3571" clip-path="url(#clipPath2)" stroke="none">4, 14</text>
    </g>
    <g fill="rgb(255,204,0)" text-rendering="geometricPrecision" shape-rendering="geometricPrecision" transform="matrix(1,0,0,1,-288,-155)" stroke="rgb(255,204,0)">
      <rect x="553.032" width="52" height="30" y="275" clip-path="url(#clipPath2)" stroke="none"/>
    </g>
    <g font-size="16px" stroke-linecap="butt" transform="matrix(1,0,0,1,-288,-155)" text-rendering="geometricPrecision" font-family="'Fira Code'" shape-rendering="geometricPrecision" stroke-miterlimit="1.45">
      <text x="555.0452" xml:space="preserve" y="295.3571" clip-path="url(#clipPath2)" stroke="none">9, 17</text>
    </g>
    <g fill="rgb(255,204,0)" text-rendering="geometricPrecision" shape-rendering="geometricPrecision" transform="matrix(1,0,0,1,-288,-155)" stroke="rgb(255,204,0)">
      <rect x="505.256" width="52" height="30" y="335" clip-path="url(#clipPath2)" stroke="none"/>
    </g>
    <g font-size="16px" stroke-linecap="butt" transform="matrix(1,0,0,1,-288,-155)" text-rendering="geometricPrecision" font-family="'Fira Code'" shape-rendering="geometricPrecision" stroke-miterlimit="1.45">
      <text x="507.2692" xml:space="preserve" y="355.3571" clip-path="url(#clipPath2)" stroke="none">7, 22</text>
    </g>
    <g fill="rgb(255,204,0)" text-rendering="geometricPrecision" shape-rendering="geometricPrecision" transform="matrix(1,0,0,1,-288,-155)" stroke="rgb(255,204,0)">
      <rect x="470.28" width="52" height="30" y="395" clip-path="url(#clipPath2)" stroke="none"/>
    </g>
    <g font-size="16px" stroke-linecap="butt" transform="matrix(1,0,0,1,-288,-155)" text-rendering="geometricPrecision" font-family="'Fira Code'" shape-rendering="geometricPrecision" stroke-miterlimit="1.45">
      <text x="472.2932" xml:space="preserve" y="415.3571" clip-path="url(#clipPath2)" stroke="none">6, 42</text>
    </g>
    <g fill="rgb(255,204,0)" text-rendering="geometricPrecision" shape-rendering="geometricPrecision" transform="matrix(1,0,0,1,-288,-155)" stroke="rgb(255,204,0)">
      <rect x="541.256" width="52" height="30" y="395" clip-path="url(#clipPath2)" stroke="none"/>
    </g>
    <g font-size="16px" stroke-linecap="butt" transform="matrix(1,0,0,1,-288,-155)" text-rendering="geometricPrecision" font-family="'Fira Code'" shape-rendering="geometricPrecision" stroke-miterlimit="1.45">
      <text x="543.2692" xml:space="preserve" y="415.3571" clip-path="url(#clipPath2)" stroke="none">8, 49</text>
      <path fill="none" d="M392.5 185 L368.1569 209.3431" clip-path="url(#clipPath2)"/>
      <path d="M362.5 215 L374.5208 210.0502 L368.864 208.636 L367.4497 202.9792 Z" stroke="none" clip-path="url(#clipPath2)"/>
      <path fill="none" d="M421.96 185 L445.3278 209.2404" clip-path="url(#clipPath2)"/>
      <path d="M450.88 215 L446.1514 202.8905 L444.6337 208.5205 L438.9519 209.8308 Z" stroke="none" clip-path="url(#clipPath2)"/>
      <path fill="none" d="M338 245 L323.2804 268.2415" clip-path="url(#clipPath2)"/>
      <path d="M319 275 L329.6447 267.5374 L323.8155 267.3966 L321.1966 262.1869 Z" stroke="none" clip-path="url(#clipPath2)"/>
      <path fill="none" d="M354.101 245 L364.0807 267.6777" clip-path="url(#clipPath2)"/>
      <path d="M367.303 275 L367.046 262.0025 L363.6779 266.7624 L357.8931 266.0305 Z" stroke="none" clip-path="url(#clipPath2)"/>
      <path fill="none" d="M459.957 245 L451.8932 267.4702" clip-path="url(#clipPath2)"/>
      <path d="M449.191 275 L457.9504 265.3941 L452.231 266.529 L448.5381 262.0164 Z" stroke="none" clip-path="url(#clipPath2)"/>
      <path fill="none" d="M491.34 243.7213 L545.9568 272.5449" clip-path="url(#clipPath2)"/>
      <path d="M553.032 276.2787 L544.7529 266.256 L545.0724 272.0781 L540.0855 275.0999 Z" stroke="none" clip-path="url(#clipPath2)"/>
      <path fill="none" d="M567.088 305 L548.1833 328.7417" clip-path="url(#clipPath2)"/>
      <path d="M543.2 335 L554.5864 328.7271 L548.8062 327.9594 L546.7635 322.4979 Z" stroke="none" clip-path="url(#clipPath2)"/>
      <path fill="none" d="M522.512 365 L509.0529 388.0886" clip-path="url(#clipPath2)"/>
      <path d="M505.024 395 L515.387 387.1509 L509.5565 387.2246 L506.7477 382.1148 Z" stroke="none" clip-path="url(#clipPath2)"/>
      <path fill="none" d="M540.256 365 L554.14 388.14" clip-path="url(#clipPath2)"/>
      <path d="M558.256 395 L556.3695 382.1376 L553.6255 387.2826 L547.7946 387.2826 Z" stroke="none" clip-path="url(#clipPath2)"/>
    </g>
  </g>
</svg>
