<?xml version="1.0" encoding="UTF-8"?><svg xmlns="http://www.w3.org/2000/svg" xmlns:xlink="http://www.w3.org/1999/xlink" fill-opacity="1" color-rendering="auto" color-interpolation="auto" text-rendering="auto" stroke="black" stroke-linecap="square" width="261" stroke-miterlimit="10" shape-rendering="auto" stroke-opacity="1" fill="black" stroke-dasharray="none" font-weight="normal" stroke-width="1" height="243" font-family="'Dialog'" font-style="normal" stroke-linejoin="miter" font-size="12px" stroke-dashoffset="0" image-rendering="auto">
  <!--Generated by ySVG 2.5-->
  <defs id="genericDefs"/>
  <g>
    <defs id="defs1">
      <clipPath clipPathUnits="userSpaceOnUse" id="clipPath1">
        <path d="M0 0 L261 0 L261 243 L0 243 L0 0 Z"/>
      </clipPath>
      <clipPath clipPathUnits="userSpaceOnUse" id="clipPath2">
        <path d="M645 292 L906 292 L906 535 L645 535 L645 292 Z"/>
      </clipPath>
    </defs>
    <g text-rendering="geometricPrecision" stroke-miterlimit="1.45" font-size="24px" shape-rendering="geometricPrecision" transform="matrix(1,0,0,1,-645,-292)" stroke-linecap="butt">
      <text x="647.7855" xml:space="preserve" y="338.3886" clip-path="url(#clipPath2)" stroke="none">unfoldr f z</text>
    </g>
    <g text-rendering="geometricPrecision" stroke-miterlimit="1.45" font-size="24px" shape-rendering="geometricPrecision" transform="matrix(1,0,0,1,-645,-292)" stroke-linecap="butt">
      <text x="842.0208" xml:space="preserve" y="347.1246" clip-path="url(#clipPath2)" stroke="none">f</text>
      <circle fill="none" r="15" clip-path="url(#clipPath2)" cx="846.2454" cy="338.816"/>
      <text x="812.0208" xml:space="preserve" y="377.1246" clip-path="url(#clipPath2)" stroke="none">f</text>
      <circle fill="none" r="15" clip-path="url(#clipPath2)" cx="816.2454" cy="368.816"/>
      <text x="782.0208" xml:space="preserve" y="407.1246" clip-path="url(#clipPath2)" stroke="none">f</text>
      <circle fill="none" r="15" clip-path="url(#clipPath2)" cx="786.2454" cy="398.816"/>
      <text x="752.0208" xml:space="preserve" y="437.1246" clip-path="url(#clipPath2)" stroke="none">f</text>
      <circle fill="none" r="15" clip-path="url(#clipPath2)" cx="756.2454" cy="428.816"/>
      <text x="722.0208" xml:space="preserve" y="467.1246" clip-path="url(#clipPath2)" stroke="none">f</text>
      <circle fill="none" r="15" clip-path="url(#clipPath2)" cx="726.2454" cy="458.816"/>
      <text x="748.6107" xml:space="preserve" y="527.1246" clip-path="url(#clipPath2)" stroke="none">1</text>
      <text x="868.6107" xml:space="preserve" y="527.1246" clip-path="url(#clipPath2)" stroke="none">5</text>
      <text x="838.6107" xml:space="preserve" y="527.1246" clip-path="url(#clipPath2)" stroke="none">4</text>
      <text x="808.6107" xml:space="preserve" y="527.1246" clip-path="url(#clipPath2)" stroke="none">3</text>
      <text x="778.6107" xml:space="preserve" y="527.1246" clip-path="url(#clipPath2)" stroke="none">2</text>
      <text x="689.9466" xml:space="preserve" y="497.1246" clip-path="url(#clipPath2)" stroke="none">z</text>
      <text x="737.6409" xml:space="preserve" y="527.1246" clip-path="url(#clipPath2)" stroke="none">[</text>
      <text x="884.6147" xml:space="preserve" y="527.1246" clip-path="url(#clipPath2)" stroke="none">]</text>
      <text x="877.0208" xml:space="preserve" y="317.1246" clip-path="url(#clipPath2)" stroke="none">f</text>
      <circle fill="none" r="15" clip-path="url(#clipPath2)" cx="881.2454" cy="308.816"/>
      <text x="762.8508" xml:space="preserve" y="527.1246" clip-path="url(#clipPath2)" stroke="none">,</text>
      <text x="792.8508" xml:space="preserve" y="527.1246" clip-path="url(#clipPath2)" stroke="none">,</text>
      <text x="822.8508" xml:space="preserve" y="527.1246" clip-path="url(#clipPath2)" stroke="none">,</text>
      <text x="852.8508" xml:space="preserve" y="527.1246" clip-path="url(#clipPath2)" stroke="none">,</text>
      <path fill="none" d="M823.6932 335.2119 L823.5934 335.2054 L823.2222 335.2222 L821.0391 335.5391 L819.0903 336.0903 L817.4019 336.9019 L816 338 L814.9019 339.4019 L814.0903 341.0903 L813.5391 343.0391 L813.2222 345.2222 L813.1137 347.6137 L813.1875 350.1875 L813.4175 352.9175 L813.5582 354.0348" clip-path="url(#clipPath2)"/>
      <path d="M831.6878 335.5056 L819.8795 330.0684 L822.6938 335.1751 L819.5123 340.0616 Z" clip-path="url(#clipPath2)" stroke="none"/>
      <path fill="none" d="M793.6932 365.2119 L793.5934 365.2054 L793.2222 365.2222 L791.0391 365.5391 L789.0903 366.0903 L787.4019 366.9019 L786 368 L784.9019 369.4019 L784.0903 371.0903 L783.5391 373.0391 L783.2222 375.2222 L783.1137 377.6137 L783.1875 380.1875 L783.4175 382.9175 L783.5582 384.0348" clip-path="url(#clipPath2)"/>
      <path d="M801.6878 365.5056 L789.8795 360.0684 L792.6938 365.1751 L789.5123 370.0616 Z" clip-path="url(#clipPath2)" stroke="none"/>
      <path fill="none" d="M763.6932 395.2119 L763.5934 395.2054 L763.2222 395.2222 L761.0391 395.5391 L759.0903 396.0903 L757.4019 396.9019 L756 398 L754.9019 399.4019 L754.0903 401.0903 L753.5391 403.0391 L753.2222 405.2222 L753.1137 407.6137 L753.1875 410.1875 L753.4175 412.9175 L753.5582 414.0348" clip-path="url(#clipPath2)"/>
      <path d="M771.6878 395.5056 L759.8795 390.0684 L762.6938 395.1751 L759.5123 400.0616 Z" clip-path="url(#clipPath2)" stroke="none"/>
      <path fill="none" d="M733.76 425.4194 L733.66 425.4171 L732.8672 425.5391 L731.0116 426.0903 L729.3817 426.9019 L728 428 L726.8817 429.4019 L726.0116 431.0903 L725.3672 433.0391 L724.9259 435.2222 L724.6652 437.6137 L724.5625 440.1875 L724.5952 442.9175 L724.6475 443.9454" clip-path="url(#clipPath2)"/>
      <path d="M741.7599 425.3775 L729.7339 420.4404 L732.76 425.4246 L729.7863 430.4402 Z" clip-path="url(#clipPath2)" stroke="none"/>
      <path fill="none" d="M740.7629 454.9665 L741.8519 455.037 L743.55 455.375 L745.1481 455.963 L746.6352 456.8287 L748 458 L749.2345 459.4942 L750.3426 461.287 L751.3312 463.3438 L752.2074 465.6296 L752.978 468.11 L753.65 470.75 L754.2303 473.515 L754.726 476.3704 L755.1437 479.2812 L755.4907 482.213 L755.7739 485.1308 L756 488 L756.1757 490.7928 L756.3055 493.5092 L756.3815 495.7884 L756.3822 495.8884" clip-path="url(#clipPath2)" stroke="rgb(51,153,102)"/>
      <path fill="rgb(51,153,102)" d="M756.4503 503.8881 L761.348 491.8459 L756.3737 494.8884 L751.3483 491.9311 Z" clip-path="url(#clipPath2)" stroke="none"/>
      <path fill="none" d="M858.6451 347.2511 L860.375 349.3125 L862.5075 352.4881 L864.5185 356.2592 L866.3906 360.7109 L868.1065 365.9282 L869.6487 371.9962 L871 379 L872.1487 386.9962 L873.1065 395.9283 L873.8906 405.7109 L874.5185 416.2593 L875.0075 427.4881 L875.375 439.3125 L875.6383 451.6473 L875.8148 464.4074 L875.9219 477.5078 L875.9769 490.8634 L875.9843 495.8344" clip-path="url(#clipPath2)" stroke="rgb(51,153,102)"/>
      <path fill="rgb(51,153,102)" d="M875.9963 503.8344 L880.9783 491.8269 L875.9828 494.8344 L870.9783 491.8419 Z" clip-path="url(#clipPath2)" stroke="none"/>
      <path fill="none" d="M827.9183 378.1996 L828.3125 378.6875 L830.1802 381.4957 L831.963 384.7778 L833.6484 388.6016 L835.2245 393.0347 L836.6791 398.145 L838 404 L839.1791 410.645 L840.2245 418.0347 L841.1484 426.1016 L841.963 434.7778 L842.6802 443.9957 L843.3125 453.6875 L843.8718 463.7856 L844.3704 474.2222 L844.8203 484.9297 L845.2333 495.8277 L845.2369 495.9277" clip-path="url(#clipPath2)" stroke="rgb(51,153,102)"/>
      <path fill="rgb(51,153,102)" d="M845.5186 503.9227 L850.093 491.7541 L845.2017 494.9283 L840.0991 492.1062 Z" clip-path="url(#clipPath2)" stroke="none"/>
      <path fill="none" d="M797.5386 408.6451 L797.625 408.75 L799.4045 411.2789 L801.1111 414.1482 L802.7344 417.4062 L804.2639 421.1018 L805.6892 425.2836 L807 430 L808.1892 435.2836 L809.2639 441.1019 L810.2344 447.4062 L811.1111 454.1481 L811.9045 461.2789 L812.625 468.75 L813.283 476.5127 L813.8889 484.5185 L814.4531 492.7188 L814.6511 495.818 L814.6571 495.9178" clip-path="url(#clipPath2)" stroke="rgb(51,153,102)"/>
      <path fill="rgb(51,153,102)" d="M815.1584 503.9021 L819.3966 491.6124 L814.5945 494.9198 L809.4163 492.239 Z" clip-path="url(#clipPath2)" stroke="none"/>
      <path fill="none" d="M768.9421 436.8604 L770.375 438.125 L772.5075 440.2865 L774.5185 442.6667 L776.3906 445.2969 L778.1065 448.2083 L779.6487 451.4323 L781 455 L782.1487 458.9323 L783.1065 463.2083 L783.8906 467.7969 L784.5185 472.6667 L785.0075 477.7865 L785.375 483.125 L785.6383 488.651 L785.8148 494.3333 L785.8416 495.7835 L785.8425 495.8835" clip-path="url(#clipPath2)" stroke="rgb(51,153,102)"/>
      <path fill="rgb(51,153,102)" d="M785.9573 503.8827 L790.7846 491.8122 L785.8281 494.8836 L780.7856 491.9556 Z" clip-path="url(#clipPath2)" stroke="none"/>
      <path fill="none" d="M703.6932 455.2119 L703.5934 455.2054 L703.2222 455.2222 L701.0391 455.5391 L699.0903 456.0903 L697.4019 456.9019 L696 458 L694.9019 459.4019 L694.0903 461.0903 L693.5391 463.0391 L693.2222 465.2222 L693.1137 467.6137 L693.1875 470.1875 L693.4175 472.9175 L693.5358 473.856" clip-path="url(#clipPath2)"/>
      <path d="M711.6878 455.5056 L699.8795 450.0684 L702.6938 455.1751 L699.5123 460.0616 Z" clip-path="url(#clipPath2)" stroke="none"/>
      <path fill="none" d="M846.2454 323.816 L846.2454 316.316 L847.7454 310.691 L849.6204 309.2848 L852.2454 308.816 L858.2454 308.816" clip-path="url(#clipPath2)"/>
      <path d="M866.2454 308.816 L854.2454 303.816 L857.2454 308.816 L854.2454 313.816 Z" clip-path="url(#clipPath2)" stroke="none"/>
      <path fill="none" d="M890.4648 320.6483 L898.1501 330.5118 L902.7598 338.9279 L904.2963 348.4 L904.2963 510.816" clip-path="url(#clipPath2)" stroke="rgb(153,51,0)"/>
      <path fill="rgb(153,51,0)" d="M904.2963 518.816 L909.2963 506.816 L904.2963 509.816 L899.2963 506.816 Z" clip-path="url(#clipPath2)" stroke="none"/>
    </g>
  </g>
</svg>
