<?xml version="1.0" encoding="UTF-8"?><svg xmlns="http://www.w3.org/2000/svg" xmlns:xlink="http://www.w3.org/1999/xlink" fill-opacity="1" color-rendering="auto" color-interpolation="auto" text-rendering="auto" stroke="black" stroke-linecap="square" width="512" stroke-miterlimit="10" shape-rendering="auto" stroke-opacity="1" fill="black" stroke-dasharray="none" font-weight="normal" stroke-width="1" height="241" font-family="'Dialog'" font-style="normal" stroke-linejoin="miter" font-size="12px" stroke-dashoffset="0" image-rendering="auto">
  <!--Generated by ySVG 2.5-->
  <defs id="genericDefs"/>
  <g>
    <defs id="defs1">
      <clipPath clipPathUnits="userSpaceOnUse" id="clipPath1">
        <path d="M0 0 L512 0 L512 241 L0 241 L0 0 Z"/>
      </clipPath>
      <clipPath clipPathUnits="userSpaceOnUse" id="clipPath2">
        <path d="M213 194 L725 194 L725 435 L213 435 L213 194 Z"/>
      </clipPath>
    </defs>
    <g fill="rgb(255,204,0)" text-rendering="geometricPrecision" shape-rendering="geometricPrecision" transform="matrix(1,0,0,1,-213,-194)" stroke="rgb(255,204,0)">
      <rect x="274" width="30" height="30" y="195" clip-path="url(#clipPath2)" stroke="none"/>
    </g>
    <g font-size="22px" stroke-linecap="butt" transform="matrix(1,0,0,1,-213,-194)" text-rendering="geometricPrecision" font-family="'Fira Mono'" shape-rendering="geometricPrecision" font-weight="bold" stroke-miterlimit="1.45">
      <text x="282.4036" xml:space="preserve" y="217.366" clip-path="url(#clipPath2)" stroke="none">a</text>
    </g>
    <g fill="rgb(255,204,0)" text-rendering="geometricPrecision" shape-rendering="geometricPrecision" transform="matrix(1,0,0,1,-213,-194)" stroke="rgb(255,204,0)">
      <rect x="334" width="30" height="30" y="195" clip-path="url(#clipPath2)" stroke="none"/>
    </g>
    <g font-size="22px" stroke-linecap="butt" transform="matrix(1,0,0,1,-213,-194)" text-rendering="geometricPrecision" font-family="'Fira Mono'" shape-rendering="geometricPrecision" font-weight="bold" stroke-miterlimit="1.45">
      <text x="342.4036" xml:space="preserve" y="217.366" clip-path="url(#clipPath2)" stroke="none">b</text>
    </g>
    <g fill="rgb(255,204,0)" text-rendering="geometricPrecision" shape-rendering="geometricPrecision" transform="matrix(1,0,0,1,-213,-194)" stroke="rgb(255,204,0)">
      <rect x="394" width="30" height="30" y="195" clip-path="url(#clipPath2)" stroke="none"/>
    </g>
    <g font-size="22px" stroke-linecap="butt" transform="matrix(1,0,0,1,-213,-194)" text-rendering="geometricPrecision" font-family="'Fira Mono'" shape-rendering="geometricPrecision" font-weight="bold" stroke-miterlimit="1.45">
      <text x="402.4036" xml:space="preserve" y="217.366" clip-path="url(#clipPath2)" stroke="none">c</text>
    </g>
    <g fill="rgb(255,204,0)" text-rendering="geometricPrecision" shape-rendering="geometricPrecision" transform="matrix(1,0,0,1,-213,-194)" stroke="rgb(255,204,0)">
      <rect x="454" width="30" height="30" y="195" clip-path="url(#clipPath2)" stroke="none"/>
    </g>
    <g font-size="22px" stroke-linecap="butt" transform="matrix(1,0,0,1,-213,-194)" text-rendering="geometricPrecision" font-family="'Fira Mono'" shape-rendering="geometricPrecision" font-weight="bold" stroke-miterlimit="1.45">
      <text x="462.4036" xml:space="preserve" y="217.366" clip-path="url(#clipPath2)" stroke="none">d</text>
    </g>
    <g fill="rgb(255,204,0)" text-rendering="geometricPrecision" shape-rendering="geometricPrecision" transform="matrix(1,0,0,1,-213,-194)" stroke="rgb(255,204,0)">
      <rect x="514" width="30" height="30" y="195" clip-path="url(#clipPath2)" stroke="none"/>
    </g>
    <g font-size="22px" stroke-linecap="butt" transform="matrix(1,0,0,1,-213,-194)" text-rendering="geometricPrecision" font-family="'Fira Mono'" shape-rendering="geometricPrecision" font-weight="bold" stroke-miterlimit="1.45">
      <text x="522.4036" xml:space="preserve" y="217.366" clip-path="url(#clipPath2)" stroke="none">e</text>
    </g>
    <g fill="white" text-rendering="geometricPrecision" shape-rendering="geometricPrecision" transform="matrix(1,0,0,1,-213,-194)" stroke="white">
      <rect x="694" width="30" height="30" y="195" clip-path="url(#clipPath2)" stroke="none"/>
    </g>
    <g font-size="22px" stroke-linecap="butt" transform="matrix(1,0,0,1,-213,-194)" text-rendering="geometricPrecision" font-family="'Fira Mono'" shape-rendering="geometricPrecision" font-weight="bold" stroke-miterlimit="1.45">
      <text x="695.8073" xml:space="preserve" y="217.366" clip-path="url(#clipPath2)" stroke="none">[]</text>
    </g>
    <g fill="rgb(255,204,0)" text-rendering="geometricPrecision" shape-rendering="geometricPrecision" transform="matrix(1,0,0,1,-213,-194)" stroke="rgb(255,204,0)">
      <rect x="634" width="30" height="30" y="195" clip-path="url(#clipPath2)" stroke="none"/>
    </g>
    <g font-size="22px" stroke-linecap="butt" transform="matrix(1,0,0,1,-213,-194)" text-rendering="geometricPrecision" font-family="'Fira Mono'" shape-rendering="geometricPrecision" font-weight="bold" stroke-miterlimit="1.45">
      <text x="642.4036" xml:space="preserve" y="217.366" clip-path="url(#clipPath2)" stroke="none">g</text>
    </g>
    <g fill="rgb(255,204,0)" text-rendering="geometricPrecision" shape-rendering="geometricPrecision" transform="matrix(1,0,0,1,-213,-194)" stroke="rgb(255,204,0)">
      <rect x="574" width="30" height="30" y="195" clip-path="url(#clipPath2)" stroke="none"/>
    </g>
    <g font-size="22px" stroke-linecap="butt" transform="matrix(1,0,0,1,-213,-194)" text-rendering="geometricPrecision" font-family="'Fira Mono'" shape-rendering="geometricPrecision" font-weight="bold" stroke-miterlimit="1.45">
      <text x="582.4036" xml:space="preserve" y="217.366" clip-path="url(#clipPath2)" stroke="none">f</text>
    </g>
    <g fill="red" text-rendering="geometricPrecision" shape-rendering="geometricPrecision" transform="matrix(1,0,0,1,-213,-194)" stroke="red">
      <path d="M259 225 L274 255 L244 255 Z" fill-rule="evenodd" clip-path="url(#clipPath2)" stroke="none"/>
      <rect x="214" y="195" clip-path="url(#clipPath2)" fill="white" width="30" height="30" stroke="none"/>
    </g>
    <g font-size="22px" stroke-linecap="butt" transform="matrix(1,0,0,1,-213,-194)" text-rendering="geometricPrecision" font-family="'Fira Mono'" shape-rendering="geometricPrecision" font-weight="bold" stroke-miterlimit="1.45">
      <text x="215.8073" xml:space="preserve" y="217.366" clip-path="url(#clipPath2)" stroke="none">[]</text>
    </g>
    <g fill="rgb(255,204,0)" text-rendering="geometricPrecision" shape-rendering="geometricPrecision" transform="matrix(1,0,0,1,-213,-194)" stroke="rgb(255,204,0)">
      <rect x="274" width="30" height="30" y="285" clip-path="url(#clipPath2)" stroke="none"/>
    </g>
    <g font-size="22px" stroke-linecap="butt" transform="matrix(1,0,0,1,-213,-194)" text-rendering="geometricPrecision" font-family="'Fira Mono'" shape-rendering="geometricPrecision" font-weight="bold" stroke-miterlimit="1.45">
      <text x="282.4036" xml:space="preserve" y="307.366" clip-path="url(#clipPath2)" stroke="none">a</text>
    </g>
    <g fill="rgb(255,204,0)" text-rendering="geometricPrecision" shape-rendering="geometricPrecision" transform="matrix(1,0,0,1,-213,-194)" stroke="rgb(255,204,0)">
      <rect x="334" width="30" height="30" y="285" clip-path="url(#clipPath2)" stroke="none"/>
    </g>
    <g font-size="22px" stroke-linecap="butt" transform="matrix(1,0,0,1,-213,-194)" text-rendering="geometricPrecision" font-family="'Fira Mono'" shape-rendering="geometricPrecision" font-weight="bold" stroke-miterlimit="1.45">
      <text x="342.4036" xml:space="preserve" y="307.366" clip-path="url(#clipPath2)" stroke="none">b</text>
    </g>
    <g fill="rgb(255,204,0)" text-rendering="geometricPrecision" shape-rendering="geometricPrecision" transform="matrix(1,0,0,1,-213,-194)" stroke="rgb(255,204,0)">
      <rect x="394" width="30" height="30" y="285" clip-path="url(#clipPath2)" stroke="none"/>
    </g>
    <g font-size="22px" stroke-linecap="butt" transform="matrix(1,0,0,1,-213,-194)" text-rendering="geometricPrecision" font-family="'Fira Mono'" shape-rendering="geometricPrecision" font-weight="bold" stroke-miterlimit="1.45">
      <text x="402.4036" xml:space="preserve" y="307.366" clip-path="url(#clipPath2)" stroke="none">c</text>
    </g>
    <g fill="rgb(255,204,0)" text-rendering="geometricPrecision" shape-rendering="geometricPrecision" transform="matrix(1,0,0,1,-213,-194)" stroke="rgb(255,204,0)">
      <rect x="454" width="30" height="30" y="285" clip-path="url(#clipPath2)" stroke="none"/>
    </g>
    <g font-size="22px" stroke-linecap="butt" transform="matrix(1,0,0,1,-213,-194)" text-rendering="geometricPrecision" font-family="'Fira Mono'" shape-rendering="geometricPrecision" font-weight="bold" stroke-miterlimit="1.45">
      <text x="462.4036" xml:space="preserve" y="307.366" clip-path="url(#clipPath2)" stroke="none">d</text>
    </g>
    <g fill="rgb(255,204,0)" text-rendering="geometricPrecision" shape-rendering="geometricPrecision" transform="matrix(1,0,0,1,-213,-194)" stroke="rgb(255,204,0)">
      <rect x="514" width="30" height="30" y="285" clip-path="url(#clipPath2)" stroke="none"/>
    </g>
    <g font-size="22px" stroke-linecap="butt" transform="matrix(1,0,0,1,-213,-194)" text-rendering="geometricPrecision" font-family="'Fira Mono'" shape-rendering="geometricPrecision" font-weight="bold" stroke-miterlimit="1.45">
      <text x="522.4036" xml:space="preserve" y="307.366" clip-path="url(#clipPath2)" stroke="none">e</text>
    </g>
    <g fill="white" text-rendering="geometricPrecision" shape-rendering="geometricPrecision" transform="matrix(1,0,0,1,-213,-194)" stroke="white">
      <rect x="694" width="30" height="30" y="285" clip-path="url(#clipPath2)" stroke="none"/>
    </g>
    <g font-size="22px" stroke-linecap="butt" transform="matrix(1,0,0,1,-213,-194)" text-rendering="geometricPrecision" font-family="'Fira Mono'" shape-rendering="geometricPrecision" font-weight="bold" stroke-miterlimit="1.45">
      <text x="695.8073" xml:space="preserve" y="307.366" clip-path="url(#clipPath2)" stroke="none">[]</text>
    </g>
    <g fill="rgb(255,204,0)" text-rendering="geometricPrecision" shape-rendering="geometricPrecision" transform="matrix(1,0,0,1,-213,-194)" stroke="rgb(255,204,0)">
      <rect x="634" width="30" height="30" y="285" clip-path="url(#clipPath2)" stroke="none"/>
    </g>
    <g font-size="22px" stroke-linecap="butt" transform="matrix(1,0,0,1,-213,-194)" text-rendering="geometricPrecision" font-family="'Fira Mono'" shape-rendering="geometricPrecision" font-weight="bold" stroke-miterlimit="1.45">
      <text x="642.4036" xml:space="preserve" y="307.366" clip-path="url(#clipPath2)" stroke="none">g</text>
    </g>
    <g fill="rgb(255,204,0)" text-rendering="geometricPrecision" shape-rendering="geometricPrecision" transform="matrix(1,0,0,1,-213,-194)" stroke="rgb(255,204,0)">
      <rect x="574" width="30" height="30" y="285" clip-path="url(#clipPath2)" stroke="none"/>
    </g>
    <g font-size="22px" stroke-linecap="butt" transform="matrix(1,0,0,1,-213,-194)" text-rendering="geometricPrecision" font-family="'Fira Mono'" shape-rendering="geometricPrecision" font-weight="bold" stroke-miterlimit="1.45">
      <text x="582.4036" xml:space="preserve" y="307.366" clip-path="url(#clipPath2)" stroke="none">f</text>
    </g>
    <g fill="red" text-rendering="geometricPrecision" shape-rendering="geometricPrecision" transform="matrix(1,0,0,1,-213,-194)" stroke="red">
      <path d="M439 315 L454 345 L424 345 Z" fill-rule="evenodd" clip-path="url(#clipPath2)" stroke="none"/>
      <rect x="214" y="285" clip-path="url(#clipPath2)" fill="white" width="30" height="30" stroke="none"/>
    </g>
    <g font-size="22px" stroke-linecap="butt" transform="matrix(1,0,0,1,-213,-194)" text-rendering="geometricPrecision" font-family="'Fira Mono'" shape-rendering="geometricPrecision" font-weight="bold" stroke-miterlimit="1.45">
      <text x="215.8073" xml:space="preserve" y="307.366" clip-path="url(#clipPath2)" stroke="none">[]</text>
    </g>
    <g fill="rgb(255,204,0)" text-rendering="geometricPrecision" shape-rendering="geometricPrecision" transform="matrix(1,0,0,1,-213,-194)" stroke="rgb(255,204,0)">
      <rect x="274" width="30" height="30" y="375" clip-path="url(#clipPath2)" stroke="none"/>
    </g>
    <g font-size="22px" stroke-linecap="butt" transform="matrix(1,0,0,1,-213,-194)" text-rendering="geometricPrecision" font-family="'Fira Mono'" shape-rendering="geometricPrecision" font-weight="bold" stroke-miterlimit="1.45">
      <text x="282.4036" xml:space="preserve" y="397.366" clip-path="url(#clipPath2)" stroke="none">a</text>
    </g>
    <g fill="rgb(255,204,0)" text-rendering="geometricPrecision" shape-rendering="geometricPrecision" transform="matrix(1,0,0,1,-213,-194)" stroke="rgb(255,204,0)">
      <rect x="334" width="30" height="30" y="375" clip-path="url(#clipPath2)" stroke="none"/>
    </g>
    <g font-size="22px" stroke-linecap="butt" transform="matrix(1,0,0,1,-213,-194)" text-rendering="geometricPrecision" font-family="'Fira Mono'" shape-rendering="geometricPrecision" font-weight="bold" stroke-miterlimit="1.45">
      <text x="342.4036" xml:space="preserve" y="397.366" clip-path="url(#clipPath2)" stroke="none">b</text>
    </g>
    <g fill="rgb(255,204,0)" text-rendering="geometricPrecision" shape-rendering="geometricPrecision" transform="matrix(1,0,0,1,-213,-194)" stroke="rgb(255,204,0)">
      <rect x="394" width="30" height="30" y="375" clip-path="url(#clipPath2)" stroke="none"/>
    </g>
    <g font-size="22px" stroke-linecap="butt" transform="matrix(1,0,0,1,-213,-194)" text-rendering="geometricPrecision" font-family="'Fira Mono'" shape-rendering="geometricPrecision" font-weight="bold" stroke-miterlimit="1.45">
      <text x="402.4036" xml:space="preserve" y="397.366" clip-path="url(#clipPath2)" stroke="none">c</text>
    </g>
    <g fill="rgb(255,204,0)" text-rendering="geometricPrecision" shape-rendering="geometricPrecision" transform="matrix(1,0,0,1,-213,-194)" stroke="rgb(255,204,0)">
      <rect x="454" width="30" height="30" y="375" clip-path="url(#clipPath2)" stroke="none"/>
    </g>
    <g font-size="22px" stroke-linecap="butt" transform="matrix(1,0,0,1,-213,-194)" text-rendering="geometricPrecision" font-family="'Fira Mono'" shape-rendering="geometricPrecision" font-weight="bold" stroke-miterlimit="1.45">
      <text x="462.4036" xml:space="preserve" y="397.366" clip-path="url(#clipPath2)" stroke="none">d</text>
    </g>
    <g fill="rgb(255,204,0)" text-rendering="geometricPrecision" shape-rendering="geometricPrecision" transform="matrix(1,0,0,1,-213,-194)" stroke="rgb(255,204,0)">
      <rect x="514" width="30" height="30" y="375" clip-path="url(#clipPath2)" stroke="none"/>
    </g>
    <g font-size="22px" stroke-linecap="butt" transform="matrix(1,0,0,1,-213,-194)" text-rendering="geometricPrecision" font-family="'Fira Mono'" shape-rendering="geometricPrecision" font-weight="bold" stroke-miterlimit="1.45">
      <text x="522.4036" xml:space="preserve" y="397.366" clip-path="url(#clipPath2)" stroke="none">e</text>
    </g>
    <g fill="white" text-rendering="geometricPrecision" shape-rendering="geometricPrecision" transform="matrix(1,0,0,1,-213,-194)" stroke="white">
      <rect x="694" width="30" height="30" y="375" clip-path="url(#clipPath2)" stroke="none"/>
    </g>
    <g font-size="22px" stroke-linecap="butt" transform="matrix(1,0,0,1,-213,-194)" text-rendering="geometricPrecision" font-family="'Fira Mono'" shape-rendering="geometricPrecision" font-weight="bold" stroke-miterlimit="1.45">
      <text x="695.8073" xml:space="preserve" y="397.366" clip-path="url(#clipPath2)" stroke="none">[]</text>
    </g>
    <g fill="rgb(255,204,0)" text-rendering="geometricPrecision" shape-rendering="geometricPrecision" transform="matrix(1,0,0,1,-213,-194)" stroke="rgb(255,204,0)">
      <rect x="634" width="30" height="30" y="375" clip-path="url(#clipPath2)" stroke="none"/>
    </g>
    <g font-size="22px" stroke-linecap="butt" transform="matrix(1,0,0,1,-213,-194)" text-rendering="geometricPrecision" font-family="'Fira Mono'" shape-rendering="geometricPrecision" font-weight="bold" stroke-miterlimit="1.45">
      <text x="642.4036" xml:space="preserve" y="397.366" clip-path="url(#clipPath2)" stroke="none">g</text>
    </g>
    <g fill="rgb(255,204,0)" text-rendering="geometricPrecision" shape-rendering="geometricPrecision" transform="matrix(1,0,0,1,-213,-194)" stroke="rgb(255,204,0)">
      <rect x="574" width="30" height="30" y="375" clip-path="url(#clipPath2)" stroke="none"/>
    </g>
    <g font-size="22px" stroke-linecap="butt" transform="matrix(1,0,0,1,-213,-194)" text-rendering="geometricPrecision" font-family="'Fira Mono'" shape-rendering="geometricPrecision" font-weight="bold" stroke-miterlimit="1.45">
      <text x="582.4036" xml:space="preserve" y="397.366" clip-path="url(#clipPath2)" stroke="none">f</text>
    </g>
    <g fill="red" text-rendering="geometricPrecision" shape-rendering="geometricPrecision" transform="matrix(1,0,0,1,-213,-194)" stroke="red">
      <path d="M619 405 L634 435 L604 435 Z" fill-rule="evenodd" clip-path="url(#clipPath2)" stroke="none"/>
      <rect x="214" y="375" clip-path="url(#clipPath2)" fill="white" width="30" height="30" stroke="none"/>
    </g>
    <g font-size="22px" stroke-linecap="butt" transform="matrix(1,0,0,1,-213,-194)" text-rendering="geometricPrecision" font-family="'Fira Mono'" shape-rendering="geometricPrecision" font-weight="bold" stroke-miterlimit="1.45">
      <text x="215.8073" xml:space="preserve" y="397.366" clip-path="url(#clipPath2)" stroke="none">[]</text>
      <path fill="none" d="M304 210 L326 210" clip-path="url(#clipPath2)"/>
      <path d="M334 210 L322 205 L325 210 L322 215 Z" stroke="none" clip-path="url(#clipPath2)"/>
      <path fill="none" d="M364 210 L386 210" clip-path="url(#clipPath2)"/>
      <path d="M394 210 L382 205 L385 210 L382 215 Z" stroke="none" clip-path="url(#clipPath2)"/>
      <path fill="none" d="M424 210 L446 210" clip-path="url(#clipPath2)"/>
      <path d="M454 210 L442 205 L445 210 L442 215 Z" stroke="none" clip-path="url(#clipPath2)"/>
      <path fill="none" d="M484 210 L506 210" clip-path="url(#clipPath2)"/>
      <path d="M514 210 L502 205 L505 210 L502 215 Z" stroke="none" clip-path="url(#clipPath2)"/>
      <path fill="none" d="M664 210 L686 210" clip-path="url(#clipPath2)"/>
      <path d="M694 210 L682 205 L685 210 L682 215 Z" stroke="none" clip-path="url(#clipPath2)"/>
      <path fill="none" d="M544 210 L566 210" clip-path="url(#clipPath2)"/>
      <path d="M574 210 L562 205 L565 210 L562 215 Z" stroke="none" clip-path="url(#clipPath2)"/>
      <path fill="none" d="M604 210 L626 210" clip-path="url(#clipPath2)"/>
      <path d="M634 210 L622 205 L625 210 L622 215 Z" stroke="none" clip-path="url(#clipPath2)"/>
      <path fill="none" d="M334 300 L312 300" clip-path="url(#clipPath2)"/>
      <path d="M304 300 L316 305 L313 300 L316 295 Z" stroke="none" clip-path="url(#clipPath2)"/>
      <path fill="none" d="M394 300 L372 300" clip-path="url(#clipPath2)"/>
      <path d="M364 300 L376 305 L373 300 L376 295 Z" stroke="none" clip-path="url(#clipPath2)"/>
      <path fill="none" d="M484 300 L506 300" clip-path="url(#clipPath2)"/>
      <path d="M514 300 L502 295 L505 300 L502 305 Z" stroke="none" clip-path="url(#clipPath2)"/>
      <path fill="none" d="M664 300 L686 300" clip-path="url(#clipPath2)"/>
      <path d="M694 300 L682 295 L685 300 L682 305 Z" stroke="none" clip-path="url(#clipPath2)"/>
      <path fill="none" d="M544 300 L566 300" clip-path="url(#clipPath2)"/>
      <path d="M574 300 L562 295 L565 300 L562 305 Z" stroke="none" clip-path="url(#clipPath2)"/>
      <path fill="none" d="M604 300 L626 300" clip-path="url(#clipPath2)"/>
      <path d="M634 300 L622 295 L625 300 L622 305 Z" stroke="none" clip-path="url(#clipPath2)"/>
      <path fill="none" d="M274 300 L252 300" clip-path="url(#clipPath2)"/>
      <path d="M244 300 L256 305 L253 300 L256 295 Z" stroke="none" clip-path="url(#clipPath2)"/>
      <path fill="none" d="M334 390 L312 390" clip-path="url(#clipPath2)"/>
      <path d="M304 390 L316 395 L313 390 L316 385 Z" stroke="none" clip-path="url(#clipPath2)"/>
      <path fill="none" d="M394 390 L372 390" clip-path="url(#clipPath2)"/>
      <path d="M364 390 L376 395 L373 390 L376 385 Z" stroke="none" clip-path="url(#clipPath2)"/>
      <path fill="none" d="M454 390 L432 390" clip-path="url(#clipPath2)"/>
      <path d="M424 390 L436 395 L433 390 L436 385 Z" stroke="none" clip-path="url(#clipPath2)"/>
      <path fill="none" d="M514 390 L492 390" clip-path="url(#clipPath2)"/>
      <path d="M484 390 L496 395 L493 390 L496 385 Z" stroke="none" clip-path="url(#clipPath2)"/>
      <path fill="none" d="M664 390 L686 390" clip-path="url(#clipPath2)"/>
      <path d="M694 390 L682 385 L685 390 L682 395 Z" stroke="none" clip-path="url(#clipPath2)"/>
      <path fill="none" d="M574 390 L552 390" clip-path="url(#clipPath2)"/>
      <path d="M544 390 L556 395 L553 390 L556 385 Z" stroke="none" clip-path="url(#clipPath2)"/>
      <path fill="none" d="M274 390 L252 390" clip-path="url(#clipPath2)"/>
      <path d="M244 390 L256 395 L253 390 L256 385 Z" stroke="none" clip-path="url(#clipPath2)"/>
    </g>
  </g>
</svg>
